<svg data-v-70b83f88="" version="1.0" xmlns="http://www.w3.org/2000/svg" xmlns:xlink="http://www.w3.org/1999/xlink" width="100%" height="100%" viewBox="0 0 340.000000 250.000000" preserveAspectRatio="xMidYMid meet" color-interpolation-filters="sRGB" style="margin: auto;">
  <rect data-v-70b83f88="" x="0" y="0" width="100%" height="100%" fill="#ff6600" fill-opacity="1" class="background"></rect>
  <rect data-v-70b83f88="" x="0" y="0" width="100%" height="100%" fill="url(#watermark)" fill-opacity="1" class="watermarklayer"></rect>
  <g data-v-70b83f88="" fill="#feffff" class="iconbordersvg" transform="translate(46.420005798339844,80.54702377319336)">
    <g>
      <polyline stroke="#feffff" stroke-width="2" fill-opacity="0" points="37.524993896484375,74.82595205307007 0,74.82595205307007 0,24.999977111816406 105.58331680297852,24.999977111816406"></polyline>
      <polyline stroke="#feffff" stroke-width="2" fill-opacity="0" points="209.63499450683594,74.82595205307007 247.1599884033203,74.82595205307007 247.1599884033203,24.999977111816406 141.5766716003418,24.999977111816406"></polyline>
    </g>
    <g>
      <g>
        <rect data-gra="graph-name-bg" stroke-width="2" class="i-icon-bg" x="0" y="0" width="247.1599884033203" height="88.90595245361328" fill-opacity="0"></rect>
        <!---->
        <!---->
      </g>
      <g transform="translate(10,10)">
        <g transform="translate(0.00002288818359375,0)">
          <rect fill="#feffff" width="95.58331680297852" height="1" fill-opacity="0" x="0" y="14.499977111816406"></rect>
          <g class="iconsvg-imagesvg" transform="translate(98.58331680297852,0)">
            <g>
              <!---->
              <svg filter="url(#colors1970559962)" x="0" y="0" width="29.993354549999392" height="29.999954539998193" filtersec="colorsf8579032942" class="image-svg-svg primary" style="overflow: visible;">
                <svg xmlns="http://www.w3.org/2000/svg" xmlns:xlink="http://www.w3.org/1999/xlink" version="1.1" x="0px" y="0px" viewBox="4.95001220703125 4.95001220703125 90.08001708984375 90.0999755859375" xml:space="preserve">
                  <title>Mandala</title>
                  <path d="M60.5100098,16c-1.2874756,1.1726074-2.0540771,2.8102417-2.1300049,4.5499878  c4.8666382,1.3875122,9.3128662,3.9611206,12.9400024,7.4899902c1.4963989-0.9459839,2.5460815-2.4574585,2.9099731-4.1900024  C74.5700073,22.1099854,73.8099976,20.5999756,73,19c-1-1.8400269-2-3.9000244-1.2999878-6.6099854l-0.0100098,0.039978  c-1.960022,1.9400024-4.2700195,2.0700073-6.3599854,2.210022C63.5100098,14.7399902,61.8499756,14.8400269,60.5100098,16z"></path>
                  <path d="M58.5100098,15.0900269c0.2091064,0.6096802,0.3303223,1.2460938,0.3599854,1.8899536c0,0.0058594,0,0.0131836,0,0.0200195  c0.3459473-0.5548096,0.7703857-1.0567017,1.2600098-1.4899902C61.6199951,14.210022,63.4899902,14.0999756,65.2999878,14  l1.2399902-0.0700073c0.0091553-0.1765137,0.0091553-0.3534546,0-0.5299683c-0.0899658-1.4500122-1-2.4900513-2-3.5900269  c-1.1300049-1.2600098-2.3800049-2.6599731-2.4499512-4.8599854c-1.1600342,1.8800049-2.9400024,2.4699707-4.5500488,3  C56.1400146,8.4099731,54.8099976,8.8499756,54,10.0499878c-0.0808716,0.1495972-0.1542969,0.3031616-0.2199707,0.460022  c0.3099976,0.2399902,0.6599731,0.4599609,1,0.6900024C56.2999878,12.1900024,57.8699951,13.2199707,58.5100098,15.0900269z"></path>
                  <path d="M74.7800293,24c-0.1289062,0.609436-0.3408813,1.1983032-0.6300049,1.75v0.0700073h0.0699463  c0.5705566-0.2945557,1.1799316-0.5066528,1.8099976-0.6300049c1.9300537-0.3800049,3.6100464,0.460022,5.2300415,1.2799683  l1.1199951,0.5500488c0.0946045-0.1487427,0.1813965-0.3023071,0.2600098-0.460022  c0.6400146-1.3099976,0.3499756-2.6699829,0.0499878-4.1199951C82.3400269,20.7800293,82,18.9400024,83,17  c-2,1.0700073-3.7999878,0.6799927-5.460022,0.3400269C76.0900269,17.039978,74.7200317,16.75,73.4199829,17.3900146  c-0.144104,0.079834-0.2842407,0.166626-0.4199829,0.2600098c0.1300049,0.3499756,0.3099976,0.75,0.5,1.1199951  C74.3099976,20.3900146,75.1599731,22.0599976,74.7800293,24z"></path>
                  <path d="M42.0599976,15.3200073c-0.3771362,1.1013184-0.4360352,2.2866821-0.1699829,3.4199829  c0.0700073,0.210022,0.1699829,0.4199829,0.1699829,0.6199951c0.1159058,0.3429565,0.2562256,0.6771851,0.4199829,1  c4.9224854-1.2453003,10.0775757-1.2453003,15,0c0.1749878-0.3546753,0.3221436-0.7224731,0.4400024-1.0999756  c0.0533447-0.1733398,0.1033325-0.3500366,0.1500244-0.5300293c0.2698975-1.1396484,0.2109375-2.3324585-0.1699829-3.4400024  c-0.5700073-1.6799927-1.9900513-2.5899658-3.4900513-3.5899658c-1.75-1.1500244-3.6799927-2.4199829-4.4099731-5.0800171  c-0.7299805,2.6600342-2.6599731,3.9299927-4.4500122,5.1099854C44.0599976,12.710022,42.6400146,13.6400146,42.0599976,15.3200073z  "></path>
                  <path d="M76.0800171,25.7999878c-1.1254272,0.2315063-2.1641846,0.7716675-3,1.5599976  c-0.1500244,0.1600342-0.2999878,0.3099976-0.4500122,0.4500122c-0.2521362,0.2823486-0.4827881,0.5831909-0.6900024,0.9000244  c3.5303345,3.6299438,6.1040039,8.0797729,7.4899902,12.9499512c1.7633057-0.072998,3.4223022-0.8555908,4.6000366-2.1699829  c1.1599731-1.3399658,1.2599487-3.0299683,1.3599854-4.8200073c0.1199951-2.0899658,0.25-4.3599854,2.1900024-6.3599854h-0.0100098  C84.9000244,29,82.8400269,28,80.9400024,27.0300293C79.3300171,26.2200317,77.8200073,25.460022,76.0800171,25.7999878z"></path>
                  <path d="M34.75,14.0599976c1.8099976,0.1099854,3.6799927,0.210022,5.1699829,1.5100098  c0.4866943,0.4210815,0.9109497,0.9093018,1.2600098,1.4500122c0-0.0091553,0-0.0200195,0-0.0200195  c0.0380249-0.6381226,0.1659546-1.2676392,0.3800049-1.8699951c0.6400146-1.8900146,2.210022-2.8900146,3.7299805-3.8900146  c0.3099976-0.2199707,0.6600342-0.4500122,1-0.6900024c-0.0822144-0.15448-0.1723633-0.3046875-0.2699585-0.4500122  C45.210022,8.9000244,43.8800049,8.460022,42.4799805,8c-1.6099854-0.539978-3.3899536-1.1300049-4.5499878-3  c-0.0700073,2.1599731-1.3200073,3.5599976-2.4599609,4.8300171c-1,1.0999756-1.9000244,2.1399536-2,3.5899658  c0.003418,0.18396,0.0167847,0.3675537,0.039978,0.5499878L34.75,14.0599976z"></path>
                  <path d="M26.9899902,19.0100098c-0.8099976,1.6099854-1.5700073,3.1199951-1.2299805,4.8599854  c0.2237549,1.1478271,0.7681274,2.2088013,1.5700073,3.0599976l0.3900146,0.3900146  c0.3126221,0.2734375,0.6470337,0.5209351,1,0.7399902c3.6271362-3.5289307,8.0733643-6.102478,12.9400024-7.4899902  c-0.0730591-1.7633057-0.8556519-3.4222412-2.1700439-4.6000366c-1.3399658-1.1599731-3.0299683-1.2599487-4.8200073-1.3599854  c-2.0899658-0.1199951-4.3599854-0.25-6.3599854-2.1900024v0.0100098C29,15.0999756,28,17.1599731,26.9899902,19.0100098z"></path>
                  <path d="M86.5800171,33.5100098h-0.5300293C85.960022,33.9199829,85.960022,34.3400269,85.960022,34.75  c-0.1100464,1.8099976-0.210022,3.6799927-1.5100098,5.1699829C84.0285645,40.406311,83.5403442,40.8305054,83,41.1799927  c0.6477661,0.0319824,1.2875977,0.1565552,1.9000244,0.3699951c1.8899536,0.6400146,2.8899536,2.210022,3.8899536,3.7300415  c0.2200317,0.3099976,0.4500122,0.6599731,0.6900024,1c0.154541-0.0822754,0.3047485-0.1724243,0.4500122-0.2700195  c1.2000122-0.8099976,1.6400146-2.1400146,2.1000366-3.5400391c0.539978-1.6099854,1.1299438-3.3899536,3-4.5499878  c-2.1900024-0.0700073-3.5900269-1.3200073-4.8600464-2.4500122c-1.0999756-1-2.1399536-1.8999634-3.5899658-2V33.5100098z"></path>
                  <path d="M84.710022,57.9000244c1.6799927-0.5700073,2.5899658-1.9900513,3.5899658-3.4900513  c1.1500244-1.75,2.4199829-3.6799927,5.0800171-4.4099731c-2.6599731-0.7299805-3.9299927-2.6599731-5.0700073-4.4400024  c-0.9799805-1.4899902-1.9099731-2.9099731-3.5899658-3.4899902c-1.1075439-0.3809814-2.300354-0.4399414-3.4400024-0.1699829  l-0.5400391,0.1399536c-0.3775024,0.117981-0.7452393,0.2650757-1.0999756,0.4400024c1.2453003,4.9224854,1.2453003,10.0775757,0,15  C81.2040405,58.2985229,83.0325928,58.4500122,84.710022,57.9000244z"></path>
                  <path d="M50,20c-16.5685425,0-30,13.4314575-30,30s13.4314575,30,30,30s30-13.4314575,30-30S66.5685425,20,50,20z   M54.5402336,28.3531246l3.2216797,2.9477539l-3.1689453,3.1689472c-0.0058594,0.0048828-0.0117188,0.0053711-0.0175781,0.0004883  l-3.28125-3.0263691L54.5402336,28.3531246z M53.6095695,36.5201187c4.03125,0.378418,7.4121094-2.6445312,8.3652344-3.5800781  l2.4960976,3.324707c-0.5898476,0.7358398-2.8916054,3.1806641-7.7128944,3.7260742  c-2.5507812,0.2905273-4.6884766-0.2529297-6.3486328-1.6088867c-2.1743164-1.7749023-3.0302734-4.5493164-3.3476562-6.0454102  C49.0021477,34.8824234,51.2013664,36.2881851,53.6095695,36.5201187z M68.6437531,56.1294937  c-0.7783203,3.1806641-2.4101562,7.5136719-7.573246,8.4072266c-1.8740234,0.3261719-3.7128906-0.2324219-5.1767578-1.5693359  c-1.9169922-1.7519531-2.9160156-4.5810547-2.6728516-7.5693359c0.0175781-0.2167969,0.1630859-0.3964844,0.3701172-0.4570312  c0.2070312-0.0576172,0.4199219,0.0107422,0.5498047,0.1806641c0.9628906,1.2597656,3.5869141,4.0195312,7.1347656,2.4335938  c3.3613319-1.5019531,5.1171913-4.8486328,4.4736366-8.5268555c-0.3310547-1.890625-1.1591797-3.3017578-2.3320351-3.9726562  c-0.9404297-0.5375977-2.046875-0.5727539-3.2929688-0.1074219c-1.8496094,0.6938477-2.4707031,1.9658203-3.1279297,3.3125  c-0.3847656,0.7880859-0.7822266,1.6030273-1.4375,2.3344727c-1.0488281,1.1679688-1.9580078,2.1816406-5.2529297,2.6171875  c0.5283203,1.0898438,2.0351562,4.7021484,0.9033203,8.4394531c-0.9316406,3.0751953-3.2788086,5.2910156-6.4389648,6.0800781  c-0.7900391,0.1972656-1.5976562,0.2939453-2.4042969,0.2939453c-2.7739258,0-5.5419922-1.1376953-7.609375-3.2109375  c-3.6123047-3.6240234-5.4931641-8.4960938-5.0307617-13.0322266c0.0253906-0.2509766,0.2197266-0.4394531,0.4716797-0.4580078  c0.265625-0.0117188,0.4741211,0.1396484,0.5361328,0.3847656c0.7529297,2.9472656,3.159668,9.8457031,9.2324219,10.2333984  c2.9833984,0.1845703,5.2114258-0.4296875,6.4433594-1.7919922c1.2363281-1.3671875,1.0795898-3.0029297,1.0024414-3.4716797  c-0.3774414-2.2900391-2.4526367-3.4628906-5.9985352-3.3798828c-0.1420898-0.0029297-0.2578125-0.0439453-0.3525391-0.1318359  c-0.4438477-0.4169922-2.6474609-2.6611328-2.4882812-5.9394531c0.0063477-0.1376953,0.0668945-0.2641602,0.1708984-0.3554688  c0.1044922-0.0917969,0.2382812-0.1367188,0.375-0.1254883c0.9179688,0.0673828,5.5786133,0.3369141,7.0546875-1.3105469  c0.3891602-0.434082,0.519043-0.9604492,0.3969727-1.6083984c-0.1635742-0.8681641-0.6484375-1.4755859-1.4414062-1.8066406  c-2.1484375-0.894043-5.9091797,0.3774414-8.3564453,2.03125c-0.1181641,0.0791016-0.2563477,0.1069336-0.3955078,0.0776367  c-0.1357422-0.0292969-0.2509766-0.1108398-0.3242188-0.2294922l-2.4506836-3.9526367  c-0.1347656-0.2163086-0.0854492-0.4990234,0.1157227-0.6577148c1.1704102-0.9165039,7.222168-5.3740234,11.5053711-3.2099609  c4.3920898,2.2182617,5.0976562,5.1713867,4.9160156,7.2578125c-0.2421875,2.777832-2.2548828,5.3369141-4.0917969,6.1865234  c0.7177734,0.421875,2.3261719,1.1494141,3.9951172,0.4541016c0.7236328-0.3027344,1.3066406-1.3911133,1.9814453-2.6518555  c1.4150391-2.6459961,3.3544922-6.2695312,8.4726562-6.4194336c2.3994141-0.0693359,4.3837929,0.8378906,5.8876991,2.6972656  C69.0392609,46.8877945,69.5294952,52.5084,68.6437531,56.1294937z"></path>
                  <path d="M20.3599854,42.5200195c-1.5640259-0.8185425-3.3925781-0.9700317-5.0700073-0.4200439  c-1.6799927,0.5700073-2.5899658,1.9900513-3.5899658,3.4900513c-1.1500244,1.75-2.4199829,3.6799927-5.0800171,4.4099731  c2.6600342,0.7299805,3.9299927,2.6599731,5.1000366,4.4500122c0.9799805,1.4899902,1.9099731,2.9099731,3.5899658,3.4899902  c1.0982666,0.3751831,2.2799072,0.4341431,3.4100342,0.1699829c0.2199707-0.0700073,0.4299927-0.1699829,0.6399536-0.1699829  c0.3429565-0.1159058,0.677124-0.2562866,1-0.4199829C19.1146851,52.5975342,19.1146851,47.4424438,20.3599854,42.5200195z"></path>
                  <path d="M65.25,85.9400024c-1.8099976-0.1099854-3.6799927-0.210022-5.1699829-1.5100098  c-0.4866333-0.4212036-0.9108276-0.9094238-1.2600098-1.4500122c0,0.0091553,0,0.0200195,0,0.0200195  c-0.0310059,0.651123-0.1556396,1.2943726-0.3699951,1.9099731c-0.6400146,1.8900146-2.210022,2.8900146-3.7300415,3.8900146  c-0.3099976,0.2200317-0.6599731,0.4500122-1,0.6900024c0.0822754,0.154541,0.1723633,0.3047485,0.2700195,0.4500122  c0.8099976,1.2000122,2.1400146,1.6400146,3.5400391,2.0999756c1.6099854,0.5400391,3.3899536,1.1300049,4.5499878,3  c0.0700073-2.2000122,1.3200073-3.5899658,2.4500122-4.8599854c1-1.0999756,1.8999634-2.1400146,2-3.5900269v-0.0099487  c-0.003479-0.18396-0.0168457-0.3675537-0.0400391-0.5500488L65.25,85.9400024z"></path>
                  <path d="M57.9000244,84.7199707c0.3809204-1.1074829,0.4398804-2.300293,0.1699829-3.4400024  C58.0233154,81.0933228,57.9833374,80.916687,57.9500122,80.75c-0.1179199-0.3775635-0.2650146-0.7453003-0.4400024-1.0999756  c-4.9224854,1.2453003-10.0775757,1.2453003-15,0C42.335144,80.0047607,42.1879883,80.3724976,42.0700073,80.75  c-0.039978,0.1733398-0.0866699,0.3499756-0.1400146,0.5299683c-0.2698975,1.1397095-0.2109375,2.3325195,0.1699829,3.4400024  c0.5700073,1.6799927,1.9900513,2.5900269,3.4900513,3.5900269c1.75,1.1500244,3.6799927,2.4199829,4.4099731,5.0800171v-0.0100098  c0.7299805-2.6600342,2.6599731-3.9299927,4.4099731-5.0700073C55.9000244,87.3300171,57.3200073,86.4000244,57.9000244,84.7199707z  "></path>
                  <path d="M74.2000122,76.0899658c-0.2315063-1.1253662-0.7716675-2.1641235-1.5599976-3  c-0.1600342-0.1499634-0.3099976-0.2999878-0.4500122-0.4499512c-0.2823486-0.2521362-0.5831909-0.4827881-0.9000244-0.6900024  c-3.6299438,3.5302734-8.0797729,6.1040039-12.9499512,7.4899902c0.072998,1.7633057,0.8555908,3.4222412,2.1699829,4.5999756  c1.3399658,1.1600342,3.0299683,1.2600098,4.8200073,1.3599854c2.0899658,0.1200562,4.3599854,0.25,6.3599854,2.1900024v-0.0199585  C71,84.9000244,72,82.8399658,72.9699707,80.9500122C73.7800293,79.3399658,74.539978,77.8300171,74.2000122,76.0899658z"></path>
                  <path d="M41.4899902,84.9099731c-0.2091064-0.6096802-0.3303223-1.2460938-0.3599854-1.8899536c0-0.0058594,0-0.0131836,0-0.0200195  c-0.3460693,0.5547485-0.7704468,1.0565796-1.2600098,1.4899902C38.3800049,85.789978,36.5100098,85.9000244,34.7000122,86  l-1.2399902,0.0700073c-0.0091553,0.1765137-0.0091553,0.3534546,0,0.5299683c0.0899658,1.4500122,1,2.4899902,2,3.5900269  c1.1300049,1.2600098,2.3800049,2.6599731,2.4499512,4.8599854c1.1600342-1.8800049,2.9400024-2.4699707,4.5500488-3  c1.3999634-0.460022,2.7299805-0.9000244,3.539978-2.0999756c0.0809937-0.1495972,0.1544189-0.3031006,0.2200317-0.460022  c-0.3100586-0.2399902-0.6600342-0.4599609-1-0.6900024C43.7000122,87.8099976,42.1300049,86.7800293,41.4899902,84.9099731z"></path>
                  <path d="M82.6600342,77.539978c0.2999878-1.4500122,0.5899658-2.8200073-0.0500488-4.1199951  c-0.079834-0.144104-0.166626-0.2842407-0.2600098-0.4199829l-1,0.4599609  c-1.2949219,0.7894897-2.7578735,1.2623291-4.2699585,1.3800049c-0.3355103,0.0036621-0.6705322-0.0264893-1-0.0899658  c-0.6300659-0.1235352-1.2394409-0.3356323-1.8099976-0.6300049h-0.0700073v0.0700073  C74.4945068,74.760498,74.706665,75.3699341,74.8300171,76c0.3800049,1.9299927-0.460022,3.6099854-1.2800293,5.2299805  C73.3599854,81.5999756,73.1699829,81.9699707,73,82.3499756c0.1416016,0.104126,0.2884521,0.2009277,0.4400024,0.2900391  c1.3099976,0.6300049,2.6699829,0.3499756,4.1199951,0.0499878C79.2200317,82.3399658,81.0599976,82,83,83  C81.9299927,81,82.3099976,79.2000122,82.6600342,77.539978z"></path>
                  <path d="M92.0200195,57.5900269c-0.460022-1.4000244-0.9000244-2.7300415-2.1000366-3.5400391  c-0.1452637-0.0975952-0.2954712-0.1877441-0.4499512-0.2700195c-0.2400513,0.3100586-0.460022,0.6600342-0.6900024,1  c-0.9900513,1.5200195-2.0200195,3.0900269-3.8900146,3.7300415C84.2802734,58.7189941,83.6438599,58.8401489,83,58.8699951  c0.5547485,0.3460693,1.0565796,0.7704468,1.4899902,1.2600098C85.789978,61.6199951,85.9000244,63.4899902,86,65.2999878  c0,0.4100342,0,0.8300171,0.0499878,1.2299805h0.5700073c1.4500122-0.0899658,2.4899902-1,3.5900269-2l-0.0400391-0.0099487  c1.2700195-1.1300049,2.6700439-2.3800049,4.8500366-2.3800049C93.1400146,60.9799805,92.5499878,59.2000122,92.0200195,57.5900269z  "></path>
                  <path d="M85.3599854,65.3300171C85.2600098,63.5100098,85.1600342,61.8499756,84,60.5100098  c-0.7626343-0.859436-1.7495117-1.489624-2.8499756-1.8200073l-0.5100098-0.1400146  c-0.3948975-0.0883179-0.7961426-0.1451416-1.2000122-0.1699829c-1.3875122,4.8666382-3.9611206,9.3128662-7.4899902,12.9400024  c0.9459839,1.4963989,2.4574585,2.5460815,4.1900024,2.9099731C77.8800049,74.5700073,79.4000244,73.8099976,81,73  c1.8400269-1,3.9000244-2,6.6099854-1.2999878l-0.039978-0.0100098C85.6300049,69.7299805,85.5,67.4199829,85.3599854,65.3300171z"></path>
                  <path d="M13.4199829,66.460022h0.5599976c0.0900269-0.4100342,0.0900269-0.8300171,0.0900269-1.2400513  c0.1099854-1.8099976,0.210022-3.6799927,1.5100098-5.1699829c0.421875-0.4830322,0.9100342-0.9038696,1.4500122-1.25h-0.0100098  c-0.6439209-0.0297852-1.2802734-0.151001-1.8900146-0.3599854c-1.8900146-0.6400146-2.8900146-2.210022-3.8900146-3.7299805  c-0.2199707-0.3099976-0.4500122-0.6600342-0.6900024-1c-0.154541,0.0821533-0.3047485,0.1723022-0.4500122,0.2699585  C8.9000244,54.789978,8.460022,56.1199951,8,57.5200195c-0.539978,1.6099854-1.1300049,3.3899536-3,4.5499878  c2.1599731,0.0700073,3.5599976,1.3200073,4.8300171,2.4599609c1.0999756,1,2.1399536,1.9000244,3.5899658,2V66.460022z"></path>
                  <path d="M7.9500122,42.460022C8.4099731,43.8599854,8.8499756,45.1900024,10.0499878,46  c0.1561279,0.081543,0.3163452,0.1549683,0.4800415,0.2199707c0.2399902-0.3099976,0.4599609-0.6599731,0.6899414-1  c0.9900513-1.5199585,2.0200195-3.0899658,3.8900146-3.7299805C15.7197266,41.2808838,16.3560791,41.159668,17,41.1300049  c-0.5474243-0.3479614-1.0424194-0.7722168-1.4699707-1.2600098c-1.3000488-1.4899902-1.4100342-3.3599854-1.5100098-5.1699829  c-0.0300293-0.4100342-0.0900269-0.8300171-0.0900269-1.2399902h-0.5299683c-1.4500122,0.0899658-2.4900513,1-3.5900269,2  c-1.2600098,1.1300049-2.6599731,2.3800049-4.8599854,2.4499512C6.8300171,39.0700073,7.4199829,40.8499756,7.9500122,42.460022z"></path>
                  <path d="M14.6400146,34.6699829C14.7399902,36.4899902,14.8400269,38.1500244,16,39.4899902  c0.7626953,0.859436,1.7495117,1.489624,2.8499756,1.8200073l0.5100098,0.1400146  c0.3948975,0.0883789,0.7961426,0.1452026,1.2000122,0.1699829c1.3875122-4.8666382,3.9611206-9.3128662,7.4899902-12.9400024  c-0.9459839-1.4963989-2.4574585-2.5460815-4.1900024-2.9099731C22.1099854,25.4299927,20.5999756,26.1900024,19,27  c-1.8400269,1-3.9000244,2-6.6099854,1.2999878l0.039978,0.0100098C14.3699951,30.2700195,14.5,32.5800171,14.6400146,34.6699829z"></path>
                  <path d="M17.3400269,22.460022C17.039978,23.9099731,16.75,25.2800293,17.3900146,26.5800171  c0.079834,0.144104,0.166626,0.2842407,0.2600098,0.4199829l1.1199951-0.5  C20.3900146,25.6900024,22.0599976,24.8400269,24,25.2199707c0.6094971,0.1287842,1.1983032,0.3407593,1.75,0.6300049h0.0700073  v-0.0700073c-0.2945557-0.5704956-0.5066528-1.1798706-0.6300049-1.8099976  c-0.3800049-1.9299927,0.460022-3.6099854,1.2800293-5.2299805C26.6599731,18.3699951,26.8499756,18,27.0200195,17.6199951  c-0.1488037-0.0945435-0.3023071-0.1813354-0.460022-0.2600098c-1.3099976-0.6300049-2.6699829-0.3499756-4.1199951-0.0499878  C20.7800293,17.6599731,18.9400024,18,17,17C18.0700073,19,17.6900024,20.7999878,17.3400269,22.460022z"></path>
                  <path d="M25.2199707,76c0.1356201-0.6213379,0.3577881-1.22052,0.6600342-1.7799683v-0.0700073h-0.0700073  C25.2394409,74.444397,24.6300659,74.6564941,24,74.7800293c-0.3294678,0.0634766-0.6644897,0.0936279-1,0.0899658  c-1.4932861-0.105957-2.9414673-0.5578613-4.2299805-1.3200073L17.6500244,73  c-0.104187,0.1416016-0.2009888,0.2884521-0.2900391,0.4400024c-0.6300049,1.3099976-0.3499756,2.6699829-0.0499878,4.1199951  C17.6599731,79.2199707,18,81.0599976,17,83c2-1.0700073,3.8099976-0.6799927,5.460022-0.3400269  c1.4499512,0.3000488,2.8200073,0.5900269,4.1199951-0.0499878c0.1610718-0.0783691,0.3179932-0.1651611,0.4699707-0.2600098  c-0.1799927-0.3800049-0.3599854-0.75-0.5499878-1.1199951C25.6900024,79.6099854,24.8400269,77.9400024,25.2199707,76z"></path>
                  <path d="M39.4899902,84c1.2935791-1.1733398,2.0641479-2.8152466,2.1400146-4.5599976  c-4.8702393-1.3859863-9.3200073-3.9597168-12.9500122-7.4899902c-1.4963989,0.9459839-2.5460815,2.4574585-2.9099731,4.1900024  C25.4299927,77.8800049,26.1900024,79.4000244,27,81c1,1.8399658,2,3.9000244,1.2999878,6.6099854l0.0100098-0.039978  c1.960022-1.9400024,4.2700195-2.0700073,6.3599854-2.210022C36.4899902,85.2600098,38.1500244,85.1599731,39.4899902,84z"></path>
                  <path d="M23.8599854,74.2000122c1.1478271-0.2237549,2.2088013-0.7681274,3.0599976-1.5700073  c0.1333618-0.1400146,0.2666626-0.2733154,0.4000244-0.4000244c0.270813-0.2935181,0.5182495-0.6077881,0.7399902-0.9400024  c-3.5303345-3.6299438-6.1040039-8.0797729-7.4899902-12.9499512c-1.7633057,0.072998-3.4222412,0.8555908-4.6000366,2.1699829  c-1.1599731,1.3399658-1.2599487,3.0299683-1.3599854,4.8200073c-0.1199951,2.0899658-0.25,4.3599854-2.1900024,6.3599854h0.0100098  C15.0999756,71,17.1599731,72,19,72.9699707C20.6099854,73.7800293,22.1199951,74.539978,23.8599854,74.2000122z"></path>
                </svg>
              </svg>
              <defs>
                <filter id="colors1970559962">
                  <feColorMatrix type="matrix" values="0 0 0 0 0.9921875  0 0 0 0 0.99609375  0 0 0 0 0.99609375  0 0 0 1 0" class="icon-fecolormatrix"></feColorMatrix>
                </filter>
                <filter id="colorsf8579032942">
                  <feColorMatrix type="matrix" values="0 0 0 0 0.99609375  0 0 0 0 0.99609375  0 0 0 0 0.99609375  0 0 0 1 0" class="icon-fecolormatrix"></feColorMatrix>
                </filter>
                <filter id="colorsb2433861306">
                  <feColorMatrix type="matrix" values="0 0 0 0 0  0 0 0 0 0  0 0 0 0 0  0 0 0 1 0" class="icon-fecolormatrix"></feColorMatrix>
                </filter>
              </defs>
            </g>
          </g>
          <rect fill="#feffff" width="95.58331680297852" height="1" fill-opacity="0" x="131.57662200927734" y="14.499977111816406"></rect>
        </g>
        <g transform="translate(0,32.99995422363281)">
          <g data-gra="path-name" fill-rule="" class="tp-name" transform="translate(0,0)">
            <g transform="scale(1)">
              <g>
                <path d="M7.92 0L2.07 0 2.07-20.35 8.08-20.35Q10.78-20.35 12.86-19.15 14.95-17.94 16.1-15.74 17.25-13.53 17.25-10.68L17.25-10.68 17.25-9.66Q17.25-6.76 16.09-4.57 14.94-2.38 12.81-1.19 10.68 0 7.92 0L7.92 0ZM8.08-17.5L5.6-17.5 5.6-2.82 7.91-2.82Q10.69-2.82 12.18-4.56 13.67-6.3 13.7-9.56L13.7-9.56 13.7-10.69Q13.7-14 12.26-15.75 10.82-17.5 8.08-17.5L8.08-17.5ZM32.94 0L29.47 0Q29.25-0.43 29.08-1.41L29.08-1.41Q27.46 0.28 25.11 0.28L25.11 0.28Q22.84 0.28 21.4-1.02 19.96-2.32 19.96-4.23L19.96-4.23Q19.96-6.65 21.75-7.95 23.55-9.24 26.89-9.24L26.89-9.24 28.97-9.24 28.97-10.23Q28.97-11.4 28.32-12.11 27.66-12.82 26.32-12.82L26.32-12.82Q25.16-12.82 24.42-12.24 23.68-11.66 23.68-10.76L23.68-10.76 20.28-10.76Q20.28-12.01 21.1-13.09 21.93-14.17 23.35-14.79 24.77-15.4 26.51-15.4L26.51-15.4Q29.17-15.4 30.75-14.07 32.33-12.73 32.37-10.31L32.37-10.31 32.37-3.49Q32.37-1.45 32.94-0.24L32.94-0.24 32.94 0ZM25.74-2.45L25.74-2.45Q26.75-2.45 27.64-2.93 28.52-3.42 28.97-4.25L28.97-4.25 28.97-7.1 27.14-7.1Q25.25-7.1 24.3-6.44 23.35-5.79 23.35-4.58L23.35-4.58Q23.35-3.61 24-3.03 24.65-2.45 25.74-2.45ZM39.54-21.47L39.54 0 36.14 0 36.14-21.47 39.54-21.47ZM46.85-21.47L46.85 0 43.45 0 43.45-21.47 46.85-21.47ZM63.04 0L59.58 0Q59.36-0.43 59.19-1.41L59.19-1.41Q57.57 0.28 55.22 0.28L55.22 0.28Q52.94 0.28 51.5-1.02 50.06-2.32 50.06-4.23L50.06-4.23Q50.06-6.65 51.86-7.95 53.65-9.24 56.99-9.24L56.99-9.24 59.08-9.24 59.08-10.23Q59.08-11.4 58.42-12.11 57.76-12.82 56.42-12.82L56.42-12.82Q55.26-12.82 54.52-12.24 53.78-11.66 53.78-10.76L53.78-10.76 50.38-10.76Q50.38-12.01 51.21-13.09 52.03-14.17 53.45-14.79 54.87-15.4 56.62-15.4L56.62-15.4Q59.27-15.4 60.85-14.07 62.43-12.73 62.47-10.31L62.47-10.31 62.47-3.49Q62.47-1.45 63.04-0.24L63.04-0.24 63.04 0ZM55.85-2.45L55.85-2.45Q56.85-2.45 57.74-2.93 58.63-3.42 59.08-4.25L59.08-4.25 59.08-7.1 57.24-7.1Q55.36-7.1 54.41-6.44 53.46-5.79 53.46-4.58L53.46-4.58Q53.46-3.61 54.11-3.03 54.76-2.45 55.85-2.45ZM74.51-4.11L74.51-4.11Q74.51-5.02 73.76-5.49 73.01-5.97 71.28-6.33 69.54-6.69 68.38-7.25L68.38-7.25Q65.84-8.48 65.84-10.82L65.84-10.82Q65.84-12.77 67.49-14.09 69.14-15.4 71.68-15.4L71.68-15.4Q74.39-15.4 76.06-14.06 77.73-12.72 77.73-10.58L77.73-10.58 74.34-10.58Q74.34-11.56 73.61-12.21 72.88-12.86 71.68-12.86L71.68-12.86Q70.56-12.86 69.86-12.34 69.15-11.82 69.15-10.96L69.15-10.96Q69.15-10.17 69.81-9.74 70.47-9.31 72.46-8.87 74.46-8.43 75.6-7.82 76.74-7.21 77.29-6.36 77.85-5.51 77.85-4.29L77.85-4.29Q77.85-2.25 76.15-0.99 74.46 0.28 71.72 0.28L71.72 0.28Q69.87 0.28 68.41-0.39 66.96-1.06 66.15-2.24 65.34-3.41 65.34-4.77L65.34-4.77 68.64-4.77Q68.71-3.56 69.54-2.91 70.38-2.26 71.77-2.26L71.77-2.26Q73.11-2.26 73.81-2.77 74.51-3.28 74.51-4.11ZM97.29-20.35L97.29 0 93.76 0 93.76-9.04 84.67-9.04 84.67 0 81.13 0 81.13-20.35 84.67-20.35 84.67-11.88 93.76-11.88 93.76-20.35 97.29-20.35ZM104.75-15.12L104.75 0 101.35 0 101.35-15.12 104.75-15.12ZM101.14-19.05L101.14-19.05Q101.14-19.83 101.64-20.35 102.14-20.87 103.06-20.87 103.98-20.87 104.48-20.35 104.99-19.83 104.99-19.05L104.99-19.05Q104.99-18.28 104.48-17.77 103.98-17.26 103.06-17.26 102.14-17.26 101.64-17.77 101.14-18.28 101.14-19.05ZM108.4-15.12L111.6-15.12 111.69-13.37Q113.37-15.4 116.1-15.4L116.1-15.4Q120.82-15.4 120.9-9.99L120.9-9.99 120.9 0 117.51 0 117.51-9.8Q117.51-11.24 116.89-11.93 116.26-12.62 114.85-12.62L114.85-12.62Q112.8-12.62 111.79-10.76L111.79-10.76 111.79 0 108.4 0 108.4-15.12ZM123.73-7.67L123.73-7.67Q123.73-11.17 125.35-13.28 126.97-15.4 129.7-15.4L129.7-15.4Q132.1-15.4 133.58-13.72L133.58-13.72 133.58-21.47 136.98-21.47 136.98 0 133.9 0 133.73-1.57Q132.21 0.28 129.67 0.28L129.67 0.28Q127.01 0.28 125.37-1.86 123.73-4 123.73-7.67ZM127.12-7.38L127.12-7.38Q127.12-5.07 128.01-3.78 128.9-2.49 130.53-2.49L130.53-2.49Q132.62-2.49 133.58-4.35L133.58-4.35 133.58-10.8Q132.64-12.62 130.56-12.62L130.56-12.62Q128.91-12.62 128.02-11.31 127.12-10.01 127.12-7.38ZM149.76 0L149.68-1.48Q148.19 0.28 145.43 0.28L145.43 0.28Q142.97 0.28 141.71-1.16 140.44-2.6 140.44-5.32L140.44-5.32 140.44-15.12 143.84-15.12 143.84-5.37Q143.84-2.49 146.23-2.49L146.23-2.49Q148.7-2.49 149.57-4.26L149.57-4.26 149.57-15.12 152.97-15.12 152.97 0 149.76 0ZM164.5-7.56L160.29-7.56 160.29 0 156.75 0 156.75-20.35 164.54-20.35Q167.95-20.35 169.95-18.57 171.96-16.8 171.96-13.88L171.96-13.88Q171.96-10.89 169.99-9.22 168.03-7.56 164.5-7.56L164.5-7.56ZM160.29-17.5L160.29-10.4 164.54-10.4Q166.42-10.4 167.42-11.29 168.41-12.17 168.41-13.85L168.41-13.85Q168.41-15.5 167.4-16.48 166.4-17.47 164.64-17.5L164.64-17.5 160.29-17.5ZM182.65-15.21L182.64-12.02Q181.97-12.13 181.25-12.13L181.25-12.13Q178.92-12.13 178.11-10.34L178.11-10.34 178.11 0 174.71 0 174.71-15.12 177.95-15.12 178.04-13.43Q179.27-15.4 181.45-15.4L181.45-15.4Q182.17-15.4 182.65-15.21L182.65-15.21ZM188.39-15.12L188.39 0 185 0 185-15.12 188.39-15.12ZM184.79-19.05L184.79-19.05Q184.79-19.83 185.28-20.35 185.78-20.87 186.7-20.87 187.63-20.87 188.13-20.35 188.63-19.83 188.63-19.05L188.63-19.05Q188.63-18.28 188.13-17.77 187.63-17.26 186.7-17.26 185.78-17.26 185.28-17.77 184.79-18.28 184.79-19.05ZM198.75 0.28L198.75 0.28Q195.52 0.28 193.52-1.75 191.51-3.79 191.51-7.17L191.51-7.17 191.51-7.59Q191.51-9.85 192.38-11.63 193.26-13.42 194.84-14.41 196.42-15.4 198.36-15.4L198.36-15.4Q201.45-15.4 203.13-13.43 204.82-11.46 204.82-7.85L204.82-7.85 204.82-6.48 194.93-6.48Q195.09-4.61 196.19-3.52 197.28-2.43 198.95-2.43L198.95-2.43Q201.28-2.43 202.75-4.32L202.75-4.32 204.58-2.57Q203.67-1.22 202.15-0.47 200.64 0.28 198.75 0.28ZM198.34-12.68L198.34-12.68Q196.95-12.68 196.09-11.7 195.23-10.72 194.99-8.97L194.99-8.97 201.46-8.97 201.46-9.22Q201.35-10.93 200.55-11.8 199.76-12.68 198.34-12.68ZM215.93-4.11L215.93-4.11Q215.93-5.02 215.18-5.49 214.43-5.97 212.7-6.33 210.96-6.69 209.8-7.25L209.8-7.25Q207.26-8.48 207.26-10.82L207.26-10.82Q207.26-12.77 208.91-14.09 210.56-15.4 213.1-15.4L213.1-15.4Q215.81-15.4 217.48-14.06 219.15-12.72 219.15-10.58L219.15-10.58 215.76-10.58Q215.76-11.56 215.03-12.21 214.31-12.86 213.1-12.86L213.1-12.86Q211.99-12.86 211.28-12.34 210.57-11.82 210.57-10.96L210.57-10.96Q210.57-10.17 211.23-9.74 211.89-9.31 213.89-8.87 215.88-8.43 217.02-7.82 218.16-7.21 218.71-6.36 219.27-5.51 219.27-4.29L219.27-4.29Q219.27-2.25 217.58-0.99 215.88 0.28 213.15 0.28L213.15 0.28Q211.29 0.28 209.83-0.39 208.38-1.06 207.57-2.24 206.76-3.41 206.76-4.77L206.76-4.77 210.06-4.77Q210.13-3.56 210.96-2.91 211.8-2.26 213.19-2.26L213.19-2.26Q214.53-2.26 215.23-2.77 215.93-3.28 215.93-4.11ZM223.08-18.8L226.48-18.8 226.48-15.12 229.15-15.12 229.15-12.61 226.48-12.61 226.48-4.16Q226.48-3.3 226.82-2.91 227.16-2.53 228.04-2.53L228.04-2.53Q228.63-2.53 229.23-2.67L229.23-2.67 229.23-0.04Q228.07 0.28 227 0.28L227 0.28Q223.08 0.28 223.08-4.04L223.08-4.04 223.08-12.61 220.59-12.61 220.59-15.12 223.08-15.12 223.08-18.8Z" transform="translate(-2.069999933242798, 21.469999313354492)"></path>
              </g>
              <!---->
              <!---->
              <!---->
              <!---->
              <!---->
              <!---->
              <!---->
            </g>
          </g>
          <g transform="translate(30.524993896484375,27.75)">
            <g data-gra="path-slogan" fill-rule="" class="tp-slogan" fill="#feffff" transform="translate(0,0)">
              <!---->
              <!---->
              <g transform="scale(1, 1)">
                <g transform="scale(1)">
                  <path d="M0.62-3.94C0.62-3.30 0.71-2.72 0.88-2.21C1.05-1.71 1.29-1.28 1.60-0.93C1.91-0.58 2.27-0.32 2.69-0.13C3.11 0.05 3.57 0.14 4.07 0.14C4.57 0.14 5.02 0.04 5.41-0.16C5.80-0.36 6.16-0.64 6.47-1.00L5.90-1.61C5.65-1.33 5.38-1.11 5.09-0.96C4.81-0.81 4.48-0.73 4.09-0.73C3.72-0.73 3.38-0.81 3.08-0.96C2.78-1.11 2.52-1.33 2.32-1.61C2.11-1.89 1.95-2.23 1.83-2.62C1.71-3.02 1.66-3.46 1.66-3.96C1.66-4.45 1.72-4.89 1.84-5.28C1.96-5.67 2.12-6.01 2.34-6.28C2.56-6.56 2.82-6.77 3.12-6.92C3.42-7.07 3.76-7.14 4.14-7.14C4.48-7.14 4.77-7.07 5.02-6.94C5.27-6.81 5.50-6.63 5.71-6.41L6.28-7.04C6.04-7.30 5.75-7.53 5.39-7.72C5.03-7.92 4.61-8.02 4.13-8.02C3.62-8.02 3.16-7.92 2.73-7.73C2.30-7.55 1.93-7.28 1.62-6.92C1.31-6.57 1.06-6.14 0.89-5.64C0.71-5.14 0.62-4.57 0.62-3.94ZM10.49 0.14C10.98 0.14 11.44 0.05 11.85-0.14C12.26-0.34 12.62-0.61 12.92-0.97C13.22-1.32 13.45-1.75 13.61-2.26C13.78-2.77 13.86-3.34 13.86-3.97C13.86-4.60 13.78-5.16 13.61-5.66C13.45-6.16 13.22-6.58 12.92-6.93C12.62-7.28 12.26-7.55 11.85-7.73C11.44-7.92 10.98-8.02 10.49-8.02C9.99-8.02 9.54-7.92 9.13-7.74C8.71-7.56 8.36-7.29 8.06-6.94C7.77-6.59 7.54-6.17 7.37-5.67C7.21-5.17 7.13-4.60 7.13-3.97C7.13-3.34 7.21-2.77 7.37-2.26C7.54-1.75 7.77-1.32 8.06-0.97C8.36-0.61 8.71-0.34 9.13-0.14C9.54 0.05 9.99 0.14 10.49 0.14ZM10.49-0.73C10.14-0.73 9.82-0.81 9.53-0.96C9.25-1.11 9.01-1.33 8.80-1.61C8.60-1.90 8.44-2.24 8.33-2.63C8.22-3.03 8.16-3.48 8.16-3.97C8.16-4.46 8.22-4.90 8.33-5.29C8.44-5.68 8.60-6.02 8.80-6.29C9.01-6.56 9.25-6.77 9.53-6.92C9.82-7.07 10.14-7.14 10.49-7.14C10.84-7.14 11.16-7.07 11.44-6.92C11.73-6.77 11.97-6.56 12.17-6.29C12.38-6.02 12.54-5.68 12.65-5.29C12.76-4.90 12.82-4.46 12.82-3.97C12.82-3.48 12.76-3.03 12.65-2.63C12.54-2.24 12.38-1.90 12.17-1.61C11.97-1.33 11.73-1.11 11.44-0.96C11.16-0.81 10.84-0.73 10.49-0.73ZM15.55-7.87L15.55 0L16.50 0L16.50-4.12C16.50-4.53 16.49-4.95 16.46-5.36C16.43-5.77 16.40-6.18 16.37-6.58L16.42-6.58L17.27-4.96L20.12 0L21.16 0L21.16-7.87L20.21-7.87L20.21-3.80C20.21-3.39 20.22-2.97 20.25-2.54C20.28-2.11 20.30-1.70 20.33-1.30L20.28-1.30L19.43-2.93L16.58-7.87ZM23.32-7.87L23.32 0L24.26 0L24.26-4.12C24.26-4.53 24.25-4.95 24.22-5.36C24.19-5.77 24.16-6.18 24.13-6.58L24.18-6.58L25.03-4.96L27.89 0L28.92 0L28.92-7.87L27.97-7.87L27.97-3.80C27.97-3.39 27.99-2.97 28.01-2.54C28.04-2.11 28.07-1.70 28.09-1.30L28.04-1.30L27.19-2.93L24.35-7.87ZM31.08-7.87L31.08 0L35.74 0L35.74-0.85L32.08-0.85L32.08-3.71L35.06-3.71L35.06-4.56L32.08-4.56L32.08-7.03L35.62-7.03L35.62-7.87ZM36.95-3.94C36.95-3.30 37.03-2.72 37.21-2.21C37.38-1.71 37.62-1.28 37.93-0.93C38.23-0.58 38.60-0.32 39.02-0.13C39.44 0.05 39.90 0.14 40.39 0.14C40.90 0.14 41.34 0.04 41.74-0.16C42.13-0.36 42.48-0.64 42.79-1.00L42.23-1.61C41.97-1.33 41.70-1.11 41.42-0.96C41.13-0.81 40.80-0.73 40.42-0.73C40.04-0.73 39.70-0.81 39.40-0.96C39.10-1.11 38.85-1.33 38.64-1.61C38.43-1.89 38.27-2.23 38.15-2.62C38.04-3.02 37.98-3.46 37.98-3.96C37.98-4.45 38.04-4.89 38.16-5.28C38.28-5.67 38.45-6.01 38.66-6.28C38.88-6.56 39.14-6.77 39.44-6.92C39.75-7.07 40.09-7.14 40.46-7.14C40.80-7.14 41.09-7.07 41.35-6.94C41.60-6.81 41.83-6.63 42.04-6.41L42.60-7.04C42.37-7.30 42.07-7.53 41.71-7.72C41.35-7.92 40.93-8.02 40.45-8.02C39.95-8.02 39.48-7.92 39.05-7.73C38.63-7.55 38.26-7.28 37.94-6.92C37.63-6.57 37.39-6.14 37.21-5.64C37.04-5.14 36.95-4.57 36.95-3.94ZM45.67-7.03L45.67 0L46.68 0L46.68-7.03L49.06-7.03L49.06-7.87L43.30-7.87L43.30-7.03ZM50.47-7.87L50.47 0L51.47 0L51.47-7.87ZM53.63-7.87L53.63 0L54.58 0L54.58-4.12C54.58-4.53 54.56-4.95 54.53-5.36C54.51-5.77 54.48-6.18 54.44-6.58L54.49-6.58L55.34-4.96L58.20 0L59.23 0L59.23-7.87L58.28-7.87L58.28-3.80C58.28-3.39 58.30-2.97 58.33-2.54C58.35-2.11 58.38-1.70 58.40-1.30L58.36-1.30L57.50-2.93L54.66-7.87ZM60.94-3.94C60.94-3.30 61.02-2.72 61.20-2.21C61.38-1.71 61.62-1.28 61.93-0.93C62.24-0.58 62.62-0.32 63.05-0.13C63.48 0.05 63.96 0.14 64.48 0.14C65.00 0.14 65.48 0.06 65.90-0.11C66.32-0.29 66.66-0.50 66.91-0.77L66.91-4.08L64.33-4.08L64.33-3.25L66-3.25L66-1.20C65.84-1.06 65.63-0.94 65.38-0.86C65.13-0.77 64.86-0.73 64.58-0.73C64.16-0.73 63.79-0.81 63.46-0.96C63.14-1.11 62.87-1.33 62.65-1.61C62.43-1.89 62.26-2.23 62.14-2.62C62.03-3.02 61.97-3.46 61.97-3.96C61.97-4.45 62.03-4.89 62.15-5.28C62.28-5.67 62.45-6.01 62.68-6.28C62.90-6.56 63.17-6.77 63.49-6.92C63.81-7.07 64.17-7.14 64.57-7.14C64.97-7.14 65.30-7.07 65.56-6.93C65.82-6.79 66.05-6.62 66.25-6.41L66.82-7.04C66.58-7.28 66.29-7.51 65.92-7.71C65.56-7.91 65.10-8.02 64.56-8.02C64.03-8.02 63.55-7.92 63.11-7.73C62.67-7.55 62.29-7.28 61.96-6.92C61.64-6.57 61.39-6.14 61.21-5.64C61.03-5.14 60.94-4.57 60.94-3.94ZM72.49-3.05L72.49 0L73.50 0L73.50-3.05L75.86-7.87L74.82-7.87L73.81-5.65C73.69-5.36 73.56-5.08 73.43-4.80C73.29-4.52 73.16-4.23 73.02-3.94L72.97-3.94C72.84-4.23 72.71-4.52 72.59-4.80C72.47-5.08 72.34-5.36 72.22-5.65L71.20-7.87L70.13-7.87ZM79.67 0.14C80.16 0.14 80.62 0.05 81.03-0.14C81.44-0.34 81.80-0.61 82.10-0.97C82.40-1.32 82.63-1.75 82.79-2.26C82.96-2.77 83.04-3.34 83.04-3.97C83.04-4.60 82.96-5.16 82.79-5.66C82.63-6.16 82.40-6.58 82.10-6.93C81.80-7.28 81.44-7.55 81.03-7.73C80.62-7.92 80.16-8.02 79.67-8.02C79.17-8.02 78.72-7.92 78.31-7.74C77.89-7.56 77.54-7.29 77.24-6.94C76.95-6.59 76.72-6.17 76.55-5.67C76.39-5.17 76.31-4.60 76.31-3.97C76.31-3.34 76.39-2.77 76.55-2.26C76.72-1.75 76.95-1.32 77.24-0.97C77.54-0.61 77.89-0.34 78.31-0.14C78.72 0.05 79.17 0.14 79.67 0.14ZM79.67-0.73C79.32-0.73 79.00-0.81 78.71-0.96C78.43-1.11 78.19-1.33 77.98-1.61C77.78-1.90 77.62-2.24 77.51-2.63C77.40-3.03 77.34-3.48 77.34-3.97C77.34-4.46 77.40-4.90 77.51-5.29C77.62-5.68 77.78-6.02 77.98-6.29C78.19-6.56 78.43-6.77 78.71-6.92C79.00-7.07 79.32-7.14 79.67-7.14C80.02-7.14 80.34-7.07 80.62-6.92C80.91-6.77 81.15-6.56 81.35-6.29C81.56-6.02 81.72-5.68 81.83-5.29C81.94-4.90 82.00-4.46 82.00-3.97C82.00-3.48 81.94-3.03 81.83-2.63C81.72-2.24 81.56-1.90 81.35-1.61C81.15-1.33 80.91-1.11 80.62-0.96C80.34-0.81 80.02-0.73 79.67-0.73ZM84.70-7.87L84.70-3.25C84.70-2.62 84.77-2.09 84.91-1.66C85.06-1.22 85.25-0.87 85.51-0.61C85.76-0.34 86.06-0.15 86.41-0.03C86.75 0.09 87.13 0.14 87.53 0.14C87.93 0.14 88.30 0.09 88.64-0.03C88.99-0.15 89.29-0.34 89.54-0.61C89.79-0.87 89.99-1.22 90.13-1.66C90.28-2.09 90.35-2.62 90.35-3.25L90.35-7.87L89.39-7.87L89.39-3.23C89.39-2.76 89.34-2.36 89.24-2.04C89.15-1.72 89.02-1.46 88.85-1.27C88.68-1.08 88.48-0.94 88.26-0.86C88.04-0.77 87.79-0.73 87.53-0.73C87.27-0.73 87.03-0.77 86.81-0.86C86.58-0.94 86.39-1.08 86.23-1.27C86.06-1.46 85.93-1.72 85.84-2.04C85.74-2.36 85.69-2.76 85.69-3.23L85.69-7.87ZM96.53-7.03L96.53 0L97.54 0L97.54-7.03L99.91-7.03L99.91-7.87L94.15-7.87L94.15-7.03ZM103.94 0.14C104.44 0.14 104.89 0.05 105.31-0.14C105.72-0.34 106.07-0.61 106.37-0.97C106.67-1.32 106.91-1.75 107.07-2.26C107.23-2.77 107.32-3.34 107.32-3.97C107.32-4.60 107.23-5.16 107.07-5.66C106.91-6.16 106.67-6.58 106.37-6.93C106.07-7.28 105.72-7.55 105.31-7.73C104.89-7.92 104.44-8.02 103.94-8.02C103.45-8.02 102.99-7.92 102.58-7.74C102.17-7.56 101.82-7.29 101.52-6.94C101.22-6.59 100.99-6.17 100.83-5.67C100.67-5.17 100.58-4.60 100.58-3.97C100.58-3.34 100.67-2.77 100.83-2.26C100.99-1.75 101.22-1.32 101.52-0.97C101.82-0.61 102.17-0.34 102.58-0.14C102.99 0.05 103.45 0.14 103.94 0.14ZM103.94-0.73C103.59-0.73 103.27-0.81 102.99-0.96C102.71-1.11 102.46-1.33 102.26-1.61C102.05-1.90 101.90-2.24 101.78-2.63C101.67-3.03 101.62-3.48 101.62-3.97C101.62-4.46 101.67-4.90 101.78-5.29C101.90-5.68 102.05-6.02 102.26-6.29C102.46-6.56 102.71-6.77 102.99-6.92C103.27-7.07 103.59-7.14 103.94-7.14C104.30-7.14 104.61-7.07 104.90-6.92C105.18-6.77 105.43-6.56 105.63-6.29C105.83-6.02 105.99-5.68 106.10-5.29C106.22-4.90 106.27-4.46 106.27-3.97C106.27-3.48 106.22-3.03 106.10-2.63C105.99-2.24 105.83-1.90 105.63-1.61C105.43-1.33 105.18-1.11 104.90-0.96C104.61-0.81 104.30-0.73 103.94-0.73ZM113.06-7.03L113.06 0L114.07 0L114.07-7.03L116.45-7.03L116.45-7.87L110.69-7.87L110.69-7.03ZM117.86-7.87L117.86 0L118.86 0L118.86-3.71L122.52-3.71L122.52 0L123.53 0L123.53-7.87L122.52-7.87L122.52-4.57L118.86-4.57L118.86-7.87ZM125.69-7.87L125.69 0L130.34 0L130.34-0.85L126.68-0.85L126.68-3.71L129.67-3.71L129.67-4.56L126.68-4.56L126.68-7.03L130.22-7.03L130.22-7.87ZM134.44-7.87L134.44 0L136.45 0C137.04 0 137.57-0.09 138.02-0.27C138.48-0.45 138.86-0.71 139.18-1.05C139.49-1.39 139.72-1.81 139.88-2.30C140.04-2.79 140.12-3.35 140.12-3.97C140.12-5.23 139.81-6.19 139.18-6.86C138.54-7.54 137.62-7.87 136.40-7.87ZM136.33-0.82L135.43-0.82L135.43-7.06L136.33-7.06C137.25-7.06 137.94-6.79 138.40-6.26C138.86-5.74 139.09-4.97 139.09-3.97C139.09-2.97 138.86-2.20 138.40-1.64C137.94-1.09 137.25-0.82 136.33-0.82ZM141.82-7.87L141.82 0L142.81 0L142.81-7.87ZM143.89-7.87L146.41 0L147.58 0L150.07-7.87L149.05-7.87L147.79-3.62C147.66-3.15 147.53-2.72 147.42-2.32C147.31-1.92 147.18-1.48 147.04-1.02L146.99-1.02C146.84-1.48 146.71-1.92 146.60-2.32C146.49-2.72 146.36-3.15 146.22-3.62L144.96-7.87ZM151.15-7.87L151.15 0L152.15 0L152.15-7.87ZM154.31-7.87L154.31 0L155.26 0L155.26-4.12C155.26-4.53 155.24-4.95 155.21-5.36C155.19-5.77 155.16-6.18 155.12-6.58L155.17-6.58L156.02-4.96L158.88 0L159.91 0L159.91-7.87L158.96-7.87L158.96-3.80C158.96-3.39 158.98-2.97 159.01-2.54C159.03-2.11 159.06-1.70 159.08-1.30L159.04-1.30L158.18-2.93L155.34-7.87ZM162.07-7.87L162.07 0L166.73 0L166.73-0.85L163.07-0.85L163.07-3.71L166.06-3.71L166.06-4.56L163.07-4.56L163.07-7.03L166.61-7.03L166.61-7.87Z" transform="translate(-0.624, 8.016)"></path>
                </g>
              </g>
            </g>
          </g>
        </g>
      </g>
    </g>
  </g>
  <defs v-gra="od"></defs>
</svg>