<svg xmlns="http://www.w3.org/2000/svg" xmlns:xlink="http://www.w3.org/1999/xlink" version="1.1" width="1584" height="396" viewBox="0 0 1584 396" xml:space="preserve">
<desc>Created with Fabric.js 3.5.0</desc>
<defs>
</defs>
<rect x="0" y="0" width="100%" height="100%" fill="rgba(100,32,72,0.92)"/>
<g transform="matrix(1 0 0 1 372.9405 108.3003)" id="97485">
<g style="">
		<g transform="matrix(1 0 0 1 108.6283 4.7953)" id="220422">
<g style="">
		<g transform="matrix(1.7967 0 0 1.7967 -0.0022 44.208)" id="71664">
<rect style="stroke: none; stroke-width: 1; stroke-dasharray: none; stroke-linecap: butt; stroke-dashoffset: 0; stroke-linejoin: miter; stroke-miterlimit: 4; is-custom-font: none; font-file-url: none; fill: rgb(253,254,254); fill-opacity: 0; fill-rule: evenodd; opacity: 1;" x="-47.79165" y="-0.5" rx="0" ry="0" width="95.5833" height="1"/>
</g>
		<g transform="matrix(1.7967 0 0 1.7967 -0.0022 44.208)" id="696940">
<rect style="stroke: none; stroke-width: 1; stroke-dasharray: none; stroke-linecap: butt; stroke-dashoffset: 0; stroke-linejoin: miter; stroke-miterlimit: 4; is-custom-font: none; font-file-url: none; fill: rgb(253,254,254); fill-opacity: 0; fill-rule: evenodd; opacity: 1;" x="-47.79165" y="-0.5" rx="0" ry="0" width="95.5833" height="1"/>
</g>
		<g transform="matrix(1 0 0 1 0 -5.2297)" id="689027">
<g style="">
		<g transform="matrix(0.7324 0 0 0.7324 -153.3382 29.8184)" id="698516">
<path style="stroke: rgb(237,237,237); stroke-width: 0; stroke-dasharray: none; stroke-linecap: butt; stroke-dashoffset: 0; stroke-linejoin: miter; stroke-miterlimit: 2; is-custom-font: none; font-file-url: none; fill: rgb(237,237,237); fill-rule: nonzero; opacity: 1;" transform=" translate(-302.6355, 8.56)" d="m 303.7235 -17.44 q 2.72 0 4.384 0.864 q 1.664 0.832 1.664 2.24 q 0 0.704 -0.416 1.248 q -0.416 0.512 -1.088 0.512 q -0.512 0 -0.832 -0.128 q -0.32 -0.16 -0.64 -0.384 q -0.288 -0.256 -0.576 -0.416 q -0.32 -0.16 -0.96 -0.288 q -0.608 -0.128 -0.992 -0.128 q -2.4 0 -3.776 1.504 q -1.344 1.472 -1.344 3.872 q 0 2.304 1.376 3.84 q 1.376 1.504 3.52 1.504 q 1.568 0 2.336 -0.384 q 0.192 -0.096 0.512 -0.32 q 0.352 -0.256 0.64 -0.384 q 0.288 -0.128 0.704 -0.128 q 0.8 0 1.248 0.512 q 0.48 0.512 0.48 1.312 q 0 0.768 -0.896 1.44 q -0.896 0.672 -2.368 1.088 q -1.472 0.384 -3.136 0.384 q -2.464 0 -4.352 -1.152 q -1.856 -1.152 -2.88 -3.168 q -1.024 -2.048 -1.024 -4.544 q 0 -2.592 1.056 -4.608 q 1.088 -2.016 3.008 -3.136 q 1.92 -1.152 4.352 -1.152 z" stroke-linecap="round"/>
</g>
		<g transform="matrix(0.7324 0 0 0.7324 -140.2454 29.8184)" id="93112">
<path style="stroke: rgb(237,237,237); stroke-width: 0; stroke-dasharray: none; stroke-linecap: butt; stroke-dashoffset: 0; stroke-linejoin: miter; stroke-miterlimit: 2; is-custom-font: none; font-file-url: none; fill: rgb(237,237,237); fill-rule: nonzero; opacity: 1;" transform=" translate(-320.5115, 8.56)" d="m 329.2155 -8.544 q 0 2.56 -1.152 4.608 q -1.152 2.016 -3.168 3.136 q -1.984 1.12 -4.384 1.12 q -2.432 0 -4.416 -1.12 q -1.984 -1.12 -3.136 -3.136 q -1.152 -2.048 -1.152 -4.608 q 0 -2.56 1.152 -4.576 q 1.152 -2.048 3.136 -3.168 q 1.984 -1.152 4.416 -1.152 q 2.4 0 4.384 1.152 q 2.016 1.12 3.168 3.168 q 1.152 2.016 1.152 4.576 z m -3.84 0 q 0 -1.568 -0.672 -2.784 q -0.64 -1.248 -1.76 -1.92 q -1.088 -0.672 -2.432 -0.672 q -1.344 0 -2.464 0.672 q -1.088 0.672 -1.76 1.92 q -0.64 1.216 -0.64 2.784 q 0 1.568 0.64 2.784 q 0.672 1.216 1.76 1.888 q 1.12 0.672 2.464 0.672 q 1.344 0 2.432 -0.672 q 1.12 -0.672 1.76 -1.888 q 0.672 -1.216 0.672 -2.784 z" stroke-linecap="round"/>
</g>
		<g transform="matrix(0.7324 0 0 0.7324 -126.0825 29.7012)" id="100411">
<path style="stroke: rgb(237,237,237); stroke-width: 0; stroke-dasharray: none; stroke-linecap: butt; stroke-dashoffset: 0; stroke-linejoin: miter; stroke-miterlimit: 2; is-custom-font: none; font-file-url: none; fill: rgb(237,237,237); fill-rule: nonzero; opacity: 1;" transform=" translate(-339.8485, 8.72)" d="m 341.5445 -17.44 q 3.264 0 4.512 1.952 q 1.248 1.92 1.248 5.344 v 8.192 q 0 0.832 -0.544 1.408 q -0.544 0.544 -1.376 0.544 q -0.832 0 -1.376 -0.544 q -0.544 -0.576 -0.544 -1.408 v -8.192 q 0 -1.76 -0.736 -2.752 q -0.736 -1.024 -2.528 -1.024 q -1.856 0 -2.912 1.088 q -1.056 1.056 -1.056 2.688 v 8.192 q 0 0.832 -0.544 1.408 q -0.544 0.544 -1.376 0.544 q -0.832 0 -1.376 -0.544 q -0.544 -0.576 -0.544 -1.408 v -13.216 q 0 -0.832 0.544 -1.376 q 0.544 -0.576 1.376 -0.576 q 0.832 0 1.376 0.576 q 0.544 0.544 0.544 1.376 v 0.544 q 0.864 -1.152 2.24 -1.984 q 1.408 -0.832 3.072 -0.832 z" stroke-linecap="round"/>
</g>
		<g transform="matrix(0.7324 0 0 0.7324 -112.1207 29.7012)" id="916895">
<path style="stroke: rgb(237,237,237); stroke-width: 0; stroke-dasharray: none; stroke-linecap: butt; stroke-dashoffset: 0; stroke-linejoin: miter; stroke-miterlimit: 2; is-custom-font: none; font-file-url: none; fill: rgb(237,237,237); fill-rule: nonzero; opacity: 1;" transform=" translate(-358.911, 8.72)" d="m 360.607 -17.44 q 3.264 0 4.512 1.952 q 1.248 1.92 1.248 5.344 v 8.192 q 0 0.832 -0.544 1.408 Q 365.279 0 364.447 0 q -0.832 0 -1.376 -0.544 q -0.544 -0.576 -0.544 -1.408 v -8.192 q 0 -1.76 -0.736 -2.752 q -0.736 -1.024 -2.528 -1.024 q -1.856 0 -2.912 1.088 q -1.056 1.056 -1.056 2.688 v 8.192 q 0 0.832 -0.544 1.408 Q 354.207 0 353.375 0 q -0.832 0 -1.376 -0.544 q -0.544 -0.576 -0.544 -1.408 v -13.216 q 0 -0.832 0.544 -1.376 q 0.544 -0.576 1.376 -0.576 q 0.832 0 1.376 0.576 q 0.544 0.544 0.544 1.376 v 0.544 q 0.864 -1.152 2.24 -1.984 q 1.408 -0.832 3.072 -0.832 z" stroke-linecap="round"/>
</g>
		<g transform="matrix(0.7324 0 0 0.7324 -98.3464 29.8184)" id="448495">
<path style="stroke: rgb(237,237,237); stroke-width: 0; stroke-dasharray: none; stroke-linecap: butt; stroke-dashoffset: 0; stroke-linejoin: miter; stroke-miterlimit: 2; is-custom-font: none; font-file-url: none; fill: rgb(237,237,237); fill-rule: nonzero; opacity: 1;" transform=" translate(-377.7175, 8.56)" d="m 385.8775 -8.96 q -0.032 0.768 -0.608 1.248 q -0.576 0.48 -1.344 0.48 h -10.56 q 0.384 1.888 1.76 2.976 q 1.376 1.056 3.104 1.056 q 1.312 0 2.048 -0.224 q 0.736 -0.256 1.152 -0.512 q 0.448 -0.288 0.608 -0.384 q 0.576 -0.288 1.088 -0.288 q 0.672 0 1.152 0.48 q 0.48 0.48 0.48 1.12 q 0 0.864 -0.896 1.568 q -0.896 0.736 -2.4 1.248 q -1.504 0.512 -3.04 0.512 q -2.688 0 -4.704 -1.12 q -1.984 -1.12 -3.072 -3.072 q -1.088 -1.984 -1.088 -4.448 q 0 -2.752 1.152 -4.832 q 1.152 -2.08 3.04 -3.168 q 1.888 -1.12 4.032 -1.12 q 2.112 0 3.968 1.152 q 1.888 1.152 3.008 3.104 q 1.12 1.952 1.12 4.224 z m -8.096 -4.96 q -3.712 0 -4.384 3.488 h 8.384 v -0.224 q -0.128 -1.344 -1.312 -2.304 q -1.184 -0.96 -2.688 -0.96 z" stroke-linecap="round"/>
</g>
		<g transform="matrix(0.7324 0 0 0.7324 -85.3603 29.8184)" id="259873">
<path style="stroke: rgb(237,237,237); stroke-width: 0; stroke-dasharray: none; stroke-linecap: butt; stroke-dashoffset: 0; stroke-linejoin: miter; stroke-miterlimit: 2; is-custom-font: none; font-file-url: none; fill: rgb(237,237,237); fill-rule: nonzero; opacity: 1;" transform=" translate(-395.448, 8.56)" d="m 396.536 -17.44 q 2.72 0 4.384 0.864 q 1.664 0.832 1.664 2.24 q 0 0.704 -0.416 1.248 q -0.416 0.512 -1.088 0.512 q -0.512 0 -0.832 -0.128 q -0.32 -0.16 -0.64 -0.384 q -0.288 -0.256 -0.576 -0.416 q -0.32 -0.16 -0.96 -0.288 q -0.608 -0.128 -0.992 -0.128 q -2.4 0 -3.776 1.504 q -1.344 1.472 -1.344 3.872 q 0 2.304 1.376 3.84 q 1.376 1.504 3.52 1.504 q 1.568 0 2.336 -0.384 q 0.192 -0.096 0.512 -0.32 q 0.352 -0.256 0.64 -0.384 q 0.288 -0.128 0.704 -0.128 q 0.8 0 1.248 0.512 q 0.48 0.512 0.48 1.312 q 0 0.768 -0.896 1.44 q -0.896 0.672 -2.368 1.088 q -1.472 0.384 -3.136 0.384 q -2.464 0 -4.352 -1.152 q -1.856 -1.152 -2.88 -3.168 q -1.024 -2.048 -1.024 -4.544 q 0 -2.592 1.056 -4.608 q 1.088 -2.016 3.008 -3.136 q 1.92 -1.152 4.352 -1.152 z" stroke-linecap="round"/>
</g>
		<g transform="matrix(0.7324 0 0 0.7324 -75.0214 28.4707)" id="382073">
<path style="stroke: rgb(237,237,237); stroke-width: 0; stroke-dasharray: none; stroke-linecap: butt; stroke-dashoffset: 0; stroke-linejoin: miter; stroke-miterlimit: 2; is-custom-font: none; font-file-url: none; fill: rgb(237,237,237); fill-rule: nonzero; opacity: 1;" transform=" translate(-409.564, 10.4)" d="m 413.836 -3.616 q 0.448 0 0.8 0.448 q 0.384 0.416 0.384 1.12 q 0 0.864 -0.96 1.472 Q 413.132 0 411.948 0 q -1.984 0 -3.36 -0.832 q -1.344 -0.864 -1.344 -3.616 v -8.832 h -1.472 q -0.768 0 -1.28 -0.512 q -0.512 -0.512 -0.512 -1.28 q 0 -0.736 0.512 -1.216 q 0.512 -0.512 1.28 -0.512 h 1.472 v -2.048 q 0 -0.832 0.544 -1.376 q 0.576 -0.576 1.408 -0.576 q 0.8 0 1.344 0.576 q 0.544 0.544 0.544 1.376 v 2.048 h 2.272 q 0.768 0 1.28 0.512 q 0.512 0.512 0.512 1.28 q 0 0.736 -0.512 1.248 q -0.512 0.48 -1.28 0.48 h -2.272 v 8.672 q 0 0.672 0.352 0.992 q 0.352 0.288 0.96 0.288 q 0.256 0 0.704 -0.128 q 0.384 -0.16 0.736 -0.16 z" stroke-linecap="round"/>
</g>
		<g transform="matrix(0.7324 0 0 0.7324 -67.1298 27.662)" id="852782">
<path style="stroke: rgb(237,237,237); stroke-width: 0; stroke-dasharray: none; stroke-linecap: butt; stroke-dashoffset: 0; stroke-linejoin: miter; stroke-miterlimit: 2; is-custom-font: none; font-file-url: none; fill: rgb(237,237,237); fill-rule: nonzero; opacity: 1;" transform=" translate(-420.3385, 11.504)" d="m 422.2585 -1.952 q 0 0.832 -0.544 1.408 q -0.544 0.544 -1.376 0.544 q -0.832 0 -1.376 -0.544 q -0.544 -0.576 -0.544 -1.408 v -13.216 q 0 -0.832 0.544 -1.376 q 0.544 -0.576 1.376 -0.576 q 0.832 0 1.376 0.576 q 0.544 0.544 0.544 1.376 z m -1.952 -17.248 q -1.088 0 -1.536 -0.352 q -0.448 -0.352 -0.448 -1.248 v -0.608 q 0 -0.896 0.48 -1.248 q 0.48 -0.352 1.536 -0.352 q 1.12 0 1.568 0.352 q 0.448 0.352 0.448 1.248 v 0.608 q 0 0.928 -0.48 1.28 q -0.448 0.32 -1.568 0.32 z" stroke-linecap="round"/>
</g>
		<g transform="matrix(0.7324 0 0 0.7324 -57.3722 29.7012)" id="856561">
<path style="stroke: rgb(237,237,237); stroke-width: 0; stroke-dasharray: none; stroke-linecap: butt; stroke-dashoffset: 0; stroke-linejoin: miter; stroke-miterlimit: 2; is-custom-font: none; font-file-url: none; fill: rgb(237,237,237); fill-rule: nonzero; opacity: 1;" transform=" translate(-433.661, 8.72)" d="m 435.357 -17.44 q 3.264 0 4.512 1.952 q 1.248 1.92 1.248 5.344 v 8.192 q 0 0.832 -0.544 1.408 Q 440.029 0 439.197 0 q -0.832 0 -1.376 -0.544 q -0.544 -0.576 -0.544 -1.408 v -8.192 q 0 -1.76 -0.736 -2.752 q -0.736 -1.024 -2.528 -1.024 q -1.856 0 -2.912 1.088 q -1.056 1.056 -1.056 2.688 v 8.192 q 0 0.832 -0.544 1.408 Q 428.957 0 428.125 0 q -0.832 0 -1.376 -0.544 q -0.544 -0.576 -0.544 -1.408 v -13.216 q 0 -0.832 0.544 -1.376 q 0.544 -0.576 1.376 -0.576 q 0.832 0 1.376 0.576 q 0.544 0.544 0.544 1.376 v 0.544 q 0.864 -1.152 2.24 -1.984 q 1.408 -0.832 3.072 -0.832 z" stroke-linecap="round"/>
</g>
		<g transform="matrix(0.7324 0 0 0.7324 -43.3284 32.0449)" id="369231">
<path style="stroke: rgb(237,237,237); stroke-width: 0; stroke-dasharray: none; stroke-linecap: butt; stroke-dashoffset: 0; stroke-linejoin: miter; stroke-miterlimit: 2; is-custom-font: none; font-file-url: none; fill: rgb(237,237,237); fill-rule: nonzero; opacity: 1;" transform=" translate(-452.8355, 5.52)" d="m 459.4435 -17.44 q 0.832 0 1.376 0.544 q 0.544 0.544 0.544 1.408 v 14.24 q 0 3.904 -2.432 5.76 q -2.4 1.888 -6.112 1.888 q -0.96 0 -2.656 -0.32 q -1.664 -0.32 -2.368 -0.64 q -1.568 -0.672 -1.568 -1.856 q 0 -0.224 0.096 -0.512 q 0.192 -0.704 0.64 -1.088 q 0.48 -0.352 1.024 -0.352 q 0.32 0 0.608 0.096 q 0.128 0.032 1.568 0.576 q 1.472 0.576 2.656 0.576 q 2.368 0 3.52 -0.96 q 1.184 -0.928 1.184 -2.656 v -1.536 q -0.704 0.992 -2.144 1.792 q -1.408 0.8 -3.04 0.8 q -2.24 0 -4.096 -1.12 q -1.824 -1.152 -2.88 -3.168 q -1.056 -2.016 -1.056 -4.576 q 0 -2.56 1.024 -4.576 q 1.056 -2.048 2.848 -3.168 q 1.824 -1.152 4.032 -1.152 q 1.632 0 3.04 0.672 q 1.408 0.672 2.272 1.632 v -0.352 q 0 -0.832 0.544 -1.376 q 0.544 -0.576 1.376 -0.576 z m -6.624 14.24 q 2.144 0 3.488 -1.504 q 1.376 -1.536 1.376 -3.84 q 0 -2.304 -1.376 -3.84 q -1.344 -1.536 -3.488 -1.536 q -2.144 0 -3.488 1.536 q -1.344 1.536 -1.344 3.84 q 0 2.304 1.344 3.84 q 1.344 1.504 3.488 1.504 z" stroke-linecap="round"/>
</g>
		<g transform="matrix(0.7324 0 0 0.7324 -22.1383 32.162)" id="887372">
<path style="stroke: rgb(237,237,237); stroke-width: 0; stroke-dasharray: none; stroke-linecap: butt; stroke-dashoffset: 0; stroke-linejoin: miter; stroke-miterlimit: 2; is-custom-font: none; font-file-url: none; fill: rgb(237,237,237); fill-rule: nonzero; opacity: 1;" transform=" translate(-481.767, 5.36)" d="m 487.159 -17.12 q 0.832 0 1.376 0.576 q 0.544 0.544 0.544 1.376 v 13.6 q 0 4.16 -2.24 6.048 q -2.24 1.92 -5.984 1.92 q -1.088 0 -2.24 -0.192 q -1.12 -0.16 -1.824 -0.448 q -1.568 -0.672 -1.568 -1.856 q 0 -0.224 0.096 -0.512 q 0.192 -0.704 0.64 -1.088 q 0.48 -0.352 1.024 -0.352 q 0.32 0 0.608 0.096 q 0.224 0.096 0.768 0.32 q 0.576 0.224 1.184 0.352 q 0.64 0.16 1.312 0.16 q 2.272 0 3.328 -0.992 q 1.088 -0.96 1.088 -3.328 v -0.32 q -1.664 2.08 -5.184 2.08 q -1.664 0 -2.944 -0.768 q -1.28 -0.8 -1.984 -2.176 q -0.704 -1.408 -0.704 -3.2 v -9.344 q 0 -0.832 0.544 -1.376 q 0.544 -0.576 1.376 -0.576 q 0.832 0 1.376 0.576 q 0.544 0.544 0.544 1.376 v 8.192 q 0 2.016 0.864 2.912 q 0.896 0.864 2.592 0.864 q 1.664 0 2.56 -0.96 q 0.928 -0.992 0.928 -2.816 v -8.192 q 0 -0.832 0.544 -1.376 q 0.544 -0.576 1.376 -0.576 z" stroke-linecap="round"/>
</g>
		<g transform="matrix(0.7324 0 0 0.7324 -8.1806 29.8184)" id="579796">
<path style="stroke: rgb(237,237,237); stroke-width: 0; stroke-dasharray: none; stroke-linecap: butt; stroke-dashoffset: 0; stroke-linejoin: miter; stroke-miterlimit: 2; is-custom-font: none; font-file-url: none; fill: rgb(237,237,237); fill-rule: nonzero; opacity: 1;" transform=" translate(-500.824, 8.56)" d="m 509.528 -8.544 q 0 2.56 -1.152 4.608 q -1.152 2.016 -3.168 3.136 q -1.984 1.12 -4.384 1.12 q -2.432 0 -4.416 -1.12 q -1.984 -1.12 -3.136 -3.136 q -1.152 -2.048 -1.152 -4.608 q 0 -2.56 1.152 -4.576 q 1.152 -2.048 3.136 -3.168 q 1.984 -1.152 4.416 -1.152 q 2.4 0 4.384 1.152 q 2.016 1.12 3.168 3.168 q 1.152 2.016 1.152 4.576 z m -3.84 0 q 0 -1.568 -0.672 -2.784 q -0.64 -1.248 -1.76 -1.92 q -1.088 -0.672 -2.432 -0.672 q -1.344 0 -2.464 0.672 q -1.088 0.672 -1.76 1.92 q -0.64 1.216 -0.64 2.784 q 0 1.568 0.64 2.784 q 0.672 1.216 1.76 1.888 q 1.12 0.672 2.464 0.672 q 1.344 0 2.432 -0.672 q 1.12 -0.672 1.76 -1.888 q 0.672 -1.216 0.672 -2.784 z" stroke-linecap="round"/>
</g>
		<g transform="matrix(0.7324 0 0 0.7324 5.8768 29.9355)" id="293889">
<path style="stroke: rgb(237,237,237); stroke-width: 0; stroke-dasharray: none; stroke-linecap: butt; stroke-dashoffset: 0; stroke-linejoin: miter; stroke-miterlimit: 2; is-custom-font: none; font-file-url: none; fill: rgb(237,237,237); fill-rule: nonzero; opacity: 1;" transform=" translate(-520.017, 8.4)" d="m 525.409 -17.12 q 0.832 0 1.376 0.576 q 0.544 0.544 0.544 1.376 v 8.128 q 0 3.456 -1.92 5.408 q -1.888 1.952 -5.408 1.952 q -3.52 0 -5.408 -1.952 q -1.888 -1.952 -1.888 -5.408 v -8.128 q 0 -0.832 0.544 -1.376 q 0.544 -0.576 1.376 -0.576 q 0.832 0 1.376 0.576 q 0.544 0.544 0.544 1.376 v 8.128 q 0 1.952 0.864 2.912 q 0.864 0.928 2.592 0.928 q 1.76 0 2.624 -0.928 q 0.864 -0.96 0.864 -2.912 v -8.128 q 0 -0.832 0.544 -1.376 q 0.544 -0.576 1.376 -0.576 z" stroke-linecap="round"/>
</g>
		<g transform="matrix(0.7324 0 0 0.7324 23.764 28.4707)" id="270973">
<path style="stroke: rgb(237,237,237); stroke-width: 0; stroke-dasharray: none; stroke-linecap: butt; stroke-dashoffset: 0; stroke-linejoin: miter; stroke-miterlimit: 2; is-custom-font: none; font-file-url: none; fill: rgb(237,237,237); fill-rule: nonzero; opacity: 1;" transform=" translate(-544.439, 10.4)" d="m 548.711 -3.616 q 0.448 0 0.8 0.448 q 0.384 0.416 0.384 1.12 q 0 0.864 -0.96 1.472 Q 548.007 0 546.823 0 q -1.984 0 -3.36 -0.832 q -1.344 -0.864 -1.344 -3.616 v -8.832 h -1.472 q -0.768 0 -1.28 -0.512 q -0.512 -0.512 -0.512 -1.28 q 0 -0.736 0.512 -1.216 q 0.512 -0.512 1.28 -0.512 h 1.472 v -2.048 q 0 -0.832 0.544 -1.376 q 0.576 -0.576 1.408 -0.576 q 0.8 0 1.344 0.576 q 0.544 0.544 0.544 1.376 v 2.048 h 2.272 q 0.768 0 1.28 0.512 q 0.512 0.512 0.512 1.28 q 0 0.736 -0.512 1.248 q -0.512 0.48 -1.28 0.48 h -2.272 v 8.672 q 0 0.672 0.352 0.992 q 0.352 0.288 0.96 0.288 q 0.256 0 0.704 -0.128 q 0.384 -0.16 0.736 -0.16 z" stroke-linecap="round"/>
</g>
		<g transform="matrix(0.7324 0 0 0.7324 35.9478 29.8184)" id="366297">
<path style="stroke: rgb(237,237,237); stroke-width: 0; stroke-dasharray: none; stroke-linecap: butt; stroke-dashoffset: 0; stroke-linejoin: miter; stroke-miterlimit: 2; is-custom-font: none; font-file-url: none; fill: rgb(237,237,237); fill-rule: nonzero; opacity: 1;" transform=" translate(-561.074, 8.56)" d="m 569.778 -8.544 q 0 2.56 -1.152 4.608 q -1.152 2.016 -3.168 3.136 q -1.984 1.12 -4.384 1.12 q -2.432 0 -4.416 -1.12 q -1.984 -1.12 -3.136 -3.136 q -1.152 -2.048 -1.152 -4.608 q 0 -2.56 1.152 -4.576 q 1.152 -2.048 3.136 -3.168 q 1.984 -1.152 4.416 -1.152 q 2.4 0 4.384 1.152 q 2.016 1.12 3.168 3.168 q 1.152 2.016 1.152 4.576 z m -3.84 0 q 0 -1.568 -0.672 -2.784 q -0.64 -1.248 -1.76 -1.92 q -1.088 -0.672 -2.432 -0.672 q -1.344 0 -2.464 0.672 q -1.088 0.672 -1.76 1.92 q -0.64 1.216 -0.64 2.784 q 0 1.568 0.64 2.784 q 0.672 1.216 1.76 1.888 q 1.12 0.672 2.464 0.672 q 1.344 0 2.432 -0.672 q 1.12 -0.672 1.76 -1.888 q 0.672 -1.216 0.672 -2.784 z" stroke-linecap="round"/>
</g>
		<g transform="matrix(0.7324 0 0 0.7324 54.1138 28.4707)" id="355555">
<path style="stroke: rgb(237,237,237); stroke-width: 0; stroke-dasharray: none; stroke-linecap: butt; stroke-dashoffset: 0; stroke-linejoin: miter; stroke-miterlimit: 2; is-custom-font: none; font-file-url: none; fill: rgb(237,237,237); fill-rule: nonzero; opacity: 1;" transform=" translate(-585.8765, 10.4)" d="m 590.1485 -3.616 q 0.448 0 0.8 0.448 q 0.384 0.416 0.384 1.12 q 0 0.864 -0.96 1.472 q -0.928 0.576 -2.112 0.576 q -1.984 0 -3.36 -0.832 q -1.344 -0.864 -1.344 -3.616 v -8.832 h -1.472 q -0.768 0 -1.28 -0.512 q -0.512 -0.512 -0.512 -1.28 q 0 -0.736 0.512 -1.216 q 0.512 -0.512 1.28 -0.512 h 1.472 v -2.048 q 0 -0.832 0.544 -1.376 q 0.576 -0.576 1.408 -0.576 q 0.8 0 1.344 0.576 q 0.544 0.544 0.544 1.376 v 2.048 h 2.272 q 0.768 0 1.28 0.512 q 0.512 0.512 0.512 1.28 q 0 0.736 -0.512 1.248 q -0.512 0.48 -1.28 0.48 h -2.272 v 8.672 q 0 0.672 0.352 0.992 q 0.352 0.288 0.96 0.288 q 0.256 0 0.704 -0.128 q 0.384 -0.16 0.736 -0.16 z" stroke-linecap="round"/>
</g>
		<g transform="matrix(0.7324 0 0 0.7324 66.1068 27.4159)" id="70385">
<path style="stroke: rgb(237,237,237); stroke-width: 0; stroke-dasharray: none; stroke-linecap: butt; stroke-dashoffset: 0; stroke-linejoin: miter; stroke-miterlimit: 2; is-custom-font: none; font-file-url: none; fill: rgb(237,237,237); fill-rule: nonzero; opacity: 1;" transform=" translate(-602.251, 11.84)" d="m 603.947 -17.44 q 3.168 0 4.384 1.952 q 1.216 1.92 1.216 5.344 v 8.192 q 0 0.832 -0.544 1.408 Q 608.459 0 607.627 0 q -0.832 0 -1.376 -0.544 q -0.544 -0.576 -0.544 -1.408 v -8.192 q 0 -1.76 -0.704 -2.752 q -0.672 -1.024 -2.4 -1.024 q -1.792 0 -2.816 1.088 q -0.992 1.056 -0.992 2.688 v 8.192 q 0 0.832 -0.544 1.408 Q 597.707 0 596.875 0 q -0.832 0 -1.376 -0.544 q -0.544 -0.576 -0.544 -1.408 v -19.776 q 0 -0.832 0.544 -1.376 q 0.544 -0.576 1.376 -0.576 q 0.832 0 1.376 0.576 q 0.544 0.544 0.544 1.376 v 7.072 q 0.864 -1.152 2.176 -1.952 q 1.344 -0.832 2.976 -0.832 z" stroke-linecap="round"/>
</g>
		<g transform="matrix(0.7324 0 0 0.7324 79.7694 29.8184)" id="577609">
<path style="stroke: rgb(237,237,237); stroke-width: 0; stroke-dasharray: none; stroke-linecap: butt; stroke-dashoffset: 0; stroke-linejoin: miter; stroke-miterlimit: 2; is-custom-font: none; font-file-url: none; fill: rgb(237,237,237); fill-rule: nonzero; opacity: 1;" transform=" translate(-620.905, 8.56)" d="m 629.065 -8.96 q -0.032 0.768 -0.608 1.248 q -0.576 0.48 -1.344 0.48 h -10.56 q 0.384 1.888 1.76 2.976 q 1.376 1.056 3.104 1.056 q 1.312 0 2.048 -0.224 q 0.736 -0.256 1.152 -0.512 q 0.448 -0.288 0.608 -0.384 q 0.576 -0.288 1.088 -0.288 q 0.672 0 1.152 0.48 q 0.48 0.48 0.48 1.12 q 0 0.864 -0.896 1.568 q -0.896 0.736 -2.4 1.248 q -1.504 0.512 -3.04 0.512 q -2.688 0 -4.704 -1.12 q -1.984 -1.12 -3.072 -3.072 q -1.088 -1.984 -1.088 -4.448 q 0 -2.752 1.152 -4.832 q 1.152 -2.08 3.04 -3.168 q 1.888 -1.12 4.032 -1.12 q 2.112 0 3.968 1.152 q 1.888 1.152 3.008 3.104 q 1.12 1.952 1.12 4.224 z m -8.096 -4.96 q -3.712 0 -4.384 3.488 h 8.384 v -0.224 q -0.128 -1.344 -1.312 -2.304 q -1.184 -0.96 -2.688 -0.96 z" stroke-linecap="round"/>
</g>
		<g transform="matrix(0.7324 0 0 0.7324 100.0633 27.5331)" id="207243">
<path style="stroke: rgb(237,237,237); stroke-width: 0; stroke-dasharray: none; stroke-linecap: butt; stroke-dashoffset: 0; stroke-linejoin: miter; stroke-miterlimit: 2; is-custom-font: none; font-file-url: none; fill: rgb(237,237,237); fill-rule: nonzero; opacity: 1;" transform=" translate(-648.613, 11.68)" d="m 655.061 -23.68 q 0.832 0 1.376 0.544 q 0.544 0.544 0.544 1.408 v 19.776 q 0 0.832 -0.544 1.408 Q 655.893 0 655.061 0 q -0.832 0 -1.376 -0.544 q -0.512 -0.544 -0.544 -1.376 q -0.8 0.928 -2.176 1.6 q -1.344 0.64 -2.848 0.64 q -2.208 0 -4 -1.12 q -1.792 -1.152 -2.848 -3.168 q -1.024 -2.016 -1.024 -4.576 q 0 -2.56 1.024 -4.576 q 1.024 -2.048 2.784 -3.168 q 1.792 -1.152 3.936 -1.152 q 1.536 0 2.88 0.576 q 1.344 0.544 2.272 1.408 v -6.272 q 0 -0.832 0.544 -1.376 q 0.544 -0.576 1.376 -0.576 z m -6.464 20.48 q 2.08 0 3.392 -1.504 q 1.312 -1.536 1.312 -3.84 q 0 -2.304 -1.312 -3.84 q -1.312 -1.536 -3.392 -1.536 q -2.048 0 -3.36 1.536 q -1.312 1.536 -1.312 3.84 q 0 2.304 1.28 3.84 q 1.312 1.504 3.392 1.504 z" stroke-linecap="round"/>
</g>
		<g transform="matrix(0.7324 0 0 0.7324 110.4825 27.662)" id="927049">
<path style="stroke: rgb(237,237,237); stroke-width: 0; stroke-dasharray: none; stroke-linecap: butt; stroke-dashoffset: 0; stroke-linejoin: miter; stroke-miterlimit: 2; is-custom-font: none; font-file-url: none; fill: rgb(237,237,237); fill-rule: nonzero; opacity: 1;" transform=" translate(-662.8385, 11.504)" d="m 664.7585 -1.952 q 0 0.832 -0.544 1.408 q -0.544 0.544 -1.376 0.544 q -0.832 0 -1.376 -0.544 q -0.544 -0.576 -0.544 -1.408 v -13.216 q 0 -0.832 0.544 -1.376 q 0.544 -0.576 1.376 -0.576 q 0.832 0 1.376 0.576 q 0.544 0.544 0.544 1.376 z m -1.952 -17.248 q -1.088 0 -1.536 -0.352 q -0.448 -0.352 -0.448 -1.248 v -0.608 q 0 -0.896 0.48 -1.248 q 0.48 -0.352 1.536 -0.352 q 1.12 0 1.568 0.352 q 0.448 0.352 0.448 1.248 v 0.608 q 0 0.928 -0.48 1.28 q -0.448 0.32 -1.568 0.32 z" stroke-linecap="round"/>
</g>
		<g transform="matrix(0.7324 0 0 0.7324 119.8416 29.8301)" id="730736">
<path style="stroke: rgb(237,237,237); stroke-width: 0; stroke-dasharray: none; stroke-linecap: butt; stroke-dashoffset: 0; stroke-linejoin: miter; stroke-miterlimit: 2; is-custom-font: none; font-file-url: none; fill: rgb(237,237,237); fill-rule: nonzero; opacity: 1;" transform=" translate(-675.617, 8.544)" d="m 681.857 -17.088 q 0.768 0 1.28 0.512 q 0.512 0.48 0.512 1.216 q 0 0.384 -0.256 0.96 l -5.984 13.184 q -0.224 0.544 -0.672 0.864 q -0.416 0.32 -0.96 0.352 l -0.288 0.032 q -0.544 0 -1.024 -0.32 q -0.448 -0.352 -0.704 -0.928 L 667.809 -14.4 q -0.224 -0.512 -0.224 -1.024 q 0 -0.64 0.544 -1.152 q 0.544 -0.544 1.344 -0.544 q 0.608 0 1.12 0.32 q 0.512 0.32 0.768 0.896 l 4.416 10.112 l 4.384 -10.08 q 0.256 -0.608 0.704 -0.928 q 0.448 -0.32 0.992 -0.288 z" stroke-linecap="round"/>
</g>
		<g transform="matrix(0.7324 0 0 0.7324 129.205 27.662)" id="967506">
<path style="stroke: rgb(237,237,237); stroke-width: 0; stroke-dasharray: none; stroke-linecap: butt; stroke-dashoffset: 0; stroke-linejoin: miter; stroke-miterlimit: 2; is-custom-font: none; font-file-url: none; fill: rgb(237,237,237); fill-rule: nonzero; opacity: 1;" transform=" translate(-688.401, 11.504)" d="m 690.321 -1.952 q 0 0.832 -0.544 1.408 Q 689.233 0 688.401 0 q -0.832 0 -1.376 -0.544 q -0.544 -0.576 -0.544 -1.408 v -13.216 q 0 -0.832 0.544 -1.376 q 0.544 -0.576 1.376 -0.576 q 0.832 0 1.376 0.576 q 0.544 0.544 0.544 1.376 z M 688.369 -19.2 q -1.088 0 -1.536 -0.352 q -0.448 -0.352 -0.448 -1.248 v -0.608 q 0 -0.896 0.48 -1.248 q 0.48 -0.352 1.536 -0.352 q 1.12 0 1.568 0.352 q 0.448 0.352 0.448 1.248 v 0.608 q 0 0.928 -0.48 1.28 q -0.448 0.32 -1.568 0.32 z" stroke-linecap="round"/>
</g>
		<g transform="matrix(0.7324 0 0 0.7324 138.9627 29.7012)" id="481503">
<path style="stroke: rgb(237,237,237); stroke-width: 0; stroke-dasharray: none; stroke-linecap: butt; stroke-dashoffset: 0; stroke-linejoin: miter; stroke-miterlimit: 2; is-custom-font: none; font-file-url: none; fill: rgb(237,237,237); fill-rule: nonzero; opacity: 1;" transform=" translate(-701.7235, 8.72)" d="m 703.4195 -17.44 q 3.264 0 4.512 1.952 q 1.248 1.92 1.248 5.344 v 8.192 q 0 0.832 -0.544 1.408 q -0.544 0.544 -1.376 0.544 q -0.832 0 -1.376 -0.544 q -0.544 -0.576 -0.544 -1.408 v -8.192 q 0 -1.76 -0.736 -2.752 q -0.736 -1.024 -2.528 -1.024 q -1.856 0 -2.912 1.088 q -1.056 1.056 -1.056 2.688 v 8.192 q 0 0.832 -0.544 1.408 q -0.544 0.544 -1.376 0.544 q -0.832 0 -1.376 -0.544 q -0.544 -0.576 -0.544 -1.408 v -13.216 q 0 -0.832 0.544 -1.376 q 0.544 -0.576 1.376 -0.576 q 0.832 0 1.376 0.576 q 0.544 0.544 0.544 1.376 v 0.544 q 0.864 -1.152 2.24 -1.984 q 1.408 -0.832 3.072 -0.832 z" stroke-linecap="round"/>
</g>
		<g transform="matrix(0.7324 0 0 0.7324 152.7369 29.8184)" id="514560">
<path style="stroke: rgb(237,237,237); stroke-width: 0; stroke-dasharray: none; stroke-linecap: butt; stroke-dashoffset: 0; stroke-linejoin: miter; stroke-miterlimit: 2; is-custom-font: none; font-file-url: none; fill: rgb(237,237,237); fill-rule: nonzero; opacity: 1;" transform=" translate(-720.53, 8.56)" d="m 728.69 -8.96 q -0.032 0.768 -0.608 1.248 q -0.576 0.48 -1.344 0.48 h -10.56 q 0.384 1.888 1.76 2.976 q 1.376 1.056 3.104 1.056 q 1.312 0 2.048 -0.224 q 0.736 -0.256 1.152 -0.512 q 0.448 -0.288 0.608 -0.384 q 0.576 -0.288 1.088 -0.288 q 0.672 0 1.152 0.48 q 0.48 0.48 0.48 1.12 q 0 0.864 -0.896 1.568 q -0.896 0.736 -2.4 1.248 q -1.504 0.512 -3.04 0.512 q -2.688 0 -4.704 -1.12 q -1.984 -1.12 -3.072 -3.072 q -1.088 -1.984 -1.088 -4.448 q 0 -2.752 1.152 -4.832 q 1.152 -2.08 3.04 -3.168 q 1.888 -1.12 4.032 -1.12 q 2.112 0 3.968 1.152 q 1.888 1.152 3.008 3.104 q 1.12 1.952 1.12 4.224 z m -8.096 -4.96 q -3.712 0 -4.384 3.488 h 8.384 v -0.224 q -0.128 -1.344 -1.312 -2.304 q -1.184 -0.96 -2.688 -0.96 z" stroke-linecap="round"/>
</g>
		<g transform="matrix(0.7324 0 0 0.7324 -238.9126 -19.7919)" id="911721">
<path style="stroke: rgb(237,237,237); stroke-width: 0; stroke-dasharray: none; stroke-linecap: butt; stroke-dashoffset: 0; stroke-linejoin: miter; stroke-miterlimit: 2; is-custom-font: none; font-file-url: none; fill: rgb(237,237,237); fill-rule: nonzero; opacity: 1;" transform=" translate(-101.0474, -97.0227)" d="M 122.32637 97.02237 c -0.01294 18.2218 -15.61035 24.97815 -23.8866 24.97815 H 86.00716 v -0.04602 h -6.23865 V 72.04483 h 18.67126 C 106.71602 72.04483 122.31343 78.80118 122.32637 97.02237 z M 109.12691 97.0231 c -0.01001 -8.35425 -5.4314 -13.91675 -13.8418 -13.91675 H 92.2458 v 27.83337 h 3.03931 C 103.69551 110.93973 109.1169 105.37723 109.12691 97.0231 z" stroke-linecap="round"/>
</g>
		<g transform="matrix(0.7324 0 0 0.7324 -201.9839 -13.8114)" id="401989">
<path style="stroke: rgb(237,237,237); stroke-width: 0; stroke-dasharray: none; stroke-linecap: butt; stroke-dashoffset: 0; stroke-linejoin: miter; stroke-miterlimit: 2; is-custom-font: none; font-file-url: none; fill: rgb(237,237,237); fill-rule: nonzero; opacity: 1;" transform=" translate(-99.2163, -105.141)" d="M 106.69954 88.03019 h 11.78455 v 33.96533 h -11.78455 v -2.93787 c -2.82764 2.60876 -6.46326 4.17859 -10.42932 4.17859 c -9.01453 0 -16.32178 -8.10144 -16.32178 -18.09521 s 7.30725 -18.09521 16.32178 -18.09521 c 3.96606 0 7.60168 1.57056 10.42932 4.17786 V 88.03019 z M 106.69954 105.14103 c 0 -4.3009 -3.05457 -7.78821 -7.17908 -7.78821 s -7.46777 3.4873 -7.46777 7.78821 c 0 4.30164 3.34326 7.78894 7.46777 7.78894 S 106.69954 109.44193 106.69954 105.14103 z" stroke-linecap="round"/>
</g>
		<g transform="matrix(0.7324 0 0 0.7324 -173.9376 -21.0185)" id="499583">
<path style="stroke: rgb(237,237,237); stroke-width: 0; stroke-dasharray: none; stroke-linecap: butt; stroke-dashoffset: 0; stroke-linejoin: miter; stroke-miterlimit: 2; is-custom-font: none; font-file-url: none; fill: rgb(237,237,237); fill-rule: nonzero; opacity: 1;" transform=" translate(-99.9887, -95.3089)" d="M 94.09688 121.99625 V 68.62162 h 11.78369 v 53.37463 H 94.09688 z" stroke-linecap="round"/>
</g>
		<g transform="matrix(0.7324 0 0 0.7324 -155.7415 -21.0185)" id="10732">
<path style="stroke: rgb(237,237,237); stroke-width: 0; stroke-dasharray: none; stroke-linecap: butt; stroke-dashoffset: 0; stroke-linejoin: miter; stroke-miterlimit: 2; is-custom-font: none; font-file-url: none; fill: rgb(237,237,237); fill-rule: nonzero; opacity: 1;" transform=" translate(-99.9887, -95.3089)" d="M 94.09688 121.99625 V 68.62162 h 11.78369 v 53.37463 H 94.09688 z" stroke-linecap="round"/>
</g>
		<g transform="matrix(0.7324 0 0 0.7324 -128.8562 -13.8114)" id="958193">
<path style="stroke: rgb(237,237,237); stroke-width: 0; stroke-dasharray: none; stroke-linecap: butt; stroke-dashoffset: 0; stroke-linejoin: miter; stroke-miterlimit: 2; is-custom-font: none; font-file-url: none; fill: rgb(237,237,237); fill-rule: nonzero; opacity: 1;" transform=" translate(-99.2163, -105.141)" d="M 106.69954 88.03019 h 11.78455 v 33.96533 h -11.78455 v -2.93787 c -2.82764 2.60876 -6.46326 4.17859 -10.42932 4.17859 c -9.01453 0 -16.32178 -8.10144 -16.32178 -18.09521 s 7.30725 -18.09521 16.32178 -18.09521 c 3.96606 0 7.60168 1.57056 10.42932 4.17786 V 88.03019 z M 106.69954 105.14103 c 0 -4.3009 -3.05457 -7.78821 -7.17908 -7.78821 s -7.46777 3.4873 -7.46777 7.78821 c 0 4.30164 3.34326 7.78894 7.46777 7.78894 S 106.69954 109.44193 106.69954 105.14103 z" stroke-linecap="round"/>
</g>
		<g transform="matrix(0.7324 0 0 0.7324 -96.1206 -13.8916)" id="356533">
<path style="stroke: rgb(237,237,237); stroke-width: 0; stroke-dasharray: none; stroke-linecap: butt; stroke-dashoffset: 0; stroke-linejoin: miter; stroke-miterlimit: 2; is-custom-font: none; font-file-url: none; fill: rgb(237,237,237); fill-rule: nonzero; opacity: 1;" transform=" translate(-99.6594, -105.0503)" d="M 114.11397 110.5004 c 0 9.28809 -8.54883 12.75159 -15.70996 12.75159 s -13.19922 -3.89832 -13.19922 -3.89832 l 4.25 -8.45715 c 0 0 4.67725 3.43616 9.27148 3.43616 c 1.9165 0 3.66992 -1.17957 3.66992 -2.57642 c 0 -5.26074 -14.6792 -0.70142 -14.6792 -12.61914 c 0 -9.45654 8.51318 -12.28857 14.74414 -12.28857 c 3.50537 0 7.99268 0.89429 10.62305 2.18042 l -3.92822 7.79602 c 0 0 -3.44434 -1.71875 -6.30908 -1.71875 c -2.45605 0 -3.60498 1.2356 -3.60498 2.44531 C 99.2419 101.56669 114.11446 98.49418 114.11397 110.5004 z" stroke-linecap="round"/>
</g>
		<g transform="matrix(0.7324 0 0 0.7324 -60.8098 -19.8088)" id="64837">
<path style="stroke: rgb(237,237,237); stroke-width: 0; stroke-dasharray: none; stroke-linecap: butt; stroke-dashoffset: 0; stroke-linejoin: miter; stroke-miterlimit: 2; is-custom-font: none; font-file-url: none; fill: rgb(237,237,237); fill-rule: nonzero; opacity: 1;" transform=" translate(-99.987, -96.9997)" d="M 121.717 72.04483 v 49.90967 H 109.2397 v -20.71619 H 90.73409 v 20.71619 H 78.25703 V 72.04483 h 12.47705 v 19.48914 h 18.50562 V 72.04483 H 121.717 z" stroke-linecap="round"/>
</g>
		<g transform="matrix(0.7324 0 0 0.7324 -30.6421 -35.8393)" id="577723">
<path style="stroke: rgb(236,167,21); stroke-width: 0; stroke-dasharray: none; stroke-linecap: butt; stroke-dashoffset: 0; stroke-linejoin: miter; stroke-miterlimit: 2; is-custom-font: none; font-file-url: none; fill: rgb(236,167,21); fill-rule: nonzero; opacity: 1;" transform=" translate(-100.0148, -75.0882)" d="M 93.48506 75.08781 c 0 -3.72131 2.92334 -6.73901 6.5293 -6.73901 c 3.60693 0 6.53027 3.0177 6.53027 6.73901 c 0 3.72205 -2.92334 6.73975 -6.53027 6.73975 C 96.4084 81.82755 93.48506 78.80985 93.48506 75.08781 z" stroke-linecap="round"/>
</g>
		<g transform="matrix(0.7324 0 0 0.7324 -30.666 -13.8953)" id="274713">
<path style="stroke: rgb(237,237,237); stroke-width: 0; stroke-dasharray: none; stroke-linecap: butt; stroke-dashoffset: 0; stroke-linejoin: miter; stroke-miterlimit: 2; is-custom-font: none; font-file-url: none; fill: rgb(237,237,237); fill-rule: nonzero; opacity: 1;" transform=" translate(-99.982, -105.0492)" d="M 94.0898 121.99552 V 88.10294 h 11.78442 v 33.89258 H 94.0898 z" stroke-linecap="round"/>
</g>
		<g transform="matrix(0.7324 0 0 0.7324 -3.9985 -14.1758)" id="323850">
<path style="stroke: rgb(237,237,237); stroke-width: 0; stroke-dasharray: none; stroke-linecap: butt; stroke-dashoffset: 0; stroke-linejoin: miter; stroke-miterlimit: 2; is-custom-font: none; font-file-url: none; fill: rgb(237,237,237); fill-rule: nonzero; opacity: 1;" transform=" translate(-100.1723, -104.6867)" d="M 117.58809 99.88029 v 22.11597 H 105.8044 v -17.6991 c 0 -5.45886 -1.8916 -7.40662 -5.27734 -7.40662 c -4.90234 0 -5.98633 3.88037 -5.98633 6.66992 v 18.43506 H 82.75655 V 88.10294 h 11.78418 v 4.13318 c 0 0 2.87305 -4.85901 10.42871 -4.85901 C 111.696 87.37711 117.58809 91.21281 117.58809 99.88029 z" stroke-linecap="round"/>
</g>
		<g transform="matrix(0.7324 0 0 0.7324 31.0291 -20.5642)" id="192196">
<path style="stroke: rgb(237,237,237); stroke-width: 0; stroke-dasharray: none; stroke-linecap: butt; stroke-dashoffset: 0; stroke-linejoin: miter; stroke-miterlimit: 2; is-custom-font: none; font-file-url: none; fill: rgb(237,237,237); fill-rule: nonzero; opacity: 1;" transform=" translate(-99.2163, -95.9286)" d="M 106.69966 68.62089 h 11.78442 v 53.37463 h -11.78442 v -2.93787 c -2.82764 2.60876 -6.46326 4.17859 -10.42932 4.17859 c -9.01453 0 -16.32178 -8.10144 -16.32178 -18.09521 s 7.30725 -18.09521 16.32178 -18.09521 c 3.96606 0 7.60168 1.57056 10.42932 4.17786 V 68.62089 z M 106.69966 105.14103 c 0 -4.3009 -3.05457 -7.78821 -7.17908 -7.78821 s -7.46777 3.4873 -7.46777 7.78821 c 0 4.30164 3.34326 7.78894 7.46777 7.78894 S 106.69966 109.44193 106.69966 105.14103 z" stroke-linecap="round"/>
</g>
		<g transform="matrix(0.7324 0 0 0.7324 67.3173 -13.4546)" id="981490">
<path style="stroke: rgb(237,237,237); stroke-width: 0; stroke-dasharray: none; stroke-linecap: butt; stroke-dashoffset: 0; stroke-linejoin: miter; stroke-miterlimit: 2; is-custom-font: none; font-file-url: none; fill: rgb(237,237,237); fill-rule: nonzero; opacity: 1;" transform=" translate(-99.9736, -105.6772)" d="M 117.55049 88.10294 v 21.88049 c 0 12.57739 -12.92871 13.26794 -17.57715 13.26794 c -4.64795 0 -17.57666 -0.69055 -17.57666 -13.26794 V 88.10294 h 11.78369 v 19.82837 c 0 1.73462 0.66455 5.5415 5.79297 5.5415 c 5.12891 0 5.79297 -3.80688 5.79297 -5.5415 V 88.10294 H 117.55049 z" stroke-linecap="round"/>
</g>
		<g transform="matrix(0.7324 0 0 0.7324 103.2861 -19.8088)" id="455784">
<path style="stroke: rgb(237,237,237); stroke-width: 0; stroke-dasharray: none; stroke-linecap: butt; stroke-dashoffset: 0; stroke-linejoin: miter; stroke-miterlimit: 2; is-custom-font: none; font-file-url: none; fill: rgb(237,237,237); fill-rule: nonzero; opacity: 1;" transform=" translate(-101.2356, -96.9997)" d="M 119.71407 88.78775 c 0 14.45947 -10.95166 16.7428 -16.49268 16.7428 h -7.9873 v 16.42395 H 82.75703 V 72.04483 h 20.46436 C 108.76241 72.04483 119.71455 74.32816 119.71407 88.78775 z M 106.51631 88.78836 c 0 -4.78333 -3.13867 -6.19397 -6.2959 -6.19397 h -4.98535 v 12.38733 h 4.98535 C 103.37764 94.98172 106.51534 93.57108 106.51631 88.78836 z" stroke-linecap="round"/>
</g>
		<g transform="matrix(0.7324 0 0 0.7324 129.2508 -13.9037)" id="730013">
<path style="stroke: rgb(237,237,237); stroke-width: 0; stroke-dasharray: none; stroke-linecap: butt; stroke-dashoffset: 0; stroke-linejoin: miter; stroke-miterlimit: 2; is-custom-font: none; font-file-url: none; fill: rgb(237,237,237); fill-rule: nonzero; opacity: 1;" transform=" translate(-93.4726, -105.0496)" d="M 87.58076 121.99625 V 88.10294 h 11.78369 v 33.89331 H 87.58076 z" stroke-linecap="round"/>
</g>
		<g transform="matrix(0.7324 0 0 0.7324 140.1049 -21.3903)" id="750332">
<path style="stroke: rgb(236,167,21); stroke-width: 0; stroke-dasharray: none; stroke-linecap: butt; stroke-dashoffset: 0; stroke-linejoin: miter; stroke-miterlimit: 2; is-custom-font: none; font-file-url: none; fill: rgb(236,167,21); fill-rule: nonzero; opacity: 1;" transform=" translate(-108.2922, -94.8276)" d="M 101.76241 94.82755 c 0 -3.72119 2.92334 -6.73901 6.53027 -6.73901 c 3.60596 0 6.5293 3.01782 6.5293 6.73901 c 0 3.72205 -2.92334 6.73914 -6.5293 6.73914 C 104.68575 101.56669 101.76241 98.5496 101.76241 94.82755 z" stroke-linecap="round"/>
</g>
		<g transform="matrix(0.7324 0 0 0.7324 157.0181 -35.8393)" id="285599">
<path style="stroke: rgb(236,167,21); stroke-width: 0; stroke-dasharray: none; stroke-linecap: butt; stroke-dashoffset: 0; stroke-linejoin: miter; stroke-miterlimit: 2; is-custom-font: none; font-file-url: none; fill: rgb(236,167,21); fill-rule: nonzero; opacity: 1;" transform=" translate(-100.0148, -75.0882)" d="M 93.48506 75.08781 c 0 -3.72131 2.92334 -6.73901 6.5293 -6.73901 c 3.60693 0 6.53027 3.0177 6.53027 6.73901 c 0 3.72205 -2.92334 6.73975 -6.53027 6.73975 C 96.4084 81.82755 93.48506 78.80985 93.48506 75.08781 z" stroke-linecap="round"/>
</g>
		<g transform="matrix(0.7324 0 0 0.7324 156.9942 -13.8953)" id="851470">
<path style="stroke: rgb(237,237,237); stroke-width: 0; stroke-dasharray: none; stroke-linecap: butt; stroke-dashoffset: 0; stroke-linejoin: miter; stroke-miterlimit: 2; is-custom-font: none; font-file-url: none; fill: rgb(237,237,237); fill-rule: nonzero; opacity: 1;" transform=" translate(-99.982, -105.0492)" d="M 94.0898 121.99552 V 88.10294 h 11.78442 v 33.89258 H 94.0898 z" stroke-linecap="round"/>
</g>
		<g transform="matrix(0.7324 0 0 0.7324 183.1482 -13.8958)" id="72105">
<path style="stroke: rgb(237,237,237); stroke-width: 0; stroke-dasharray: none; stroke-linecap: butt; stroke-dashoffset: 0; stroke-linejoin: miter; stroke-miterlimit: 2; is-custom-font: none; font-file-url: none; fill: rgb(237,237,237); fill-rule: nonzero; opacity: 1;" transform=" translate(-99.8672, -105.0417)" d="M 106.71529 109.6724 h 11.26465 c 0 11.86011 -12.58813 13.56531 -17.79419 13.56531 s -18.47314 -3.2511 -18.47314 -18.02246 s 11.45825 -18.36951 18.34863 -18.36951 c 10.64673 0 15.6311 5.49048 17.28784 13.28149 c 0.4646 2.16309 0.67261 4.4989 0.67261 6.93848 H 93.48994 c 0 5.55249 2.90405 7.72925 7.08398 7.72925 C 104.75313 114.79496 106.71529 112.44535 106.71529 109.6724 z M 93.7729 100.12724 h 13.20532 l -0.07642 -0.04822 c 0 -2.49573 -1.88501 -5.50415 -6.52222 -5.50415 C 95.74947 94.57487 93.77364 97.88859 93.7729 100.12724 z" stroke-linecap="round"/>
</g>
		<g transform="matrix(0.7324 0 0 0.7324 214.1745 -13.8916)" id="909921">
<path style="stroke: rgb(237,237,237); stroke-width: 0; stroke-dasharray: none; stroke-linecap: butt; stroke-dashoffset: 0; stroke-linejoin: miter; stroke-miterlimit: 2; is-custom-font: none; font-file-url: none; fill: rgb(237,237,237); fill-rule: nonzero; opacity: 1;" transform=" translate(-99.6594, -105.0503)" d="M 114.11397 110.5004 c 0 9.28809 -8.54883 12.75159 -15.70996 12.75159 s -13.19922 -3.89832 -13.19922 -3.89832 l 4.25 -8.45715 c 0 0 4.67725 3.43616 9.27148 3.43616 c 1.9165 0 3.66992 -1.17957 3.66992 -2.57642 c 0 -5.26074 -14.6792 -0.70142 -14.6792 -12.61914 c 0 -9.45654 8.51318 -12.28857 14.74414 -12.28857 c 3.50537 0 7.99268 0.89429 10.62305 2.18042 l -3.92822 7.79602 c 0 0 -3.44434 -1.71875 -6.30908 -1.71875 c -2.45605 0 -3.60498 1.2356 -3.60498 2.44531 C 99.2419 101.56669 114.11446 98.49418 114.11397 110.5004 z" stroke-linecap="round"/>
</g>
		<g transform="matrix(0.7324 0 0 0.7324 239.7893 -17.1643)" id="338005">
<path style="stroke: rgb(237,237,237); stroke-width: 0; stroke-dasharray: none; stroke-linecap: butt; stroke-dashoffset: 0; stroke-linejoin: miter; stroke-miterlimit: 2; is-custom-font: none; font-file-url: none; fill: rgb(237,237,237); fill-rule: nonzero; opacity: 1;" transform=" translate(-95.6401, -100.5906)" d="M 106.36348 113.47355 v 9.77844 c -6.89941 0 -17.72852 -1.4552 -17.72852 -13.25342 V 98.49418 H 84.9167 V 88.10294 h 3.71826 V 77.92912 h 11.78369 v 30.0022 C 100.41866 109.95036 101.51387 113.47355 106.36348 113.47355 z" stroke-linecap="round"/>
</g>
		<g transform="matrix(0.7324 0 0 0.7324 249.7148 -21.3848)" id="631190">
<path style="stroke: rgb(236,167,21); stroke-width: 0; stroke-dasharray: none; stroke-linecap: butt; stroke-dashoffset: 0; stroke-linejoin: miter; stroke-miterlimit: 2; is-custom-font: none; font-file-url: none; fill: rgb(236,167,21); fill-rule: nonzero; opacity: 1;" transform=" translate(-109.1916, -94.8276)" d="M 102.66182 94.82755 c 0 -3.72119 2.92334 -6.73901 6.53027 -6.73901 c 3.60596 0 6.5293 3.01782 6.5293 6.73901 c 0 3.72205 -2.92334 6.73914 -6.5293 6.73914 C 105.58516 101.56669 102.66182 98.5496 102.66182 94.82755 z" stroke-linecap="round"/>
</g>
</g>
</g>
</g>
</g>
		<g transform="matrix(1 0 0 1 -238.5456 0)" id="135025">
<g style="">
		<g transform="matrix(1 0 0 1 -70.7883 0.113)" id="364699">
<polyline style="stroke: none; stroke-width: 2; stroke-dasharray: none; stroke-linecap: butt; stroke-dashoffset: 0; stroke-linejoin: miter; stroke-miterlimit: 4; is-custom-font: none; font-file-url: none; fill: rgb(253,254,254); fill-opacity: 0; fill-rule: evenodd; opacity: 1;" points="-15.2667,24.913 -52.7917,24.913 -52.7917,-24.913 52.7917,-24.913 "/>
</g>
		<g transform="matrix(1 0 0 1 70.7884 0.113)" id="964132">
<polyline style="stroke: none; stroke-width: 2; stroke-dasharray: none; stroke-linecap: butt; stroke-dashoffset: 0; stroke-linejoin: miter; stroke-miterlimit: 4; is-custom-font: none; font-file-url: none; fill: rgb(253,254,254); fill-opacity: 0; fill-rule: evenodd; opacity: 1;" points="15.2667,24.913 52.7917,24.913 52.7917,-24.913 -52.7917,-24.913 "/>
</g>
		<g transform="matrix(1 0 0 1 0 -5.347)" id="236633">
<rect style="stroke: none; stroke-width: 2; stroke-dasharray: none; stroke-linecap: butt; stroke-dashoffset: 0; stroke-linejoin: miter; stroke-miterlimit: 4; is-custom-font: none; font-file-url: none; fill: rgb(253,254,254); fill-opacity: 0; fill-rule: evenodd; opacity: 1;" x="-123.58" y="-44.453" rx="0" ry="0" width="247.16" height="88.906"/>
</g>
		<g transform="matrix(1 0 0 1 -65.7884 -24.8)" id="768257">
<rect style="stroke: none; stroke-width: 1; stroke-dasharray: none; stroke-linecap: butt; stroke-dashoffset: 0; stroke-linejoin: miter; stroke-miterlimit: 4; is-custom-font: none; font-file-url: none; fill: rgb(253,254,254); fill-opacity: 0; fill-rule: evenodd; opacity: 1;" x="-47.79165" y="-0.5" rx="0" ry="0" width="95.5833" height="1"/>
</g>
		<g transform="matrix(1 0 0 1 46.3999 -24.535)" id="613837">
<path style="stroke: none; stroke-width: 1; stroke-dasharray: none; stroke-linecap: butt; stroke-dashoffset: 0; stroke-linejoin: miter; stroke-miterlimit: 4; is-custom-font: none; font-file-url: none; fill: rgb(254,255,255); fill-rule: nonzero; opacity: 1;" transform=" translate(-66.3466, -20.215)" d="M 60.5100098 16 c -1.2874756 1.1726074 -2.0540771 2.8102417 -2.1300049 4.5499878 c 4.8666382 1.3875122 9.3128662 3.9611206 12.9400024 7.4899902 c 1.4963989 -0.9459839 2.5460815 -2.4574585 2.9099731 -4.1900024 C 74.5700073 22.1099854 73.8099976 20.5999756 73 19 c -1 -1.8400269 -2 -3.9000244 -1.2999878 -6.6099854 l -0.0100098 0.039978 c -1.960022 1.9400024 -4.2700195 2.0700073 -6.3599854 2.210022 C 63.5100098 14.7399902 61.8499756 14.8400269 60.5100098 16 z" stroke-linecap="round"/>
</g>
		<g transform="matrix(1 0 0 1 40.2168 -33.775)" id="129977">
<path style="stroke: none; stroke-width: 1; stroke-dasharray: none; stroke-linecap: butt; stroke-dashoffset: 0; stroke-linejoin: miter; stroke-miterlimit: 4; is-custom-font: none; font-file-url: none; fill: rgb(254,255,255); fill-rule: nonzero; opacity: 1;" transform=" translate(-60.1634, -10.975)" d="M 58.5100098 15.0900269 c 0.2091064 0.6096802 0.3303223 1.2460938 0.3599854 1.8899536 c 0 0.0058594 0 0.0131836 0 0.0200195 c 0.3459473 -0.5548096 0.7703857 -1.0567017 1.2600098 -1.4899902 C 61.6199951 14.210022 63.4899902 14.0999756 65.2999878 14 l 1.2399902 -0.0700073 c 0.0091553 -0.1765137 0.0091553 -0.3534546 0 -0.5299683 c -0.0899658 -1.4500122 -1 -2.4900513 -2 -3.5900269 c -1.1300049 -1.2600098 -2.3800049 -2.6599731 -2.4499512 -4.8599854 c -1.1600342 1.8800049 -2.9400024 2.4699707 -4.5500488 3 C 56.1400146 8.4099731 54.8099976 8.8499756 54 10.0499878 c -0.0808716 0.1495972 -0.1542969 0.3031616 -0.2199707 0.460022 c 0.3099976 0.2399902 0.6599731 0.4599609 1 0.6900024 C 56.2999878 12.1900024 57.8699951 13.2199707 58.5100098 15.0900269 z" stroke-linecap="round"/>
</g>
		<g transform="matrix(1 0 0 1 58.0648 -22.74)" id="897969">
<path style="stroke: none; stroke-width: 1; stroke-dasharray: none; stroke-linecap: butt; stroke-dashoffset: 0; stroke-linejoin: miter; stroke-miterlimit: 4; is-custom-font: none; font-file-url: none; fill: rgb(254,255,255); fill-rule: nonzero; opacity: 1;" transform=" translate(-78.0115, -22.01)" d="M 74.7800293 24 c -0.1289062 0.609436 -0.3408813 1.1983032 -0.6300049 1.75 v 0.0700073 h 0.0699463 c 0.5705566 -0.2945557 1.1799316 -0.5066528 1.8099976 -0.6300049 c 1.9300537 -0.3800049 3.6100464 0.460022 5.2300415 1.2799683 l 1.1199951 0.5500488 c 0.0946045 -0.1487427 0.1813965 -0.3023071 0.2600098 -0.460022 c 0.6400146 -1.3099976 0.3499756 -2.6699829 0.0499878 -4.1199951 C 82.3400269 20.7800293 82 18.9400024 83 17 c -2 1.0700073 -3.7999878 0.6799927 -5.460022 0.3400269 C 76.0900269 17.039978 74.7200317 16.75 73.4199829 17.3900146 c -0.144104 0.079834 -0.2842407 0.166626 -0.4199829 0.2600098 c 0.1300049 0.3499756 0.3099976 0.75 0.5 1.1199951 C 74.3099976 20.3900146 75.1599731 22.0599976 74.7800293 24 z" stroke-linecap="round"/>
</g>
		<g transform="matrix(1 0 0 1 30.0347 -31.26)" id="922716">
<path style="stroke: none; stroke-width: 1; stroke-dasharray: none; stroke-linecap: butt; stroke-dashoffset: 0; stroke-linejoin: miter; stroke-miterlimit: 4; is-custom-font: none; font-file-url: none; fill: rgb(254,255,255); fill-rule: nonzero; opacity: 1;" transform=" translate(-49.9814, -13.49)" d="M 42.0599976 15.3200073 c -0.3771362 1.1013184 -0.4360352 2.2866821 -0.1699829 3.4199829 c 0.0700073 0.210022 0.1699829 0.4199829 0.1699829 0.6199951 c 0.1159058 0.3429565 0.2562256 0.6771851 0.4199829 1 c 4.9224854 -1.2453003 10.0775757 -1.2453003 15 0 c 0.1749878 -0.3546753 0.3221436 -0.7224731 0.4400024 -1.0999756 c 0.0533447 -0.1733398 0.1033325 -0.3500366 0.1500244 -0.5300293 c 0.2698975 -1.1396484 0.2109375 -2.3324585 -0.1699829 -3.4400024 c -0.5700073 -1.6799927 -1.9900513 -2.5899658 -3.4900513 -3.5899658 c -1.75 -1.1500244 -3.6799927 -2.4199829 -4.4099731 -5.0800171 c -0.7299805 2.6600342 -2.6599731 3.9299927 -4.4500122 5.1099854 C 44.0599976 12.710022 42.6400146 13.6400146 42.0599976 15.3200073 z" stroke-linecap="round"/>
</g>
		<g transform="matrix(1 0 0 1 59.8133 -11.0616)" id="327479">
<path style="stroke: none; stroke-width: 1; stroke-dasharray: none; stroke-linecap: butt; stroke-dashoffset: 0; stroke-linejoin: miter; stroke-miterlimit: 4; is-custom-font: none; font-file-url: none; fill: rgb(254,255,255); fill-rule: nonzero; opacity: 1;" transform=" translate(-79.76, -33.6884)" d="M 76.0800171 25.7999878 c -1.1254272 0.2315063 -2.1641846 0.7716675 -3 1.5599976 c -0.1500244 0.1600342 -0.2999878 0.3099976 -0.4500122 0.4500122 c -0.2521362 0.2823486 -0.4827881 0.5831909 -0.6900024 0.9000244 c 3.5303345 3.6299438 6.1040039 8.0797729 7.4899902 12.9499512 c 1.7633057 -0.072998 3.4223022 -0.8555908 4.6000366 -2.1699829 c 1.1599731 -1.3399658 1.2599487 -3.0299683 1.3599854 -4.8200073 c 0.1199951 -2.0899658 0.25 -4.3599854 2.1900024 -6.3599854 h -0.0100098 C 84.9000244 29 82.8400269 28 80.9400024 27.0300293 C 79.3300171 26.2200317 77.8200073 25.460022 76.0800171 25.7999878 z" stroke-linecap="round"/>
</g>
		<g transform="matrix(1 0 0 1 19.9334 -33.74)" id="610691">
<path style="stroke: none; stroke-width: 1; stroke-dasharray: none; stroke-linecap: butt; stroke-dashoffset: 0; stroke-linejoin: miter; stroke-miterlimit: 4; is-custom-font: none; font-file-url: none; fill: rgb(254,255,255); fill-rule: nonzero; opacity: 1;" transform=" translate(-39.88, -11.01)" d="M 34.75 14.0599976 c 1.8099976 0.1099854 3.6799927 0.210022 5.1699829 1.5100098 c 0.4866943 0.4210815 0.9109497 0.9093018 1.2600098 1.4500122 c 0 -0.0091553 0 -0.0200195 0 -0.0200195 c 0.0380249 -0.6381226 0.1659546 -1.2676392 0.3800049 -1.8699951 c 0.6400146 -1.8900146 2.210022 -2.8900146 3.7299805 -3.8900146 c 0.3099976 -0.2199707 0.6600342 -0.4500122 1 -0.6900024 c -0.0822144 -0.15448 -0.1723633 -0.3046875 -0.2699585 -0.4500122 C 45.210022 8.9000244 43.8800049 8.460022 42.4799805 8 c -1.6099854 -0.539978 -3.3899536 -1.1300049 -4.5499878 -3 c -0.0700073 2.1599731 -1.3200073 3.5599976 -2.4599609 4.8300171 c -1 1.0999756 -1.9000244 2.1399536 -2 3.5899658 c 0.003418 0.18396 0.0167847 0.3675537 0.039978 0.5499878 L 34.75 14.0599976 z" stroke-linecap="round"/>
</g>
		<g transform="matrix(1 0 0 1 13.7217 -24.51)" id="211816">
<path style="stroke: none; stroke-width: 1; stroke-dasharray: none; stroke-linecap: butt; stroke-dashoffset: 0; stroke-linejoin: miter; stroke-miterlimit: 4; is-custom-font: none; font-file-url: none; fill: rgb(254,255,255); fill-rule: nonzero; opacity: 1;" transform=" translate(-33.6684, -20.24)" d="M 26.9899902 19.0100098 c -0.8099976 1.6099854 -1.5700073 3.1199951 -1.2299805 4.8599854 c 0.2237549 1.1478271 0.7681274 2.2088013 1.5700073 3.0599976 l 0.3900146 0.3900146 c 0.3126221 0.2734375 0.6470337 0.5209351 1 0.7399902 c 3.6271362 -3.5289307 8.0733643 -6.102478 12.9400024 -7.4899902 c -0.0730591 -1.7633057 -0.8556519 -3.4222412 -2.1700439 -4.6000366 c -1.3399658 -1.1599731 -3.0299683 -1.2599487 -4.8200073 -1.3599854 c -2.0899658 -0.1199951 -4.3599854 -0.25 -6.3599854 -2.1900024 v 0.0100098 C 29 15.0999756 28 17.1599731 26.9899902 19.0100098 z" stroke-linecap="round"/>
</g>
		<g transform="matrix(1 0 0 1 69.0683 -4.875)" id="161055">
<path style="stroke: none; stroke-width: 1; stroke-dasharray: none; stroke-linecap: butt; stroke-dashoffset: 0; stroke-linejoin: miter; stroke-miterlimit: 4; is-custom-font: none; font-file-url: none; fill: rgb(254,255,255); fill-rule: nonzero; opacity: 1;" transform=" translate(-89.015, -39.875)" d="M 86.5800171 33.5100098 h -0.5300293 C 85.960022 33.9199829 85.960022 34.3400269 85.960022 34.75 c -0.1100464 1.8099976 -0.210022 3.6799927 -1.5100098 5.1699829 C 84.0285645 40.406311 83.5403442 40.8305054 83 41.1799927 c 0.6477661 0.0319824 1.2875977 0.1565552 1.9000244 0.3699951 c 1.8899536 0.6400146 2.8899536 2.210022 3.8899536 3.7300415 c 0.2200317 0.3099976 0.4500122 0.6599731 0.6900024 1 c 0.154541 -0.0822754 0.3047485 -0.1724243 0.4500122 -0.2700195 c 1.2000122 -0.8099976 1.6400146 -2.1400146 2.1000366 -3.5400391 c 0.539978 -1.6099854 1.1299438 -3.3899536 3 -4.5499878 c -2.1900024 -0.0700073 -3.5900269 -1.3200073 -4.8600464 -2.4500122 c -1.0999756 -1 -2.1399536 -1.8999634 -3.5899658 -2 V 33.5100098 z" stroke-linecap="round"/>
</g>
		<g transform="matrix(1 0 0 1 66.5633 5.2295)" id="378790">
<path style="stroke: none; stroke-width: 1; stroke-dasharray: none; stroke-linecap: butt; stroke-dashoffset: 0; stroke-linejoin: miter; stroke-miterlimit: 4; is-custom-font: none; font-file-url: none; fill: rgb(254,255,255); fill-rule: nonzero; opacity: 1;" transform=" translate(-86.51, -49.9795)" d="M 84.710022 57.9000244 c 1.6799927 -0.5700073 2.5899658 -1.9900513 3.5899658 -3.4900513 c 1.1500244 -1.75 2.4199829 -3.6799927 5.0800171 -4.4099731 c -2.6599731 -0.7299805 -3.9299927 -2.6599731 -5.0700073 -4.4400024 c -0.9799805 -1.4899902 -1.9099731 -2.9099731 -3.5899658 -3.4899902 c -1.1075439 -0.3809814 -2.300354 -0.4399414 -3.4400024 -0.1699829 l -0.5400391 0.1399536 c -0.3775024 0.117981 -0.7452393 0.2650757 -1.0999756 0.4400024 c 1.2453003 4.9224854 1.2453003 10.0775757 0 15 C 81.2040405 58.2985229 83.0325928 58.4500122 84.710022 57.9000244 z" stroke-linecap="round"/>
</g>
		<g transform="matrix(1 0 0 1 30.0533 5.25)" id="267955">
<path style="stroke: none; stroke-width: 1; stroke-dasharray: none; stroke-linecap: butt; stroke-dashoffset: 0; stroke-linejoin: miter; stroke-miterlimit: 4; is-custom-font: none; font-file-url: none; fill: rgb(254,255,255); fill-rule: nonzero; opacity: 1;" transform=" translate(-50, -50)" d="M 50 20 c -16.5685425 0 -30 13.4314575 -30 30 s 13.4314575 30 30 30 s 30 -13.4314575 30 -30 S 66.5685425 20 50 20 z M 54.5402336 28.3531246 l 3.2216797 2.9477539 l -3.1689453 3.1689472 c -0.0058594 0.0048828 -0.0117188 0.0053711 -0.0175781 0.0004883 l -3.28125 -3.0263691 L 54.5402336 28.3531246 z M 53.6095695 36.5201187 c 4.03125 0.378418 7.4121094 -2.6445312 8.3652344 -3.5800781 l 2.4960976 3.324707 c -0.5898476 0.7358398 -2.8916054 3.1806641 -7.7128944 3.7260742 c -2.5507812 0.2905273 -4.6884766 -0.2529297 -6.3486328 -1.6088867 c -2.1743164 -1.7749023 -3.0302734 -4.5493164 -3.3476562 -6.0454102 C 49.0021477 34.8824234 51.2013664 36.2881851 53.6095695 36.5201187 z M 68.6437531 56.1294937 c -0.7783203 3.1806641 -2.4101562 7.5136719 -7.573246 8.4072266 c -1.8740234 0.3261719 -3.7128906 -0.2324219 -5.1767578 -1.5693359 c -1.9169922 -1.7519531 -2.9160156 -4.5810547 -2.6728516 -7.5693359 c 0.0175781 -0.2167969 0.1630859 -0.3964844 0.3701172 -0.4570312 c 0.2070312 -0.0576172 0.4199219 0.0107422 0.5498047 0.1806641 c 0.9628906 1.2597656 3.5869141 4.0195312 7.1347656 2.4335938 c 3.3613319 -1.5019531 5.1171913 -4.8486328 4.4736366 -8.5268555 c -0.3310547 -1.890625 -1.1591797 -3.3017578 -2.3320351 -3.9726562 c -0.9404297 -0.5375977 -2.046875 -0.5727539 -3.2929688 -0.1074219 c -1.8496094 0.6938477 -2.4707031 1.9658203 -3.1279297 3.3125 c -0.3847656 0.7880859 -0.7822266 1.6030273 -1.4375 2.3344727 c -1.0488281 1.1679688 -1.9580078 2.1816406 -5.2529297 2.6171875 c 0.5283203 1.0898438 2.0351562 4.7021484 0.9033203 8.4394531 c -0.9316406 3.0751953 -3.2788086 5.2910156 -6.4389648 6.0800781 c -0.7900391 0.1972656 -1.5976562 0.2939453 -2.4042969 0.2939453 c -2.7739258 0 -5.5419922 -1.1376953 -7.609375 -3.2109375 c -3.6123047 -3.6240234 -5.4931641 -8.4960938 -5.0307617 -13.0322266 c 0.0253906 -0.2509766 0.2197266 -0.4394531 0.4716797 -0.4580078 c 0.265625 -0.0117188 0.4741211 0.1396484 0.5361328 0.3847656 c 0.7529297 2.9472656 3.159668 9.8457031 9.2324219 10.2333984 c 2.9833984 0.1845703 5.2114258 -0.4296875 6.4433594 -1.7919922 c 1.2363281 -1.3671875 1.0795898 -3.0029297 1.0024414 -3.4716797 c -0.3774414 -2.2900391 -2.4526367 -3.4628906 -5.9985352 -3.3798828 c -0.1420898 -0.0029297 -0.2578125 -0.0439453 -0.3525391 -0.1318359 c -0.4438477 -0.4169922 -2.6474609 -2.6611328 -2.4882812 -5.9394531 c 0.0063477 -0.1376953 0.0668945 -0.2641602 0.1708984 -0.3554688 c 0.1044922 -0.0917969 0.2382812 -0.1367188 0.375 -0.1254883 c 0.9179688 0.0673828 5.5786133 0.3369141 7.0546875 -1.3105469 c 0.3891602 -0.434082 0.519043 -0.9604492 0.3969727 -1.6083984 c -0.1635742 -0.8681641 -0.6484375 -1.4755859 -1.4414062 -1.8066406 c -2.1484375 -0.894043 -5.9091797 0.3774414 -8.3564453 2.03125 c -0.1181641 0.0791016 -0.2563477 0.1069336 -0.3955078 0.0776367 c -0.1357422 -0.0292969 -0.2509766 -0.1108398 -0.3242188 -0.2294922 l -2.4506836 -3.9526367 c -0.1347656 -0.2163086 -0.0854492 -0.4990234 0.1157227 -0.6577148 c 1.1704102 -0.9165039 7.222168 -5.3740234 11.5053711 -3.2099609 c 4.3920898 2.2182617 5.0976562 5.1713867 4.9160156 7.2578125 c -0.2421875 2.777832 -2.2548828 5.3369141 -4.0917969 6.1865234 c 0.7177734 0.421875 2.3261719 1.1494141 3.9951172 0.4541016 c 0.7236328 -0.3027344 1.3066406 -1.3911133 1.9814453 -2.6518555 c 1.4150391 -2.6459961 3.3544922 -6.2695312 8.4726562 -6.4194336 c 2.3994141 -0.0693359 4.3837929 0.8378906 5.8876991 2.6972656 C 69.0392609 46.8877945 69.5294952 52.5084 68.6437531 56.1294937 z" stroke-linecap="round"/>
</g>
		<g transform="matrix(1 0 0 1 -6.4567 5.2735)" id="283391">
<path style="stroke: none; stroke-width: 1; stroke-dasharray: none; stroke-linecap: butt; stroke-dashoffset: 0; stroke-linejoin: miter; stroke-miterlimit: 4; is-custom-font: none; font-file-url: none; fill: rgb(254,255,255); fill-rule: nonzero; opacity: 1;" transform=" translate(-13.49, -50.0234)" d="M 20.3599854 42.5200195 c -1.5640259 -0.8185425 -3.3925781 -0.9700317 -5.0700073 -0.4200439 c -1.6799927 0.5700073 -2.5899658 1.9900513 -3.5899658 3.4900513 c -1.1500244 1.75 -2.4199829 3.6799927 -5.0800171 4.4099731 c 2.6600342 0.7299805 3.9299927 2.6599731 5.1000366 4.4500122 c 0.9799805 1.4899902 1.9099731 2.9099731 3.5899658 3.4899902 c 1.0982666 0.3751831 2.2799072 0.4341431 3.4100342 0.1699829 c 0.2199707 -0.0700073 0.4299927 -0.1699829 0.6399536 -0.1699829 c 0.3429565 -0.1159058 0.677124 -0.2562866 1 -0.4199829 C 19.1146851 52.5975342 19.1146851 47.4424438 20.3599854 42.5200195 z" stroke-linecap="round"/>
</g>
		<g transform="matrix(1 0 0 1 40.1783 44.26)" id="32562">
<path style="stroke: none; stroke-width: 1; stroke-dasharray: none; stroke-linecap: butt; stroke-dashoffset: 0; stroke-linejoin: miter; stroke-miterlimit: 4; is-custom-font: none; font-file-url: none; fill: rgb(254,255,255); fill-rule: nonzero; opacity: 1;" transform=" translate(-60.125, -89.01)" d="M 65.25 85.9400024 c -1.8099976 -0.1099854 -3.6799927 -0.210022 -5.1699829 -1.5100098 c -0.4866333 -0.4212036 -0.9108276 -0.9094238 -1.2600098 -1.4500122 c 0 0.0091553 0 0.0200195 0 0.0200195 c -0.0310059 0.651123 -0.1556396 1.2943726 -0.3699951 1.9099731 c -0.6400146 1.8900146 -2.210022 2.8900146 -3.7300415 3.8900146 c -0.3099976 0.2200317 -0.6599731 0.4500122 -1 0.6900024 c 0.0822754 0.154541 0.1723633 0.3047485 0.2700195 0.4500122 c 0.8099976 1.2000122 2.1400146 1.6400146 3.5400391 2.0999756 c 1.6099854 0.5400391 3.3899536 1.1300049 4.5499878 3 c 0.0700073 -2.2000122 1.3200073 -3.5899658 2.4500122 -4.8599854 c 1 -1.0999756 1.8999634 -2.1400146 2 -3.5900269 v -0.0099487 c -0.003479 -0.18396 -0.0168457 -0.3675537 -0.0400391 -0.5500488 L 65.25 85.9400024 z" stroke-linecap="round"/>
</g>
		<g transform="matrix(1 0 0 1 30.0533 41.77)" id="32749">
<path style="stroke: none; stroke-width: 1; stroke-dasharray: none; stroke-linecap: butt; stroke-dashoffset: 0; stroke-linejoin: miter; stroke-miterlimit: 4; is-custom-font: none; font-file-url: none; fill: rgb(254,255,255); fill-rule: nonzero; opacity: 1;" transform=" translate(-50, -86.52)" d="M 57.9000244 84.7199707 c 0.3809204 -1.1074829 0.4398804 -2.300293 0.1699829 -3.4400024 C 58.0233154 81.0933228 57.9833374 80.916687 57.9500122 80.75 c -0.1179199 -0.3775635 -0.2650146 -0.7453003 -0.4400024 -1.0999756 c -4.9224854 1.2453003 -10.0775757 1.2453003 -15 0 C 42.335144 80.0047607 42.1879883 80.3724976 42.0700073 80.75 c -0.039978 0.1733398 -0.0866699 0.3499756 -0.1400146 0.5299683 c -0.2698975 1.1397095 -0.2109375 2.3325195 0.1699829 3.4400024 c 0.5700073 1.6799927 1.9900513 2.5900269 3.4900513 3.5900269 c 1.75 1.1500244 3.6799927 2.4199829 4.4099731 5.0800171 v -0.0100098 c 0.7299805 -2.6600342 2.6599731 -3.9299927 4.4099731 -5.0700073 C 55.9000244 87.3300171 57.3200073 86.4000244 57.9000244 84.7199707 z" stroke-linecap="round"/>
</g>
		<g transform="matrix(1 0 0 1 46.365 35.02)" id="464681">
<path style="stroke: none; stroke-width: 1; stroke-dasharray: none; stroke-linecap: butt; stroke-dashoffset: 0; stroke-linejoin: miter; stroke-miterlimit: 4; is-custom-font: none; font-file-url: none; fill: rgb(254,255,255); fill-rule: nonzero; opacity: 1;" transform=" translate(-66.3116, -79.77)" d="M 74.2000122 76.0899658 c -0.2315063 -1.1253662 -0.7716675 -2.1641235 -1.5599976 -3 c -0.1600342 -0.1499634 -0.3099976 -0.2999878 -0.4500122 -0.4499512 c -0.2823486 -0.2521362 -0.5831909 -0.4827881 -0.9000244 -0.6900024 c -3.6299438 3.5302734 -8.0797729 6.1040039 -12.9499512 7.4899902 c 0.072998 1.7633057 0.8555908 3.4222412 2.1699829 4.5999756 c 1.3399658 1.1600342 3.0299683 1.2600098 4.8200073 1.3599854 c 2.0899658 0.1200562 4.3599854 0.25 6.3599854 2.1900024 v -0.0199585 C 71 84.9000244 72 82.8399658 72.9699707 80.9500122 C 73.7800293 79.3399658 74.539978 77.8300171 74.2000122 76.0899658 z" stroke-linecap="round"/>
</g>
		<g transform="matrix(1 0 0 1 19.8899 44.275)" id="846062">
<path style="stroke: none; stroke-width: 1; stroke-dasharray: none; stroke-linecap: butt; stroke-dashoffset: 0; stroke-linejoin: miter; stroke-miterlimit: 4; is-custom-font: none; font-file-url: none; fill: rgb(254,255,255); fill-rule: nonzero; opacity: 1;" transform=" translate(-39.8366, -89.025)" d="M 41.4899902 84.9099731 c -0.2091064 -0.6096802 -0.3303223 -1.2460938 -0.3599854 -1.8899536 c 0 -0.0058594 0 -0.0131836 0 -0.0200195 c -0.3460693 0.5547485 -0.7704468 1.0565796 -1.2600098 1.4899902 C 38.3800049 85.789978 36.5100098 85.9000244 34.7000122 86 l -1.2399902 0.0700073 c -0.0091553 0.1765137 -0.0091553 0.3534546 0 0.5299683 c 0.0899658 1.4500122 1 2.4899902 2 3.5900269 c 1.1300049 1.2600098 2.3800049 2.6599731 2.4499512 4.8599854 c 1.1600342 -1.8800049 2.9400024 -2.4699707 4.5500488 -3 c 1.3999634 -0.460022 2.7299805 -0.9000244 3.539978 -2.0999756 c 0.0809937 -0.1495972 0.1544189 -0.3031006 0.2200317 -0.460022 c -0.3100586 -0.2399902 -0.6600342 -0.4599609 -1 -0.6900024 C 43.7000122 87.8099976 42.1300049 86.7800293 41.4899902 84.9099731 z" stroke-linecap="round"/>
</g>
		<g transform="matrix(1 0 0 1 58.0533 33.2594)" id="63517">
<path style="stroke: none; stroke-width: 1; stroke-dasharray: none; stroke-linecap: butt; stroke-dashoffset: 0; stroke-linejoin: miter; stroke-miterlimit: 4; is-custom-font: none; font-file-url: none; fill: rgb(254,255,255); fill-rule: nonzero; opacity: 1;" transform=" translate(-78, -78.0094)" d="M 82.6600342 77.539978 c 0.2999878 -1.4500122 0.5899658 -2.8200073 -0.0500488 -4.1199951 c -0.079834 -0.144104 -0.166626 -0.2842407 -0.2600098 -0.4199829 l -1 0.4599609 c -1.2949219 0.7894897 -2.7578735 1.2623291 -4.2699585 1.3800049 c -0.3355103 0.0036621 -0.6705322 -0.0264893 -1 -0.0899658 c -0.6300659 -0.1235352 -1.2394409 -0.3356323 -1.8099976 -0.6300049 h -0.0700073 v 0.0700073 C 74.4945068 74.760498 74.706665 75.3699341 74.8300171 76 c 0.3800049 1.9299927 -0.460022 3.6099854 -1.2800293 5.2299805 C 73.3599854 81.5999756 73.1699829 81.9699707 73 82.3499756 c 0.1416016 0.104126 0.2884521 0.2009277 0.4400024 0.2900391 c 1.3099976 0.6300049 2.6699829 0.3499756 4.1199951 0.0499878 C 79.2200317 82.3399658 81.0599976 82 83 83 C 81.9299927 81 82.3099976 79.2000122 82.6600342 77.539978 z" stroke-linecap="round"/>
</g>
		<g transform="matrix(1 0 0 1 69.0633 15.405)" id="202244">
<path style="stroke: none; stroke-width: 1; stroke-dasharray: none; stroke-linecap: butt; stroke-dashoffset: 0; stroke-linejoin: miter; stroke-miterlimit: 4; is-custom-font: none; font-file-url: none; fill: rgb(254,255,255); fill-rule: nonzero; opacity: 1;" transform=" translate(-89.01, -60.155)" d="M 92.0200195 57.5900269 c -0.460022 -1.4000244 -0.9000244 -2.7300415 -2.1000366 -3.5400391 c -0.1452637 -0.0975952 -0.2954712 -0.1877441 -0.4499512 -0.2700195 c -0.2400513 0.3100586 -0.460022 0.6600342 -0.6900024 1 c -0.9900513 1.5200195 -2.0200195 3.0900269 -3.8900146 3.7300415 C 84.2802734 58.7189941 83.6438599 58.8401489 83 58.8699951 c 0.5547485 0.3460693 1.0565796 0.7704468 1.4899902 1.2600098 C 85.789978 61.6199951 85.9000244 63.4899902 86 65.2999878 c 0 0.4100342 0 0.8300171 0.0499878 1.2299805 h 0.5700073 c 1.4500122 -0.0899658 2.4899902 -1 3.5900269 -2 l -0.0400391 -0.0099487 c 1.2700195 -1.1300049 2.6700439 -2.3800049 4.8500366 -2.3800049 C 93.1400146 60.9799805 92.5499878 59.2000122 92.0200195 57.5900269 z" stroke-linecap="round"/>
</g>
		<g transform="matrix(1 0 0 1 59.8333 21.5966)" id="868774">
<path style="stroke: none; stroke-width: 1; stroke-dasharray: none; stroke-linecap: butt; stroke-dashoffset: 0; stroke-linejoin: miter; stroke-miterlimit: 4; is-custom-font: none; font-file-url: none; fill: rgb(254,255,255); fill-rule: nonzero; opacity: 1;" transform=" translate(-79.78, -66.3466)" d="M 85.3599854 65.3300171 C 85.2600098 63.5100098 85.1600342 61.8499756 84 60.5100098 c -0.7626343 -0.859436 -1.7495117 -1.489624 -2.8499756 -1.8200073 l -0.5100098 -0.1400146 c -0.3948975 -0.0883179 -0.7961426 -0.1451416 -1.2000122 -0.1699829 c -1.3875122 4.8666382 -3.9611206 9.3128662 -7.4899902 12.9400024 c 0.9459839 1.4963989 2.4574585 2.5460815 4.1900024 2.9099731 C 77.8800049 74.5700073 79.4000244 73.8099976 81 73 c 1.8400269 -1 3.9000244 -2 6.6099854 -1.2999878 l -0.039978 -0.0100098 C 85.6300049 69.7299805 85.5 67.4199829 85.3599854 65.3300171 z" stroke-linecap="round"/>
</g>
		<g transform="matrix(1 0 0 1 -8.9317 15.37)" id="597152">
<path style="stroke: none; stroke-width: 1; stroke-dasharray: none; stroke-linecap: butt; stroke-dashoffset: 0; stroke-linejoin: miter; stroke-miterlimit: 4; is-custom-font: none; font-file-url: none; fill: rgb(254,255,255); fill-rule: nonzero; opacity: 1;" transform=" translate(-11.015, -60.12)" d="M 13.4199829 66.460022 h 0.5599976 c 0.0900269 -0.4100342 0.0900269 -0.8300171 0.0900269 -1.2400513 c 0.1099854 -1.8099976 0.210022 -3.6799927 1.5100098 -5.1699829 c 0.421875 -0.4830322 0.9100342 -0.9038696 1.4500122 -1.25 h -0.0100098 c -0.6439209 -0.0297852 -1.2802734 -0.151001 -1.8900146 -0.3599854 c -1.8900146 -0.6400146 -2.8900146 -2.210022 -3.8900146 -3.7299805 c -0.2199707 -0.3099976 -0.4500122 -0.6600342 -0.6900024 -1 c -0.154541 0.0821533 -0.3047485 0.1723022 -0.4500122 0.2699585 C 8.9000244 54.789978 8.460022 56.1199951 8 57.5200195 c -0.539978 1.6099854 -1.1300049 3.3899536 -3 4.5499878 c 2.1599731 0.0700073 3.5599976 1.3200073 4.8300171 2.4599609 c 1.0999756 1 2.1399536 1.9000244 3.5899658 2 V 66.460022 z" stroke-linecap="round"/>
</g>
		<g transform="matrix(1 0 0 1 -8.9717 -4.91)" id="944395">
<path style="stroke: none; stroke-width: 1; stroke-dasharray: none; stroke-linecap: butt; stroke-dashoffset: 0; stroke-linejoin: miter; stroke-miterlimit: 4; is-custom-font: none; font-file-url: none; fill: rgb(254,255,255); fill-rule: nonzero; opacity: 1;" transform=" translate(-10.975, -39.84)" d="M 7.9500122 42.460022 C 8.4099731 43.8599854 8.8499756 45.1900024 10.0499878 46 c 0.1561279 0.081543 0.3163452 0.1549683 0.4800415 0.2199707 c 0.2399902 -0.3099976 0.4599609 -0.6599731 0.6899414 -1 c 0.9900513 -1.5199585 2.0200195 -3.0899658 3.8900146 -3.7299805 C 15.7197266 41.2808838 16.3560791 41.159668 17 41.1300049 c -0.5474243 -0.3479614 -1.0424194 -0.7722168 -1.4699707 -1.2600098 c -1.3000488 -1.4899902 -1.4100342 -3.3599854 -1.5100098 -5.1699829 c -0.0300293 -0.4100342 -0.0900269 -0.8300171 -0.0900269 -1.2399902 h -0.5299683 c -1.4500122 0.0899658 -2.4900513 1 -3.5900269 2 c -1.2600098 1.1300049 -2.6599731 2.3800049 -4.8599854 2.4499512 C 6.8300171 39.0700073 7.4199829 40.8499756 7.9500122 42.460022 z" stroke-linecap="round"/>
</g>
		<g transform="matrix(1 0 0 1 0.2733 -11.0966)" id="732671">
<path style="stroke: none; stroke-width: 1; stroke-dasharray: none; stroke-linecap: butt; stroke-dashoffset: 0; stroke-linejoin: miter; stroke-miterlimit: 4; is-custom-font: none; font-file-url: none; fill: rgb(254,255,255); fill-rule: nonzero; opacity: 1;" transform=" translate(-20.22, -33.6534)" d="M 14.6400146 34.6699829 C 14.7399902 36.4899902 14.8400269 38.1500244 16 39.4899902 c 0.7626953 0.859436 1.7495117 1.489624 2.8499756 1.8200073 l 0.5100098 0.1400146 c 0.3948975 0.0883789 0.7961426 0.1452026 1.2000122 0.1699829 c 1.3875122 -4.8666382 3.9611206 -9.3128662 7.4899902 -12.9400024 c -0.9459839 -1.4963989 -2.4574585 -2.5460815 -4.1900024 -2.9099731 C 22.1099854 25.4299927 20.5999756 26.1900024 19 27 c -1.8400269 1 -3.9000244 2 -6.6099854 1.2999878 l 0.039978 0.0100098 C 14.3699951 30.2700195 14.5 32.5800171 14.6400146 34.6699829 z" stroke-linecap="round"/>
</g>
		<g transform="matrix(1 0 0 1 2.0633 -22.7595)" id="645952">
<path style="stroke: none; stroke-width: 1; stroke-dasharray: none; stroke-linecap: butt; stroke-dashoffset: 0; stroke-linejoin: miter; stroke-miterlimit: 4; is-custom-font: none; font-file-url: none; fill: rgb(254,255,255); fill-rule: nonzero; opacity: 1;" transform=" translate(-22.01, -21.9906)" d="M 17.3400269 22.460022 C 17.039978 23.9099731 16.75 25.2800293 17.3900146 26.5800171 c 0.079834 0.144104 0.166626 0.2842407 0.2600098 0.4199829 l 1.1199951 -0.5 C 20.3900146 25.6900024 22.0599976 24.8400269 24 25.2199707 c 0.6094971 0.1287842 1.1983032 0.3407593 1.75 0.6300049 h 0.0700073 v -0.0700073 c -0.2945557 -0.5704956 -0.5066528 -1.1798706 -0.6300049 -1.8099976 c -0.3800049 -1.9299927 0.460022 -3.6099854 1.2800293 -5.2299805 C 26.6599731 18.3699951 26.8499756 18 27.0200195 17.6199951 c -0.1488037 -0.0945435 -0.3023071 -0.1813354 -0.460022 -0.2600098 c -1.3099976 -0.6300049 -2.6699829 -0.3499756 -4.1199951 -0.0499878 C 20.7800293 17.6599731 18.9400024 18 17 17 C 18.0700073 19 17.6900024 20.7999878 17.3400269 22.460022 z" stroke-linecap="round"/>
</g>
		<g transform="matrix(1 0 0 1 2.0688 33.25)" id="378774">
<path style="stroke: none; stroke-width: 1; stroke-dasharray: none; stroke-linecap: butt; stroke-dashoffset: 0; stroke-linejoin: miter; stroke-miterlimit: 4; is-custom-font: none; font-file-url: none; fill: rgb(254,255,255); fill-rule: nonzero; opacity: 1;" transform=" translate(-22.0155, -78)" d="M 25.2199707 76 c 0.1356201 -0.6213379 0.3577881 -1.22052 0.6600342 -1.7799683 v -0.0700073 h -0.0700073 C 25.2394409 74.444397 24.6300659 74.6564941 24 74.7800293 c -0.3294678 0.0634766 -0.6644897 0.0936279 -1 0.0899658 c -1.4932861 -0.105957 -2.9414673 -0.5578613 -4.2299805 -1.3200073 L 17.6500244 73 c -0.104187 0.1416016 -0.2009888 0.2884521 -0.2900391 0.4400024 c -0.6300049 1.3099976 -0.3499756 2.6699829 -0.0499878 4.1199951 C 17.6599731 79.2199707 18 81.0599976 17 83 c 2 -1.0700073 3.8099976 -0.6799927 5.460022 -0.3400269 c 1.4499512 0.3000488 2.8200073 0.5900269 4.1199951 -0.0499878 c 0.1610718 -0.0783691 0.3179932 -0.1651611 0.4699707 -0.2600098 c -0.1799927 -0.3800049 -0.3599854 -0.75 -0.5499878 -1.1199951 C 25.6900024 79.6099854 24.8400269 77.9400024 25.2199707 76 z" stroke-linecap="round"/>
</g>
		<g transform="matrix(1 0 0 1 13.7117 35.03)" id="748921">
<path style="stroke: none; stroke-width: 1; stroke-dasharray: none; stroke-linecap: butt; stroke-dashoffset: 0; stroke-linejoin: miter; stroke-miterlimit: 4; is-custom-font: none; font-file-url: none; fill: rgb(254,255,255); fill-rule: nonzero; opacity: 1;" transform=" translate(-33.6584, -79.78)" d="M 39.4899902 84 c 1.2935791 -1.1733398 2.0641479 -2.8152466 2.1400146 -4.5599976 c -4.8702393 -1.3859863 -9.3200073 -3.9597168 -12.9500122 -7.4899902 c -1.4963989 0.9459839 -2.5460815 2.4574585 -2.9099731 4.1900024 C 25.4299927 77.8800049 26.1900024 79.4000244 27 81 c 1 1.8399658 2 3.9000244 1.2999878 6.6099854 l 0.0100098 -0.039978 c 1.960022 -1.9400024 4.2700195 -2.0700073 6.3599854 -2.210022 C 36.4899902 85.2600098 38.1500244 85.1599731 39.4899902 84 z" stroke-linecap="round"/>
</g>
		<g transform="matrix(1 0 0 1 0.2933 21.5616)" id="856583">
<path style="stroke: none; stroke-width: 1; stroke-dasharray: none; stroke-linecap: butt; stroke-dashoffset: 0; stroke-linejoin: miter; stroke-miterlimit: 4; is-custom-font: none; font-file-url: none; fill: rgb(254,255,255); fill-rule: nonzero; opacity: 1;" transform=" translate(-20.24, -66.3116)" d="M 23.8599854 74.2000122 c 1.1478271 -0.2237549 2.2088013 -0.7681274 3.0599976 -1.5700073 c 0.1333618 -0.1400146 0.2666626 -0.2733154 0.4000244 -0.4000244 c 0.270813 -0.2935181 0.5182495 -0.6077881 0.7399902 -0.9400024 c -3.5303345 -3.6299438 -6.1040039 -8.0797729 -7.4899902 -12.9499512 c -1.7633057 0.072998 -3.4222412 0.8555908 -4.6000366 2.1699829 c -1.1599731 1.3399658 -1.2599487 3.0299683 -1.3599854 4.8200073 c -0.1199951 2.0899658 -0.25 4.3599854 -2.1900024 6.3599854 h 0.0100098 C 15.0999756 71 17.1599731 72 19 72.9699707 C 20.6099854 73.7800293 22.1199951 74.539978 23.8599854 74.2000122 z" stroke-linecap="round"/>
</g>
		<g transform="matrix(1 0 0 1 65.7883 -24.8)" id="240930">
<rect style="stroke: none; stroke-width: 1; stroke-dasharray: none; stroke-linecap: butt; stroke-dashoffset: 0; stroke-linejoin: miter; stroke-miterlimit: 4; is-custom-font: none; font-file-url: none; fill: rgb(253,254,254); fill-opacity: 0; fill-rule: evenodd; opacity: 1;" x="-47.79165" y="-0.5" rx="0" ry="0" width="95.5833" height="1"/>
</g>
</g>
</g>
</g>
</g>
</svg>