<svg xmlns="http://www.w3.org/2000/svg" xmlns:xlink="http://www.w3.org/1999/xlink" version="1.1" xml:space="preserve" viewBox="0 0 523.98 116.23">
<desc>Created with Fabric.js 3.5.0</desc>
<defs>
</defs>

<g transform="matrix(1 0 0 1 269.4843 75.4544)" id="635985">
<g style="">
		<g transform="matrix(0.7324 0 0 0.7324 -153.3382 29.8184)" id="698516">
<path style="stroke: rgb(237,237,237); stroke-width: 0; stroke-dasharray: none; stroke-linecap: butt; stroke-dashoffset: 0; stroke-linejoin: miter; stroke-miterlimit: 2; is-custom-font: none; font-file-url: none; fill: rgb(237,237,237); fill-rule: nonzero; opacity: 1;" transform=" translate(-302.6355, 8.56)" d="m 303.7235 -17.44 q 2.72 0 4.384 0.864 q 1.664 0.832 1.664 2.24 q 0 0.704 -0.416 1.248 q -0.416 0.512 -1.088 0.512 q -0.512 0 -0.832 -0.128 q -0.32 -0.16 -0.64 -0.384 q -0.288 -0.256 -0.576 -0.416 q -0.32 -0.16 -0.96 -0.288 q -0.608 -0.128 -0.992 -0.128 q -2.4 0 -3.776 1.504 q -1.344 1.472 -1.344 3.872 q 0 2.304 1.376 3.84 q 1.376 1.504 3.52 1.504 q 1.568 0 2.336 -0.384 q 0.192 -0.096 0.512 -0.32 q 0.352 -0.256 0.64 -0.384 q 0.288 -0.128 0.704 -0.128 q 0.8 0 1.248 0.512 q 0.48 0.512 0.48 1.312 q 0 0.768 -0.896 1.44 q -0.896 0.672 -2.368 1.088 q -1.472 0.384 -3.136 0.384 q -2.464 0 -4.352 -1.152 q -1.856 -1.152 -2.88 -3.168 q -1.024 -2.048 -1.024 -4.544 q 0 -2.592 1.056 -4.608 q 1.088 -2.016 3.008 -3.136 q 1.92 -1.152 4.352 -1.152 z" stroke-linecap="round"/>
</g>
		<g transform="matrix(0.7324 0 0 0.7324 -140.2454 29.8184)" id="93112">
<path style="stroke: rgb(237,237,237); stroke-width: 0; stroke-dasharray: none; stroke-linecap: butt; stroke-dashoffset: 0; stroke-linejoin: miter; stroke-miterlimit: 2; is-custom-font: none; font-file-url: none; fill: rgb(237,237,237); fill-rule: nonzero; opacity: 1;" transform=" translate(-320.5115, 8.56)" d="m 329.2155 -8.544 q 0 2.56 -1.152 4.608 q -1.152 2.016 -3.168 3.136 q -1.984 1.12 -4.384 1.12 q -2.432 0 -4.416 -1.12 q -1.984 -1.12 -3.136 -3.136 q -1.152 -2.048 -1.152 -4.608 q 0 -2.56 1.152 -4.576 q 1.152 -2.048 3.136 -3.168 q 1.984 -1.152 4.416 -1.152 q 2.4 0 4.384 1.152 q 2.016 1.12 3.168 3.168 q 1.152 2.016 1.152 4.576 z m -3.84 0 q 0 -1.568 -0.672 -2.784 q -0.64 -1.248 -1.76 -1.92 q -1.088 -0.672 -2.432 -0.672 q -1.344 0 -2.464 0.672 q -1.088 0.672 -1.76 1.92 q -0.64 1.216 -0.64 2.784 q 0 1.568 0.64 2.784 q 0.672 1.216 1.76 1.888 q 1.12 0.672 2.464 0.672 q 1.344 0 2.432 -0.672 q 1.12 -0.672 1.76 -1.888 q 0.672 -1.216 0.672 -2.784 z" stroke-linecap="round"/>
</g>
		<g transform="matrix(0.7324 0 0 0.7324 -126.0825 29.7012)" id="100411">
<path style="stroke: rgb(237,237,237); stroke-width: 0; stroke-dasharray: none; stroke-linecap: butt; stroke-dashoffset: 0; stroke-linejoin: miter; stroke-miterlimit: 2; is-custom-font: none; font-file-url: none; fill: rgb(237,237,237); fill-rule: nonzero; opacity: 1;" transform=" translate(-339.8485, 8.72)" d="m 341.5445 -17.44 q 3.264 0 4.512 1.952 q 1.248 1.92 1.248 5.344 v 8.192 q 0 0.832 -0.544 1.408 q -0.544 0.544 -1.376 0.544 q -0.832 0 -1.376 -0.544 q -0.544 -0.576 -0.544 -1.408 v -8.192 q 0 -1.76 -0.736 -2.752 q -0.736 -1.024 -2.528 -1.024 q -1.856 0 -2.912 1.088 q -1.056 1.056 -1.056 2.688 v 8.192 q 0 0.832 -0.544 1.408 q -0.544 0.544 -1.376 0.544 q -0.832 0 -1.376 -0.544 q -0.544 -0.576 -0.544 -1.408 v -13.216 q 0 -0.832 0.544 -1.376 q 0.544 -0.576 1.376 -0.576 q 0.832 0 1.376 0.576 q 0.544 0.544 0.544 1.376 v 0.544 q 0.864 -1.152 2.24 -1.984 q 1.408 -0.832 3.072 -0.832 z" stroke-linecap="round"/>
</g>
		<g transform="matrix(0.7324 0 0 0.7324 -112.1207 29.7012)" id="916895">
<path style="stroke: rgb(237,237,237); stroke-width: 0; stroke-dasharray: none; stroke-linecap: butt; stroke-dashoffset: 0; stroke-linejoin: miter; stroke-miterlimit: 2; is-custom-font: none; font-file-url: none; fill: rgb(237,237,237); fill-rule: nonzero; opacity: 1;" transform=" translate(-358.911, 8.72)" d="m 360.607 -17.44 q 3.264 0 4.512 1.952 q 1.248 1.92 1.248 5.344 v 8.192 q 0 0.832 -0.544 1.408 Q 365.279 0 364.447 0 q -0.832 0 -1.376 -0.544 q -0.544 -0.576 -0.544 -1.408 v -8.192 q 0 -1.76 -0.736 -2.752 q -0.736 -1.024 -2.528 -1.024 q -1.856 0 -2.912 1.088 q -1.056 1.056 -1.056 2.688 v 8.192 q 0 0.832 -0.544 1.408 Q 354.207 0 353.375 0 q -0.832 0 -1.376 -0.544 q -0.544 -0.576 -0.544 -1.408 v -13.216 q 0 -0.832 0.544 -1.376 q 0.544 -0.576 1.376 -0.576 q 0.832 0 1.376 0.576 q 0.544 0.544 0.544 1.376 v 0.544 q 0.864 -1.152 2.24 -1.984 q 1.408 -0.832 3.072 -0.832 z" stroke-linecap="round"/>
</g>
		<g transform="matrix(0.7324 0 0 0.7324 -98.3464 29.8184)" id="448495">
<path style="stroke: rgb(237,237,237); stroke-width: 0; stroke-dasharray: none; stroke-linecap: butt; stroke-dashoffset: 0; stroke-linejoin: miter; stroke-miterlimit: 2; is-custom-font: none; font-file-url: none; fill: rgb(237,237,237); fill-rule: nonzero; opacity: 1;" transform=" translate(-377.7175, 8.56)" d="m 385.8775 -8.96 q -0.032 0.768 -0.608 1.248 q -0.576 0.48 -1.344 0.48 h -10.56 q 0.384 1.888 1.76 2.976 q 1.376 1.056 3.104 1.056 q 1.312 0 2.048 -0.224 q 0.736 -0.256 1.152 -0.512 q 0.448 -0.288 0.608 -0.384 q 0.576 -0.288 1.088 -0.288 q 0.672 0 1.152 0.48 q 0.48 0.48 0.48 1.12 q 0 0.864 -0.896 1.568 q -0.896 0.736 -2.4 1.248 q -1.504 0.512 -3.04 0.512 q -2.688 0 -4.704 -1.12 q -1.984 -1.12 -3.072 -3.072 q -1.088 -1.984 -1.088 -4.448 q 0 -2.752 1.152 -4.832 q 1.152 -2.08 3.04 -3.168 q 1.888 -1.12 4.032 -1.12 q 2.112 0 3.968 1.152 q 1.888 1.152 3.008 3.104 q 1.12 1.952 1.12 4.224 z m -8.096 -4.96 q -3.712 0 -4.384 3.488 h 8.384 v -0.224 q -0.128 -1.344 -1.312 -2.304 q -1.184 -0.96 -2.688 -0.96 z" stroke-linecap="round"/>
</g>
		<g transform="matrix(0.7324 0 0 0.7324 -85.3603 29.8184)" id="259873">
<path style="stroke: rgb(237,237,237); stroke-width: 0; stroke-dasharray: none; stroke-linecap: butt; stroke-dashoffset: 0; stroke-linejoin: miter; stroke-miterlimit: 2; is-custom-font: none; font-file-url: none; fill: rgb(237,237,237); fill-rule: nonzero; opacity: 1;" transform=" translate(-395.448, 8.56)" d="m 396.536 -17.44 q 2.72 0 4.384 0.864 q 1.664 0.832 1.664 2.24 q 0 0.704 -0.416 1.248 q -0.416 0.512 -1.088 0.512 q -0.512 0 -0.832 -0.128 q -0.32 -0.16 -0.64 -0.384 q -0.288 -0.256 -0.576 -0.416 q -0.32 -0.16 -0.96 -0.288 q -0.608 -0.128 -0.992 -0.128 q -2.4 0 -3.776 1.504 q -1.344 1.472 -1.344 3.872 q 0 2.304 1.376 3.84 q 1.376 1.504 3.52 1.504 q 1.568 0 2.336 -0.384 q 0.192 -0.096 0.512 -0.32 q 0.352 -0.256 0.64 -0.384 q 0.288 -0.128 0.704 -0.128 q 0.8 0 1.248 0.512 q 0.48 0.512 0.48 1.312 q 0 0.768 -0.896 1.44 q -0.896 0.672 -2.368 1.088 q -1.472 0.384 -3.136 0.384 q -2.464 0 -4.352 -1.152 q -1.856 -1.152 -2.88 -3.168 q -1.024 -2.048 -1.024 -4.544 q 0 -2.592 1.056 -4.608 q 1.088 -2.016 3.008 -3.136 q 1.92 -1.152 4.352 -1.152 z" stroke-linecap="round"/>
</g>
		<g transform="matrix(0.7324 0 0 0.7324 -75.0214 28.4707)" id="382073">
<path style="stroke: rgb(237,237,237); stroke-width: 0; stroke-dasharray: none; stroke-linecap: butt; stroke-dashoffset: 0; stroke-linejoin: miter; stroke-miterlimit: 2; is-custom-font: none; font-file-url: none; fill: rgb(237,237,237); fill-rule: nonzero; opacity: 1;" transform=" translate(-409.564, 10.4)" d="m 413.836 -3.616 q 0.448 0 0.8 0.448 q 0.384 0.416 0.384 1.12 q 0 0.864 -0.96 1.472 Q 413.132 0 411.948 0 q -1.984 0 -3.36 -0.832 q -1.344 -0.864 -1.344 -3.616 v -8.832 h -1.472 q -0.768 0 -1.28 -0.512 q -0.512 -0.512 -0.512 -1.28 q 0 -0.736 0.512 -1.216 q 0.512 -0.512 1.28 -0.512 h 1.472 v -2.048 q 0 -0.832 0.544 -1.376 q 0.576 -0.576 1.408 -0.576 q 0.8 0 1.344 0.576 q 0.544 0.544 0.544 1.376 v 2.048 h 2.272 q 0.768 0 1.28 0.512 q 0.512 0.512 0.512 1.28 q 0 0.736 -0.512 1.248 q -0.512 0.48 -1.28 0.48 h -2.272 v 8.672 q 0 0.672 0.352 0.992 q 0.352 0.288 0.96 0.288 q 0.256 0 0.704 -0.128 q 0.384 -0.16 0.736 -0.16 z" stroke-linecap="round"/>
</g>
		<g transform="matrix(0.7324 0 0 0.7324 -67.1298 27.662)" id="852782">
<path style="stroke: rgb(237,237,237); stroke-width: 0; stroke-dasharray: none; stroke-linecap: butt; stroke-dashoffset: 0; stroke-linejoin: miter; stroke-miterlimit: 2; is-custom-font: none; font-file-url: none; fill: rgb(237,237,237); fill-rule: nonzero; opacity: 1;" transform=" translate(-420.3385, 11.504)" d="m 422.2585 -1.952 q 0 0.832 -0.544 1.408 q -0.544 0.544 -1.376 0.544 q -0.832 0 -1.376 -0.544 q -0.544 -0.576 -0.544 -1.408 v -13.216 q 0 -0.832 0.544 -1.376 q 0.544 -0.576 1.376 -0.576 q 0.832 0 1.376 0.576 q 0.544 0.544 0.544 1.376 z m -1.952 -17.248 q -1.088 0 -1.536 -0.352 q -0.448 -0.352 -0.448 -1.248 v -0.608 q 0 -0.896 0.48 -1.248 q 0.48 -0.352 1.536 -0.352 q 1.12 0 1.568 0.352 q 0.448 0.352 0.448 1.248 v 0.608 q 0 0.928 -0.48 1.28 q -0.448 0.32 -1.568 0.32 z" stroke-linecap="round"/>
</g>
		<g transform="matrix(0.7324 0 0 0.7324 -57.3722 29.7012)" id="856561">
<path style="stroke: rgb(237,237,237); stroke-width: 0; stroke-dasharray: none; stroke-linecap: butt; stroke-dashoffset: 0; stroke-linejoin: miter; stroke-miterlimit: 2; is-custom-font: none; font-file-url: none; fill: rgb(237,237,237); fill-rule: nonzero; opacity: 1;" transform=" translate(-433.661, 8.72)" d="m 435.357 -17.44 q 3.264 0 4.512 1.952 q 1.248 1.92 1.248 5.344 v 8.192 q 0 0.832 -0.544 1.408 Q 440.029 0 439.197 0 q -0.832 0 -1.376 -0.544 q -0.544 -0.576 -0.544 -1.408 v -8.192 q 0 -1.76 -0.736 -2.752 q -0.736 -1.024 -2.528 -1.024 q -1.856 0 -2.912 1.088 q -1.056 1.056 -1.056 2.688 v 8.192 q 0 0.832 -0.544 1.408 Q 428.957 0 428.125 0 q -0.832 0 -1.376 -0.544 q -0.544 -0.576 -0.544 -1.408 v -13.216 q 0 -0.832 0.544 -1.376 q 0.544 -0.576 1.376 -0.576 q 0.832 0 1.376 0.576 q 0.544 0.544 0.544 1.376 v 0.544 q 0.864 -1.152 2.24 -1.984 q 1.408 -0.832 3.072 -0.832 z" stroke-linecap="round"/>
</g>
		<g transform="matrix(0.7324 0 0 0.7324 -43.3284 32.0449)" id="369231">
<path style="stroke: rgb(237,237,237); stroke-width: 0; stroke-dasharray: none; stroke-linecap: butt; stroke-dashoffset: 0; stroke-linejoin: miter; stroke-miterlimit: 2; is-custom-font: none; font-file-url: none; fill: rgb(237,237,237); fill-rule: nonzero; opacity: 1;" transform=" translate(-452.8355, 5.52)" d="m 459.4435 -17.44 q 0.832 0 1.376 0.544 q 0.544 0.544 0.544 1.408 v 14.24 q 0 3.904 -2.432 5.76 q -2.4 1.888 -6.112 1.888 q -0.96 0 -2.656 -0.32 q -1.664 -0.32 -2.368 -0.64 q -1.568 -0.672 -1.568 -1.856 q 0 -0.224 0.096 -0.512 q 0.192 -0.704 0.64 -1.088 q 0.48 -0.352 1.024 -0.352 q 0.32 0 0.608 0.096 q 0.128 0.032 1.568 0.576 q 1.472 0.576 2.656 0.576 q 2.368 0 3.52 -0.96 q 1.184 -0.928 1.184 -2.656 v -1.536 q -0.704 0.992 -2.144 1.792 q -1.408 0.8 -3.04 0.8 q -2.24 0 -4.096 -1.12 q -1.824 -1.152 -2.88 -3.168 q -1.056 -2.016 -1.056 -4.576 q 0 -2.56 1.024 -4.576 q 1.056 -2.048 2.848 -3.168 q 1.824 -1.152 4.032 -1.152 q 1.632 0 3.04 0.672 q 1.408 0.672 2.272 1.632 v -0.352 q 0 -0.832 0.544 -1.376 q 0.544 -0.576 1.376 -0.576 z m -6.624 14.24 q 2.144 0 3.488 -1.504 q 1.376 -1.536 1.376 -3.84 q 0 -2.304 -1.376 -3.84 q -1.344 -1.536 -3.488 -1.536 q -2.144 0 -3.488 1.536 q -1.344 1.536 -1.344 3.84 q 0 2.304 1.344 3.84 q 1.344 1.504 3.488 1.504 z" stroke-linecap="round"/>
</g>
		<g transform="matrix(0.7324 0 0 0.7324 -22.1383 32.162)" id="887372">
<path style="stroke: rgb(237,237,237); stroke-width: 0; stroke-dasharray: none; stroke-linecap: butt; stroke-dashoffset: 0; stroke-linejoin: miter; stroke-miterlimit: 2; is-custom-font: none; font-file-url: none; fill: rgb(237,237,237); fill-rule: nonzero; opacity: 1;" transform=" translate(-481.767, 5.36)" d="m 487.159 -17.12 q 0.832 0 1.376 0.576 q 0.544 0.544 0.544 1.376 v 13.6 q 0 4.16 -2.24 6.048 q -2.24 1.92 -5.984 1.92 q -1.088 0 -2.24 -0.192 q -1.12 -0.16 -1.824 -0.448 q -1.568 -0.672 -1.568 -1.856 q 0 -0.224 0.096 -0.512 q 0.192 -0.704 0.64 -1.088 q 0.48 -0.352 1.024 -0.352 q 0.32 0 0.608 0.096 q 0.224 0.096 0.768 0.32 q 0.576 0.224 1.184 0.352 q 0.64 0.16 1.312 0.16 q 2.272 0 3.328 -0.992 q 1.088 -0.96 1.088 -3.328 v -0.32 q -1.664 2.08 -5.184 2.08 q -1.664 0 -2.944 -0.768 q -1.28 -0.8 -1.984 -2.176 q -0.704 -1.408 -0.704 -3.2 v -9.344 q 0 -0.832 0.544 -1.376 q 0.544 -0.576 1.376 -0.576 q 0.832 0 1.376 0.576 q 0.544 0.544 0.544 1.376 v 8.192 q 0 2.016 0.864 2.912 q 0.896 0.864 2.592 0.864 q 1.664 0 2.56 -0.96 q 0.928 -0.992 0.928 -2.816 v -8.192 q 0 -0.832 0.544 -1.376 q 0.544 -0.576 1.376 -0.576 z" stroke-linecap="round"/>
</g>
		<g transform="matrix(0.7324 0 0 0.7324 -8.1806 29.8184)" id="579796">
<path style="stroke: rgb(237,237,237); stroke-width: 0; stroke-dasharray: none; stroke-linecap: butt; stroke-dashoffset: 0; stroke-linejoin: miter; stroke-miterlimit: 2; is-custom-font: none; font-file-url: none; fill: rgb(237,237,237); fill-rule: nonzero; opacity: 1;" transform=" translate(-500.824, 8.56)" d="m 509.528 -8.544 q 0 2.56 -1.152 4.608 q -1.152 2.016 -3.168 3.136 q -1.984 1.12 -4.384 1.12 q -2.432 0 -4.416 -1.12 q -1.984 -1.12 -3.136 -3.136 q -1.152 -2.048 -1.152 -4.608 q 0 -2.56 1.152 -4.576 q 1.152 -2.048 3.136 -3.168 q 1.984 -1.152 4.416 -1.152 q 2.4 0 4.384 1.152 q 2.016 1.12 3.168 3.168 q 1.152 2.016 1.152 4.576 z m -3.84 0 q 0 -1.568 -0.672 -2.784 q -0.64 -1.248 -1.76 -1.92 q -1.088 -0.672 -2.432 -0.672 q -1.344 0 -2.464 0.672 q -1.088 0.672 -1.76 1.92 q -0.64 1.216 -0.64 2.784 q 0 1.568 0.64 2.784 q 0.672 1.216 1.76 1.888 q 1.12 0.672 2.464 0.672 q 1.344 0 2.432 -0.672 q 1.12 -0.672 1.76 -1.888 q 0.672 -1.216 0.672 -2.784 z" stroke-linecap="round"/>
</g>
		<g transform="matrix(0.7324 0 0 0.7324 5.8768 29.9355)" id="293889">
<path style="stroke: rgb(237,237,237); stroke-width: 0; stroke-dasharray: none; stroke-linecap: butt; stroke-dashoffset: 0; stroke-linejoin: miter; stroke-miterlimit: 2; is-custom-font: none; font-file-url: none; fill: rgb(237,237,237); fill-rule: nonzero; opacity: 1;" transform=" translate(-520.017, 8.4)" d="m 525.409 -17.12 q 0.832 0 1.376 0.576 q 0.544 0.544 0.544 1.376 v 8.128 q 0 3.456 -1.92 5.408 q -1.888 1.952 -5.408 1.952 q -3.52 0 -5.408 -1.952 q -1.888 -1.952 -1.888 -5.408 v -8.128 q 0 -0.832 0.544 -1.376 q 0.544 -0.576 1.376 -0.576 q 0.832 0 1.376 0.576 q 0.544 0.544 0.544 1.376 v 8.128 q 0 1.952 0.864 2.912 q 0.864 0.928 2.592 0.928 q 1.76 0 2.624 -0.928 q 0.864 -0.96 0.864 -2.912 v -8.128 q 0 -0.832 0.544 -1.376 q 0.544 -0.576 1.376 -0.576 z" stroke-linecap="round"/>
</g>
		<g transform="matrix(0.7324 0 0 0.7324 23.764 28.4707)" id="270973">
<path style="stroke: rgb(237,237,237); stroke-width: 0; stroke-dasharray: none; stroke-linecap: butt; stroke-dashoffset: 0; stroke-linejoin: miter; stroke-miterlimit: 2; is-custom-font: none; font-file-url: none; fill: rgb(237,237,237); fill-rule: nonzero; opacity: 1;" transform=" translate(-544.439, 10.4)" d="m 548.711 -3.616 q 0.448 0 0.8 0.448 q 0.384 0.416 0.384 1.12 q 0 0.864 -0.96 1.472 Q 548.007 0 546.823 0 q -1.984 0 -3.36 -0.832 q -1.344 -0.864 -1.344 -3.616 v -8.832 h -1.472 q -0.768 0 -1.28 -0.512 q -0.512 -0.512 -0.512 -1.28 q 0 -0.736 0.512 -1.216 q 0.512 -0.512 1.28 -0.512 h 1.472 v -2.048 q 0 -0.832 0.544 -1.376 q 0.576 -0.576 1.408 -0.576 q 0.8 0 1.344 0.576 q 0.544 0.544 0.544 1.376 v 2.048 h 2.272 q 0.768 0 1.28 0.512 q 0.512 0.512 0.512 1.28 q 0 0.736 -0.512 1.248 q -0.512 0.48 -1.28 0.48 h -2.272 v 8.672 q 0 0.672 0.352 0.992 q 0.352 0.288 0.96 0.288 q 0.256 0 0.704 -0.128 q 0.384 -0.16 0.736 -0.16 z" stroke-linecap="round"/>
</g>
		<g transform="matrix(0.7324 0 0 0.7324 35.9478 29.8184)" id="366297">
<path style="stroke: rgb(237,237,237); stroke-width: 0; stroke-dasharray: none; stroke-linecap: butt; stroke-dashoffset: 0; stroke-linejoin: miter; stroke-miterlimit: 2; is-custom-font: none; font-file-url: none; fill: rgb(237,237,237); fill-rule: nonzero; opacity: 1;" transform=" translate(-561.074, 8.56)" d="m 569.778 -8.544 q 0 2.56 -1.152 4.608 q -1.152 2.016 -3.168 3.136 q -1.984 1.12 -4.384 1.12 q -2.432 0 -4.416 -1.12 q -1.984 -1.12 -3.136 -3.136 q -1.152 -2.048 -1.152 -4.608 q 0 -2.56 1.152 -4.576 q 1.152 -2.048 3.136 -3.168 q 1.984 -1.152 4.416 -1.152 q 2.4 0 4.384 1.152 q 2.016 1.12 3.168 3.168 q 1.152 2.016 1.152 4.576 z m -3.84 0 q 0 -1.568 -0.672 -2.784 q -0.64 -1.248 -1.76 -1.92 q -1.088 -0.672 -2.432 -0.672 q -1.344 0 -2.464 0.672 q -1.088 0.672 -1.76 1.92 q -0.64 1.216 -0.64 2.784 q 0 1.568 0.64 2.784 q 0.672 1.216 1.76 1.888 q 1.12 0.672 2.464 0.672 q 1.344 0 2.432 -0.672 q 1.12 -0.672 1.76 -1.888 q 0.672 -1.216 0.672 -2.784 z" stroke-linecap="round"/>
</g>
		<g transform="matrix(0.7324 0 0 0.7324 54.1138 28.4707)" id="355555">
<path style="stroke: rgb(237,237,237); stroke-width: 0; stroke-dasharray: none; stroke-linecap: butt; stroke-dashoffset: 0; stroke-linejoin: miter; stroke-miterlimit: 2; is-custom-font: none; font-file-url: none; fill: rgb(237,237,237); fill-rule: nonzero; opacity: 1;" transform=" translate(-585.8765, 10.4)" d="m 590.1485 -3.616 q 0.448 0 0.8 0.448 q 0.384 0.416 0.384 1.12 q 0 0.864 -0.96 1.472 q -0.928 0.576 -2.112 0.576 q -1.984 0 -3.36 -0.832 q -1.344 -0.864 -1.344 -3.616 v -8.832 h -1.472 q -0.768 0 -1.28 -0.512 q -0.512 -0.512 -0.512 -1.28 q 0 -0.736 0.512 -1.216 q 0.512 -0.512 1.28 -0.512 h 1.472 v -2.048 q 0 -0.832 0.544 -1.376 q 0.576 -0.576 1.408 -0.576 q 0.8 0 1.344 0.576 q 0.544 0.544 0.544 1.376 v 2.048 h 2.272 q 0.768 0 1.28 0.512 q 0.512 0.512 0.512 1.28 q 0 0.736 -0.512 1.248 q -0.512 0.48 -1.28 0.48 h -2.272 v 8.672 q 0 0.672 0.352 0.992 q 0.352 0.288 0.96 0.288 q 0.256 0 0.704 -0.128 q 0.384 -0.16 0.736 -0.16 z" stroke-linecap="round"/>
</g>
		<g transform="matrix(0.7324 0 0 0.7324 66.1068 27.4159)" id="70385">
<path style="stroke: rgb(237,237,237); stroke-width: 0; stroke-dasharray: none; stroke-linecap: butt; stroke-dashoffset: 0; stroke-linejoin: miter; stroke-miterlimit: 2; is-custom-font: none; font-file-url: none; fill: rgb(237,237,237); fill-rule: nonzero; opacity: 1;" transform=" translate(-602.251, 11.84)" d="m 603.947 -17.44 q 3.168 0 4.384 1.952 q 1.216 1.92 1.216 5.344 v 8.192 q 0 0.832 -0.544 1.408 Q 608.459 0 607.627 0 q -0.832 0 -1.376 -0.544 q -0.544 -0.576 -0.544 -1.408 v -8.192 q 0 -1.76 -0.704 -2.752 q -0.672 -1.024 -2.4 -1.024 q -1.792 0 -2.816 1.088 q -0.992 1.056 -0.992 2.688 v 8.192 q 0 0.832 -0.544 1.408 Q 597.707 0 596.875 0 q -0.832 0 -1.376 -0.544 q -0.544 -0.576 -0.544 -1.408 v -19.776 q 0 -0.832 0.544 -1.376 q 0.544 -0.576 1.376 -0.576 q 0.832 0 1.376 0.576 q 0.544 0.544 0.544 1.376 v 7.072 q 0.864 -1.152 2.176 -1.952 q 1.344 -0.832 2.976 -0.832 z" stroke-linecap="round"/>
</g>
		<g transform="matrix(0.7324 0 0 0.7324 79.7694 29.8184)" id="577609">
<path style="stroke: rgb(237,237,237); stroke-width: 0; stroke-dasharray: none; stroke-linecap: butt; stroke-dashoffset: 0; stroke-linejoin: miter; stroke-miterlimit: 2; is-custom-font: none; font-file-url: none; fill: rgb(237,237,237); fill-rule: nonzero; opacity: 1;" transform=" translate(-620.905, 8.56)" d="m 629.065 -8.96 q -0.032 0.768 -0.608 1.248 q -0.576 0.48 -1.344 0.48 h -10.56 q 0.384 1.888 1.76 2.976 q 1.376 1.056 3.104 1.056 q 1.312 0 2.048 -0.224 q 0.736 -0.256 1.152 -0.512 q 0.448 -0.288 0.608 -0.384 q 0.576 -0.288 1.088 -0.288 q 0.672 0 1.152 0.48 q 0.48 0.48 0.48 1.12 q 0 0.864 -0.896 1.568 q -0.896 0.736 -2.4 1.248 q -1.504 0.512 -3.04 0.512 q -2.688 0 -4.704 -1.12 q -1.984 -1.12 -3.072 -3.072 q -1.088 -1.984 -1.088 -4.448 q 0 -2.752 1.152 -4.832 q 1.152 -2.08 3.04 -3.168 q 1.888 -1.12 4.032 -1.12 q 2.112 0 3.968 1.152 q 1.888 1.152 3.008 3.104 q 1.12 1.952 1.12 4.224 z m -8.096 -4.96 q -3.712 0 -4.384 3.488 h 8.384 v -0.224 q -0.128 -1.344 -1.312 -2.304 q -1.184 -0.96 -2.688 -0.96 z" stroke-linecap="round"/>
</g>
		<g transform="matrix(0.7324 0 0 0.7324 100.0633 27.5331)" id="207243">
<path style="stroke: rgb(237,237,237); stroke-width: 0; stroke-dasharray: none; stroke-linecap: butt; stroke-dashoffset: 0; stroke-linejoin: miter; stroke-miterlimit: 2; is-custom-font: none; font-file-url: none; fill: rgb(237,237,237); fill-rule: nonzero; opacity: 1;" transform=" translate(-648.613, 11.68)" d="m 655.061 -23.68 q 0.832 0 1.376 0.544 q 0.544 0.544 0.544 1.408 v 19.776 q 0 0.832 -0.544 1.408 Q 655.893 0 655.061 0 q -0.832 0 -1.376 -0.544 q -0.512 -0.544 -0.544 -1.376 q -0.8 0.928 -2.176 1.6 q -1.344 0.64 -2.848 0.64 q -2.208 0 -4 -1.12 q -1.792 -1.152 -2.848 -3.168 q -1.024 -2.016 -1.024 -4.576 q 0 -2.56 1.024 -4.576 q 1.024 -2.048 2.784 -3.168 q 1.792 -1.152 3.936 -1.152 q 1.536 0 2.88 0.576 q 1.344 0.544 2.272 1.408 v -6.272 q 0 -0.832 0.544 -1.376 q 0.544 -0.576 1.376 -0.576 z m -6.464 20.48 q 2.08 0 3.392 -1.504 q 1.312 -1.536 1.312 -3.84 q 0 -2.304 -1.312 -3.84 q -1.312 -1.536 -3.392 -1.536 q -2.048 0 -3.36 1.536 q -1.312 1.536 -1.312 3.84 q 0 2.304 1.28 3.84 q 1.312 1.504 3.392 1.504 z" stroke-linecap="round"/>
</g>
		<g transform="matrix(0.7324 0 0 0.7324 110.4825 27.662)" id="927049">
<path style="stroke: rgb(237,237,237); stroke-width: 0; stroke-dasharray: none; stroke-linecap: butt; stroke-dashoffset: 0; stroke-linejoin: miter; stroke-miterlimit: 2; is-custom-font: none; font-file-url: none; fill: rgb(237,237,237); fill-rule: nonzero; opacity: 1;" transform=" translate(-662.8385, 11.504)" d="m 664.7585 -1.952 q 0 0.832 -0.544 1.408 q -0.544 0.544 -1.376 0.544 q -0.832 0 -1.376 -0.544 q -0.544 -0.576 -0.544 -1.408 v -13.216 q 0 -0.832 0.544 -1.376 q 0.544 -0.576 1.376 -0.576 q 0.832 0 1.376 0.576 q 0.544 0.544 0.544 1.376 z m -1.952 -17.248 q -1.088 0 -1.536 -0.352 q -0.448 -0.352 -0.448 -1.248 v -0.608 q 0 -0.896 0.48 -1.248 q 0.48 -0.352 1.536 -0.352 q 1.12 0 1.568 0.352 q 0.448 0.352 0.448 1.248 v 0.608 q 0 0.928 -0.48 1.28 q -0.448 0.32 -1.568 0.32 z" stroke-linecap="round"/>
</g>
		<g transform="matrix(0.7324 0 0 0.7324 119.8416 29.8301)" id="730736">
<path style="stroke: rgb(237,237,237); stroke-width: 0; stroke-dasharray: none; stroke-linecap: butt; stroke-dashoffset: 0; stroke-linejoin: miter; stroke-miterlimit: 2; is-custom-font: none; font-file-url: none; fill: rgb(237,237,237); fill-rule: nonzero; opacity: 1;" transform=" translate(-675.617, 8.544)" d="m 681.857 -17.088 q 0.768 0 1.28 0.512 q 0.512 0.48 0.512 1.216 q 0 0.384 -0.256 0.96 l -5.984 13.184 q -0.224 0.544 -0.672 0.864 q -0.416 0.32 -0.96 0.352 l -0.288 0.032 q -0.544 0 -1.024 -0.32 q -0.448 -0.352 -0.704 -0.928 L 667.809 -14.4 q -0.224 -0.512 -0.224 -1.024 q 0 -0.64 0.544 -1.152 q 0.544 -0.544 1.344 -0.544 q 0.608 0 1.12 0.32 q 0.512 0.32 0.768 0.896 l 4.416 10.112 l 4.384 -10.08 q 0.256 -0.608 0.704 -0.928 q 0.448 -0.32 0.992 -0.288 z" stroke-linecap="round"/>
</g>
		<g transform="matrix(0.7324 0 0 0.7324 129.205 27.662)" id="967506">
<path style="stroke: rgb(237,237,237); stroke-width: 0; stroke-dasharray: none; stroke-linecap: butt; stroke-dashoffset: 0; stroke-linejoin: miter; stroke-miterlimit: 2; is-custom-font: none; font-file-url: none; fill: rgb(237,237,237); fill-rule: nonzero; opacity: 1;" transform=" translate(-688.401, 11.504)" d="m 690.321 -1.952 q 0 0.832 -0.544 1.408 Q 689.233 0 688.401 0 q -0.832 0 -1.376 -0.544 q -0.544 -0.576 -0.544 -1.408 v -13.216 q 0 -0.832 0.544 -1.376 q 0.544 -0.576 1.376 -0.576 q 0.832 0 1.376 0.576 q 0.544 0.544 0.544 1.376 z M 688.369 -19.2 q -1.088 0 -1.536 -0.352 q -0.448 -0.352 -0.448 -1.248 v -0.608 q 0 -0.896 0.48 -1.248 q 0.48 -0.352 1.536 -0.352 q 1.12 0 1.568 0.352 q 0.448 0.352 0.448 1.248 v 0.608 q 0 0.928 -0.48 1.28 q -0.448 0.32 -1.568 0.32 z" stroke-linecap="round"/>
</g>
		<g transform="matrix(0.7324 0 0 0.7324 138.9627 29.7012)" id="481503">
<path style="stroke: rgb(237,237,237); stroke-width: 0; stroke-dasharray: none; stroke-linecap: butt; stroke-dashoffset: 0; stroke-linejoin: miter; stroke-miterlimit: 2; is-custom-font: none; font-file-url: none; fill: rgb(237,237,237); fill-rule: nonzero; opacity: 1;" transform=" translate(-701.7235, 8.72)" d="m 703.4195 -17.44 q 3.264 0 4.512 1.952 q 1.248 1.92 1.248 5.344 v 8.192 q 0 0.832 -0.544 1.408 q -0.544 0.544 -1.376 0.544 q -0.832 0 -1.376 -0.544 q -0.544 -0.576 -0.544 -1.408 v -8.192 q 0 -1.76 -0.736 -2.752 q -0.736 -1.024 -2.528 -1.024 q -1.856 0 -2.912 1.088 q -1.056 1.056 -1.056 2.688 v 8.192 q 0 0.832 -0.544 1.408 q -0.544 0.544 -1.376 0.544 q -0.832 0 -1.376 -0.544 q -0.544 -0.576 -0.544 -1.408 v -13.216 q 0 -0.832 0.544 -1.376 q 0.544 -0.576 1.376 -0.576 q 0.832 0 1.376 0.576 q 0.544 0.544 0.544 1.376 v 0.544 q 0.864 -1.152 2.24 -1.984 q 1.408 -0.832 3.072 -0.832 z" stroke-linecap="round"/>
</g>
		<g transform="matrix(0.7324 0 0 0.7324 152.7369 29.8184)" id="514560">
<path style="stroke: rgb(237,237,237); stroke-width: 0; stroke-dasharray: none; stroke-linecap: butt; stroke-dashoffset: 0; stroke-linejoin: miter; stroke-miterlimit: 2; is-custom-font: none; font-file-url: none; fill: rgb(237,237,237); fill-rule: nonzero; opacity: 1;" transform=" translate(-720.53, 8.56)" d="m 728.69 -8.96 q -0.032 0.768 -0.608 1.248 q -0.576 0.48 -1.344 0.48 h -10.56 q 0.384 1.888 1.76 2.976 q 1.376 1.056 3.104 1.056 q 1.312 0 2.048 -0.224 q 0.736 -0.256 1.152 -0.512 q 0.448 -0.288 0.608 -0.384 q 0.576 -0.288 1.088 -0.288 q 0.672 0 1.152 0.48 q 0.48 0.48 0.48 1.12 q 0 0.864 -0.896 1.568 q -0.896 0.736 -2.4 1.248 q -1.504 0.512 -3.04 0.512 q -2.688 0 -4.704 -1.12 q -1.984 -1.12 -3.072 -3.072 q -1.088 -1.984 -1.088 -4.448 q 0 -2.752 1.152 -4.832 q 1.152 -2.08 3.04 -3.168 q 1.888 -1.12 4.032 -1.12 q 2.112 0 3.968 1.152 q 1.888 1.152 3.008 3.104 q 1.12 1.952 1.12 4.224 z m -8.096 -4.96 q -3.712 0 -4.384 3.488 h 8.384 v -0.224 q -0.128 -1.344 -1.312 -2.304 q -1.184 -0.96 -2.688 -0.96 z" stroke-linecap="round"/>
</g>
		<g transform="matrix(0.7324 0 0 0.7324 -238.9126 -19.7919)" id="911721">
<path style="stroke: rgb(237,237,237); stroke-width: 0; stroke-dasharray: none; stroke-linecap: butt; stroke-dashoffset: 0; stroke-linejoin: miter; stroke-miterlimit: 2; is-custom-font: none; font-file-url: none; fill: rgb(237,237,237); fill-rule: nonzero; opacity: 1;" transform=" translate(-101.0474, -97.0227)" d="M 122.32637 97.02237 c -0.01294 18.2218 -15.61035 24.97815 -23.8866 24.97815 H 86.00716 v -0.04602 h -6.23865 V 72.04483 h 18.67126 C 106.71602 72.04483 122.31343 78.80118 122.32637 97.02237 z M 109.12691 97.0231 c -0.01001 -8.35425 -5.4314 -13.91675 -13.8418 -13.91675 H 92.2458 v 27.83337 h 3.03931 C 103.69551 110.93973 109.1169 105.37723 109.12691 97.0231 z" stroke-linecap="round"/>
</g>
		<g transform="matrix(0.7324 0 0 0.7324 -201.9839 -13.8114)" id="401989">
<path style="stroke: rgb(237,237,237); stroke-width: 0; stroke-dasharray: none; stroke-linecap: butt; stroke-dashoffset: 0; stroke-linejoin: miter; stroke-miterlimit: 2; is-custom-font: none; font-file-url: none; fill: rgb(237,237,237); fill-rule: nonzero; opacity: 1;" transform=" translate(-99.2163, -105.141)" d="M 106.69954 88.03019 h 11.78455 v 33.96533 h -11.78455 v -2.93787 c -2.82764 2.60876 -6.46326 4.17859 -10.42932 4.17859 c -9.01453 0 -16.32178 -8.10144 -16.32178 -18.09521 s 7.30725 -18.09521 16.32178 -18.09521 c 3.96606 0 7.60168 1.57056 10.42932 4.17786 V 88.03019 z M 106.69954 105.14103 c 0 -4.3009 -3.05457 -7.78821 -7.17908 -7.78821 s -7.46777 3.4873 -7.46777 7.78821 c 0 4.30164 3.34326 7.78894 7.46777 7.78894 S 106.69954 109.44193 106.69954 105.14103 z" stroke-linecap="round"/>
</g>
		<g transform="matrix(0.7324 0 0 0.7324 -173.9376 -21.0185)" id="499583">
<path style="stroke: rgb(237,237,237); stroke-width: 0; stroke-dasharray: none; stroke-linecap: butt; stroke-dashoffset: 0; stroke-linejoin: miter; stroke-miterlimit: 2; is-custom-font: none; font-file-url: none; fill: rgb(237,237,237); fill-rule: nonzero; opacity: 1;" transform=" translate(-99.9887, -95.3089)" d="M 94.09688 121.99625 V 68.62162 h 11.78369 v 53.37463 H 94.09688 z" stroke-linecap="round"/>
</g>
		<g transform="matrix(0.7324 0 0 0.7324 -155.7415 -21.0185)" id="10732">
<path style="stroke: rgb(237,237,237); stroke-width: 0; stroke-dasharray: none; stroke-linecap: butt; stroke-dashoffset: 0; stroke-linejoin: miter; stroke-miterlimit: 2; is-custom-font: none; font-file-url: none; fill: rgb(237,237,237); fill-rule: nonzero; opacity: 1;" transform=" translate(-99.9887, -95.3089)" d="M 94.09688 121.99625 V 68.62162 h 11.78369 v 53.37463 H 94.09688 z" stroke-linecap="round"/>
</g>
		<g transform="matrix(0.7324 0 0 0.7324 -128.8562 -13.8114)" id="958193">
<path style="stroke: rgb(237,237,237); stroke-width: 0; stroke-dasharray: none; stroke-linecap: butt; stroke-dashoffset: 0; stroke-linejoin: miter; stroke-miterlimit: 2; is-custom-font: none; font-file-url: none; fill: rgb(237,237,237); fill-rule: nonzero; opacity: 1;" transform=" translate(-99.2163, -105.141)" d="M 106.69954 88.03019 h 11.78455 v 33.96533 h -11.78455 v -2.93787 c -2.82764 2.60876 -6.46326 4.17859 -10.42932 4.17859 c -9.01453 0 -16.32178 -8.10144 -16.32178 -18.09521 s 7.30725 -18.09521 16.32178 -18.09521 c 3.96606 0 7.60168 1.57056 10.42932 4.17786 V 88.03019 z M 106.69954 105.14103 c 0 -4.3009 -3.05457 -7.78821 -7.17908 -7.78821 s -7.46777 3.4873 -7.46777 7.78821 c 0 4.30164 3.34326 7.78894 7.46777 7.78894 S 106.69954 109.44193 106.69954 105.14103 z" stroke-linecap="round"/>
</g>
		<g transform="matrix(0.7324 0 0 0.7324 -96.1206 -13.8916)" id="356533">
<path style="stroke: rgb(237,237,237); stroke-width: 0; stroke-dasharray: none; stroke-linecap: butt; stroke-dashoffset: 0; stroke-linejoin: miter; stroke-miterlimit: 2; is-custom-font: none; font-file-url: none; fill: rgb(237,237,237); fill-rule: nonzero; opacity: 1;" transform=" translate(-99.6594, -105.0503)" d="M 114.11397 110.5004 c 0 9.28809 -8.54883 12.75159 -15.70996 12.75159 s -13.19922 -3.89832 -13.19922 -3.89832 l 4.25 -8.45715 c 0 0 4.67725 3.43616 9.27148 3.43616 c 1.9165 0 3.66992 -1.17957 3.66992 -2.57642 c 0 -5.26074 -14.6792 -0.70142 -14.6792 -12.61914 c 0 -9.45654 8.51318 -12.28857 14.74414 -12.28857 c 3.50537 0 7.99268 0.89429 10.62305 2.18042 l -3.92822 7.79602 c 0 0 -3.44434 -1.71875 -6.30908 -1.71875 c -2.45605 0 -3.60498 1.2356 -3.60498 2.44531 C 99.2419 101.56669 114.11446 98.49418 114.11397 110.5004 z" stroke-linecap="round"/>
</g>
		<g transform="matrix(0.7324 0 0 0.7324 -60.8098 -19.8088)" id="64837">
<path style="stroke: rgb(237,237,237); stroke-width: 0; stroke-dasharray: none; stroke-linecap: butt; stroke-dashoffset: 0; stroke-linejoin: miter; stroke-miterlimit: 2; is-custom-font: none; font-file-url: none; fill: rgb(237,237,237); fill-rule: nonzero; opacity: 1;" transform=" translate(-99.987, -96.9997)" d="M 121.717 72.04483 v 49.90967 H 109.2397 v -20.71619 H 90.73409 v 20.71619 H 78.25703 V 72.04483 h 12.47705 v 19.48914 h 18.50562 V 72.04483 H 121.717 z" stroke-linecap="round"/>
</g>
		<g transform="matrix(0.7324 0 0 0.7324 -30.6421 -35.8393)" id="577723">
<path style="stroke: rgb(236,167,21); stroke-width: 0; stroke-dasharray: none; stroke-linecap: butt; stroke-dashoffset: 0; stroke-linejoin: miter; stroke-miterlimit: 2; is-custom-font: none; font-file-url: none; fill: rgb(236,167,21); fill-rule: nonzero; opacity: 1;" transform=" translate(-100.0148, -75.0882)" d="M 93.48506 75.08781 c 0 -3.72131 2.92334 -6.73901 6.5293 -6.73901 c 3.60693 0 6.53027 3.0177 6.53027 6.73901 c 0 3.72205 -2.92334 6.73975 -6.53027 6.73975 C 96.4084 81.82755 93.48506 78.80985 93.48506 75.08781 z" stroke-linecap="round"/>
</g>
		<g transform="matrix(0.7324 0 0 0.7324 -30.666 -13.8953)" id="274713">
<path style="stroke: rgb(237,237,237); stroke-width: 0; stroke-dasharray: none; stroke-linecap: butt; stroke-dashoffset: 0; stroke-linejoin: miter; stroke-miterlimit: 2; is-custom-font: none; font-file-url: none; fill: rgb(237,237,237); fill-rule: nonzero; opacity: 1;" transform=" translate(-99.982, -105.0492)" d="M 94.0898 121.99552 V 88.10294 h 11.78442 v 33.89258 H 94.0898 z" stroke-linecap="round"/>
</g>
		<g transform="matrix(0.7324 0 0 0.7324 -3.9985 -14.1758)" id="323850">
<path style="stroke: rgb(237,237,237); stroke-width: 0; stroke-dasharray: none; stroke-linecap: butt; stroke-dashoffset: 0; stroke-linejoin: miter; stroke-miterlimit: 2; is-custom-font: none; font-file-url: none; fill: rgb(237,237,237); fill-rule: nonzero; opacity: 1;" transform=" translate(-100.1723, -104.6867)" d="M 117.58809 99.88029 v 22.11597 H 105.8044 v -17.6991 c 0 -5.45886 -1.8916 -7.40662 -5.27734 -7.40662 c -4.90234 0 -5.98633 3.88037 -5.98633 6.66992 v 18.43506 H 82.75655 V 88.10294 h 11.78418 v 4.13318 c 0 0 2.87305 -4.85901 10.42871 -4.85901 C 111.696 87.37711 117.58809 91.21281 117.58809 99.88029 z" stroke-linecap="round"/>
</g>
		<g transform="matrix(0.7324 0 0 0.7324 31.0291 -20.5642)" id="192196">
<path style="stroke: rgb(237,237,237); stroke-width: 0; stroke-dasharray: none; stroke-linecap: butt; stroke-dashoffset: 0; stroke-linejoin: miter; stroke-miterlimit: 2; is-custom-font: none; font-file-url: none; fill: rgb(237,237,237); fill-rule: nonzero; opacity: 1;" transform=" translate(-99.2163, -95.9286)" d="M 106.69966 68.62089 h 11.78442 v 53.37463 h -11.78442 v -2.93787 c -2.82764 2.60876 -6.46326 4.17859 -10.42932 4.17859 c -9.01453 0 -16.32178 -8.10144 -16.32178 -18.09521 s 7.30725 -18.09521 16.32178 -18.09521 c 3.96606 0 7.60168 1.57056 10.42932 4.17786 V 68.62089 z M 106.69966 105.14103 c 0 -4.3009 -3.05457 -7.78821 -7.17908 -7.78821 s -7.46777 3.4873 -7.46777 7.78821 c 0 4.30164 3.34326 7.78894 7.46777 7.78894 S 106.69966 109.44193 106.69966 105.14103 z" stroke-linecap="round"/>
</g>
		<g transform="matrix(0.7324 0 0 0.7324 67.3173 -13.4546)" id="981490">
<path style="stroke: rgb(237,237,237); stroke-width: 0; stroke-dasharray: none; stroke-linecap: butt; stroke-dashoffset: 0; stroke-linejoin: miter; stroke-miterlimit: 2; is-custom-font: none; font-file-url: none; fill: rgb(237,237,237); fill-rule: nonzero; opacity: 1;" transform=" translate(-99.9736, -105.6772)" d="M 117.55049 88.10294 v 21.88049 c 0 12.57739 -12.92871 13.26794 -17.57715 13.26794 c -4.64795 0 -17.57666 -0.69055 -17.57666 -13.26794 V 88.10294 h 11.78369 v 19.82837 c 0 1.73462 0.66455 5.5415 5.79297 5.5415 c 5.12891 0 5.79297 -3.80688 5.79297 -5.5415 V 88.10294 H 117.55049 z" stroke-linecap="round"/>
</g>
		<g transform="matrix(0.7324 0 0 0.7324 103.2861 -19.8088)" id="455784">
<path style="stroke: rgb(237,237,237); stroke-width: 0; stroke-dasharray: none; stroke-linecap: butt; stroke-dashoffset: 0; stroke-linejoin: miter; stroke-miterlimit: 2; is-custom-font: none; font-file-url: none; fill: rgb(237,237,237); fill-rule: nonzero; opacity: 1;" transform=" translate(-101.2356, -96.9997)" d="M 119.71407 88.78775 c 0 14.45947 -10.95166 16.7428 -16.49268 16.7428 h -7.9873 v 16.42395 H 82.75703 V 72.04483 h 20.46436 C 108.76241 72.04483 119.71455 74.32816 119.71407 88.78775 z M 106.51631 88.78836 c 0 -4.78333 -3.13867 -6.19397 -6.2959 -6.19397 h -4.98535 v 12.38733 h 4.98535 C 103.37764 94.98172 106.51534 93.57108 106.51631 88.78836 z" stroke-linecap="round"/>
</g>
		<g transform="matrix(0.7324 0 0 0.7324 129.2508 -13.9037)" id="730013">
<path style="stroke: rgb(237,237,237); stroke-width: 0; stroke-dasharray: none; stroke-linecap: butt; stroke-dashoffset: 0; stroke-linejoin: miter; stroke-miterlimit: 2; is-custom-font: none; font-file-url: none; fill: rgb(237,237,237); fill-rule: nonzero; opacity: 1;" transform=" translate(-93.4726, -105.0496)" d="M 87.58076 121.99625 V 88.10294 h 11.78369 v 33.89331 H 87.58076 z" stroke-linecap="round"/>
</g>
		<g transform="matrix(0.7324 0 0 0.7324 140.1049 -21.3903)" id="750332">
<path style="stroke: rgb(236,167,21); stroke-width: 0; stroke-dasharray: none; stroke-linecap: butt; stroke-dashoffset: 0; stroke-linejoin: miter; stroke-miterlimit: 2; is-custom-font: none; font-file-url: none; fill: rgb(236,167,21); fill-rule: nonzero; opacity: 1;" transform=" translate(-108.2922, -94.8276)" d="M 101.76241 94.82755 c 0 -3.72119 2.92334 -6.73901 6.53027 -6.73901 c 3.60596 0 6.5293 3.01782 6.5293 6.73901 c 0 3.72205 -2.92334 6.73914 -6.5293 6.73914 C 104.68575 101.56669 101.76241 98.5496 101.76241 94.82755 z" stroke-linecap="round"/>
</g>
		<g transform="matrix(0.7324 0 0 0.7324 157.0181 -35.8393)" id="285599">
<path style="stroke: rgb(236,167,21); stroke-width: 0; stroke-dasharray: none; stroke-linecap: butt; stroke-dashoffset: 0; stroke-linejoin: miter; stroke-miterlimit: 2; is-custom-font: none; font-file-url: none; fill: rgb(236,167,21); fill-rule: nonzero; opacity: 1;" transform=" translate(-100.0148, -75.0882)" d="M 93.48506 75.08781 c 0 -3.72131 2.92334 -6.73901 6.5293 -6.73901 c 3.60693 0 6.53027 3.0177 6.53027 6.73901 c 0 3.72205 -2.92334 6.73975 -6.53027 6.73975 C 96.4084 81.82755 93.48506 78.80985 93.48506 75.08781 z" stroke-linecap="round"/>
</g>
		<g transform="matrix(0.7324 0 0 0.7324 156.9942 -13.8953)" id="851470">
<path style="stroke: rgb(237,237,237); stroke-width: 0; stroke-dasharray: none; stroke-linecap: butt; stroke-dashoffset: 0; stroke-linejoin: miter; stroke-miterlimit: 2; is-custom-font: none; font-file-url: none; fill: rgb(237,237,237); fill-rule: nonzero; opacity: 1;" transform=" translate(-99.982, -105.0492)" d="M 94.0898 121.99552 V 88.10294 h 11.78442 v 33.89258 H 94.0898 z" stroke-linecap="round"/>
</g>
		<g transform="matrix(0.7324 0 0 0.7324 183.1482 -13.8958)" id="72105">
<path style="stroke: rgb(237,237,237); stroke-width: 0; stroke-dasharray: none; stroke-linecap: butt; stroke-dashoffset: 0; stroke-linejoin: miter; stroke-miterlimit: 2; is-custom-font: none; font-file-url: none; fill: rgb(237,237,237); fill-rule: nonzero; opacity: 1;" transform=" translate(-99.8672, -105.0417)" d="M 106.71529 109.6724 h 11.26465 c 0 11.86011 -12.58813 13.56531 -17.79419 13.56531 s -18.47314 -3.2511 -18.47314 -18.02246 s 11.45825 -18.36951 18.34863 -18.36951 c 10.64673 0 15.6311 5.49048 17.28784 13.28149 c 0.4646 2.16309 0.67261 4.4989 0.67261 6.93848 H 93.48994 c 0 5.55249 2.90405 7.72925 7.08398 7.72925 C 104.75313 114.79496 106.71529 112.44535 106.71529 109.6724 z M 93.7729 100.12724 h 13.20532 l -0.07642 -0.04822 c 0 -2.49573 -1.88501 -5.50415 -6.52222 -5.50415 C 95.74947 94.57487 93.77364 97.88859 93.7729 100.12724 z" stroke-linecap="round"/>
</g>
		<g transform="matrix(0.7324 0 0 0.7324 214.1745 -13.8916)" id="909921">
<path style="stroke: rgb(237,237,237); stroke-width: 0; stroke-dasharray: none; stroke-linecap: butt; stroke-dashoffset: 0; stroke-linejoin: miter; stroke-miterlimit: 2; is-custom-font: none; font-file-url: none; fill: rgb(237,237,237); fill-rule: nonzero; opacity: 1;" transform=" translate(-99.6594, -105.0503)" d="M 114.11397 110.5004 c 0 9.28809 -8.54883 12.75159 -15.70996 12.75159 s -13.19922 -3.89832 -13.19922 -3.89832 l 4.25 -8.45715 c 0 0 4.67725 3.43616 9.27148 3.43616 c 1.9165 0 3.66992 -1.17957 3.66992 -2.57642 c 0 -5.26074 -14.6792 -0.70142 -14.6792 -12.61914 c 0 -9.45654 8.51318 -12.28857 14.74414 -12.28857 c 3.50537 0 7.99268 0.89429 10.62305 2.18042 l -3.92822 7.79602 c 0 0 -3.44434 -1.71875 -6.30908 -1.71875 c -2.45605 0 -3.60498 1.2356 -3.60498 2.44531 C 99.2419 101.56669 114.11446 98.49418 114.11397 110.5004 z" stroke-linecap="round"/>
</g>
		<g transform="matrix(0.7324 0 0 0.7324 239.7893 -17.1643)" id="338005">
<path style="stroke: rgb(237,237,237); stroke-width: 0; stroke-dasharray: none; stroke-linecap: butt; stroke-dashoffset: 0; stroke-linejoin: miter; stroke-miterlimit: 2; is-custom-font: none; font-file-url: none; fill: rgb(237,237,237); fill-rule: nonzero; opacity: 1;" transform=" translate(-95.6401, -100.5906)" d="M 106.36348 113.47355 v 9.77844 c -6.89941 0 -17.72852 -1.4552 -17.72852 -13.25342 V 98.49418 H 84.9167 V 88.10294 h 3.71826 V 77.92912 h 11.78369 v 30.0022 C 100.41866 109.95036 101.51387 113.47355 106.36348 113.47355 z" stroke-linecap="round"/>
</g>
		<g transform="matrix(0.7324 0 0 0.7324 249.7148 -21.3848)" id="631190">
<path style="stroke: rgb(236,167,21); stroke-width: 0; stroke-dasharray: none; stroke-linecap: butt; stroke-dashoffset: 0; stroke-linejoin: miter; stroke-miterlimit: 2; is-custom-font: none; font-file-url: none; fill: rgb(236,167,21); fill-rule: nonzero; opacity: 1;" transform=" translate(-109.1916, -94.8276)" d="M 102.66182 94.82755 c 0 -3.72119 2.92334 -6.73901 6.53027 -6.73901 c 3.60596 0 6.5293 3.01782 6.5293 6.73901 c 0 3.72205 -2.92334 6.73914 -6.5293 6.73914 C 105.58516 101.56669 102.66182 98.5496 102.66182 94.82755 z" stroke-linecap="round"/>
</g>
</g>
</g>
</svg>